{"glyphs":{"0":{"ha":883,"x_min":0,"x_max":885,"o":"m 8 365 q 1 437 0 400 q 10 510 3 474 q 29 583 18 547 q 53 651 40 619 q 76 692 61 675 q 100 731 92 710 q 109 753 106 742 q 117 776 113 765 q 132 802 122 790 q 150 825 142 814 q 172 861 163 842 q 199 893 181 881 q 235 917 217 906 q 272 939 253 928 q 292 952 283 946 q 311 961 300 958 q 339 967 325 965 q 367 972 353 969 q 382 977 375 975 q 397 979 389 979 q 456 977 429 979 q 514 965 483 975 q 543 956 529 961 q 569 944 557 951 q 617 907 596 929 q 658 863 638 885 q 710 813 683 838 q 756 757 736 788 q 786 704 771 731 q 818 654 801 678 q 861 569 846 613 q 882 476 876 525 q 878 413 885 444 q 872 349 872 381 q 870 307 872 326 q 861 268 868 288 q 849 226 854 247 q 833 186 844 206 q 797 131 815 158 q 760 76 778 104 q 732 49 749 60 q 700 25 715 39 q 683 -3 688 15 q 677 -26 681 -14 q 671 -49 674 -37 q 663 -103 665 -76 q 657 -157 661 -131 q 656 -200 654 -178 q 656 -243 658 -222 q 649 -282 653 -262 q 643 -321 646 -301 q 636 -349 640 -336 q 613 -362 632 -362 q 587 -345 596 -362 q 568 -314 578 -328 q 547 -286 557 -299 q 529 -254 538 -274 q 519 -222 522 -239 q 515 -185 517 -204 q 510 -140 514 -161 q 501 -96 507 -119 q 494 -72 499 -85 q 482 -50 490 -58 q 457 -38 471 -39 q 428 -35 443 -37 q 387 -37 403 -32 q 367 -71 371 -43 q 367 -112 364 -90 q 360 -151 369 -133 q 336 -182 350 -169 q 313 -212 322 -194 q 301 -249 301 -232 q 297 -285 300 -265 q 288 -324 296 -306 q 276 -332 285 -331 q 258 -332 268 -333 q 240 -326 249 -331 q 228 -315 232 -322 q 217 -279 218 -300 q 214 -240 217 -258 q 204 -161 210 -200 q 189 -83 199 -122 q 172 13 178 -37 q 168 51 169 32 q 154 88 167 69 q 124 124 140 107 q 92 158 107 140 q 62 203 75 181 q 42 253 49 225 q 36 281 39 267 q 28 308 33 294 q 17 337 24 322 q 8 365 11 351 m 356 468 q 353 431 356 449 q 354 393 350 413 q 386 335 361 361 q 451 315 411 310 q 478 331 471 318 q 492 361 486 343 q 503 397 499 379 q 506 433 507 414 q 502 468 504 450 q 496 504 500 486 q 485 548 490 524 q 461 585 479 572 q 438 583 449 593 q 415 567 426 574 q 404 564 410 564 q 392 564 399 564 q 370 557 374 564 q 364 535 367 550 q 359 519 361 528 q 356 504 357 511 q 355 486 354 496 q 356 468 356 476 z "},"1":{"ha":449,"x_min":-3,"x_max":450,"o":"m 4 696 q 4 740 7 717 q 7 783 1 764 q 15 799 10 793 q 25 813 19 806 q 37 830 32 821 q 49 846 42 839 q 69 862 60 856 q 88 879 79 868 q 106 909 100 893 q 124 936 111 925 q 135 949 131 943 q 143 963 140 954 q 147 978 146 969 q 156 990 149 986 q 197 1005 171 1001 q 240 1008 224 1008 q 279 1007 260 1008 q 317 1008 299 1006 q 353 1013 333 1011 q 389 1011 372 1015 q 417 994 406 1007 q 432 956 429 982 q 434 935 433 944 q 438 914 435 925 q 441 892 440 903 q 443 871 442 882 q 444 840 444 856 q 443 810 443 825 q 438 747 443 779 q 436 683 432 715 q 439 609 440 647 q 442 533 438 571 q 448 469 446 501 q 447 404 450 438 q 442 379 446 392 q 438 356 439 367 q 437 332 436 344 q 438 308 438 319 q 437 258 438 283 q 439 208 436 232 q 444 169 440 188 q 447 129 447 150 q 448 63 447 97 q 440 -3 449 29 q 428 -29 436 -19 q 411 -45 421 -39 q 390 -56 401 -51 q 367 -65 379 -60 q 342 -90 351 -72 q 335 -129 332 -108 q 341 -158 338 -144 q 343 -187 344 -171 q 334 -221 340 -206 q 325 -253 328 -236 q 326 -305 321 -279 q 329 -358 331 -331 q 328 -419 328 -389 q 328 -482 328 -450 q 328 -509 328 -497 q 326 -535 329 -521 q 321 -556 324 -550 q 307 -571 318 -562 q 290 -576 297 -578 q 276 -567 282 -574 q 267 -548 271 -560 q 261 -525 263 -536 q 258 -504 258 -514 q 256 -483 258 -494 q 247 -461 251 -471 q 243 -437 242 -451 q 247 -409 244 -422 q 247 -381 250 -396 q 240 -350 244 -365 q 239 -315 236 -335 q 242 -268 242 -292 q 246 -221 243 -244 q 244 -165 249 -193 q 228 -114 239 -137 q 197 -74 218 -89 q 174 -61 186 -64 q 151 -47 163 -58 q 131 -17 138 -35 q 121 19 124 0 q 115 66 118 43 q 110 113 113 89 q 109 160 107 136 q 114 207 111 183 q 118 265 117 235 q 122 325 119 296 q 126 368 125 347 q 131 411 128 389 q 136 478 136 444 q 135 546 136 511 q 136 572 135 556 q 136 603 138 588 q 129 628 135 618 q 107 635 124 638 q 95 628 100 633 q 86 617 90 622 q 77 606 82 611 q 64 601 72 601 q 50 606 54 601 q 39 617 46 611 q 25 625 32 624 q 11 631 18 626 q 0 660 -3 639 q 4 696 3 681 z "},"2":{"ha":821,"x_min":0,"x_max":821,"o":"m 0 669 q 26 731 0 704 q 49 754 38 742 q 72 778 61 767 q 94 804 85 790 q 118 829 103 818 q 144 854 132 840 q 171 878 156 868 q 190 888 181 885 q 208 897 200 890 q 222 908 217 903 q 236 918 228 913 q 274 936 253 929 q 317 950 296 943 q 398 978 357 961 q 481 994 439 994 q 525 992 504 994 q 567 982 546 989 q 611 965 590 974 q 643 932 632 957 q 659 892 651 913 q 679 856 667 872 q 715 810 696 832 q 749 764 733 789 q 791 688 772 728 q 807 604 810 649 q 801 540 806 572 q 789 478 796 508 q 784 444 786 461 q 778 413 782 428 q 760 384 774 397 q 733 360 746 371 q 692 335 715 344 q 649 314 669 325 q 617 294 629 304 q 589 268 604 283 q 578 258 586 265 q 565 242 571 250 q 557 225 558 233 q 564 213 556 217 q 582 213 571 210 q 600 218 593 217 q 619 223 610 221 q 636 226 628 225 q 657 228 647 228 q 678 226 667 229 q 693 219 686 224 q 710 215 700 215 q 725 219 719 215 q 740 226 731 224 q 775 229 757 232 q 805 213 794 226 q 818 181 815 200 q 819 143 821 163 q 815 110 818 124 q 814 101 814 106 q 813 93 814 97 q 806 59 808 76 q 801 26 804 42 q 799 -20 799 3 q 799 -67 800 -43 q 788 -156 796 -111 q 779 -244 779 -200 q 779 -274 779 -254 q 775 -312 779 -294 q 761 -341 771 -331 q 733 -343 751 -351 q 713 -321 721 -337 q 701 -292 706 -304 q 691 -257 694 -275 q 683 -222 688 -239 q 678 -185 679 -204 q 674 -149 676 -167 q 668 -106 669 -128 q 661 -65 667 -85 q 657 -49 660 -58 q 649 -34 654 -40 q 638 -26 644 -28 q 621 -31 631 -24 q 608 -60 608 -40 q 606 -93 608 -79 q 592 -112 603 -107 q 574 -129 581 -118 q 567 -149 569 -136 q 563 -174 565 -162 q 553 -190 560 -185 q 533 -185 546 -194 q 514 -156 519 -175 q 503 -122 508 -137 q 497 -101 500 -114 q 490 -77 494 -89 q 478 -56 486 -65 q 460 -44 471 -47 q 442 -46 449 -42 q 425 -53 436 -50 q 396 -51 410 -56 q 367 -49 382 -46 q 342 -70 350 -51 q 324 -101 335 -89 q 294 -128 310 -118 q 260 -146 279 -137 q 213 -195 222 -162 q 199 -265 203 -228 q 197 -308 196 -287 q 192 -351 199 -329 q 188 -371 189 -361 q 183 -390 186 -381 q 176 -419 181 -404 q 163 -446 172 -435 q 147 -455 154 -456 q 134 -448 139 -454 q 126 -432 129 -442 q 122 -414 122 -422 q 121 -353 121 -383 q 113 -294 121 -324 q 96 -244 106 -269 q 83 -193 86 -219 q 81 -157 81 -175 q 78 -119 81 -139 q 69 -84 75 -99 q 49 -54 64 -69 q 26 -30 36 -43 q 17 3 15 -17 q 21 31 18 18 q 24 60 24 44 q 26 86 24 75 q 35 108 28 97 q 58 140 46 125 q 82 171 71 156 q 101 199 92 186 q 122 225 110 213 q 156 259 139 242 q 190 292 172 276 q 254 349 222 321 q 322 401 286 378 q 397 449 358 426 q 467 503 435 471 q 506 551 489 524 q 514 611 524 578 q 496 637 510 628 q 464 649 482 646 q 428 652 446 653 q 396 649 410 651 q 333 629 365 642 q 285 586 300 617 q 276 556 278 572 q 271 524 274 540 q 261 495 268 508 q 239 474 254 482 q 212 457 222 465 q 194 429 201 449 q 183 396 188 413 q 167 364 178 379 q 152 338 161 356 q 131 305 143 321 q 107 278 119 289 q 81 269 94 267 q 58 289 64 274 q 51 324 51 304 q 51 362 50 343 q 51 393 53 381 q 51 464 49 429 q 49 535 54 499 q 40 569 46 554 q 22 599 35 583 q 6 632 11 614 q 0 669 0 650 z "},"3":{"ha":754,"x_min":1,"x_max":757,"o":"m 47 774 q 34 825 40 797 q 39 881 28 853 q 53 899 44 893 q 72 913 61 906 q 94 930 85 919 q 118 943 103 940 q 154 952 138 947 q 189 963 171 957 q 230 974 208 969 q 271 983 251 978 q 358 992 314 994 q 446 988 401 990 q 481 988 465 986 q 517 983 497 989 q 553 975 535 978 q 588 961 572 972 q 613 940 601 951 q 640 918 625 928 q 662 905 651 911 q 682 889 672 899 q 703 860 694 876 q 717 828 710 844 q 731 797 724 813 q 743 770 738 782 q 749 740 749 758 q 749 703 749 721 q 746 667 749 686 q 740 624 743 647 q 728 582 736 601 q 709 553 721 567 q 686 529 697 540 q 667 509 674 518 q 672 485 661 500 q 684 469 679 476 q 693 451 689 461 q 703 435 697 440 q 715 424 708 431 q 733 395 726 411 q 743 364 740 379 q 753 295 750 329 q 744 228 757 261 q 731 187 738 208 q 717 146 724 165 q 699 111 710 126 q 676 81 688 96 q 647 33 661 57 q 617 -15 633 8 q 595 -41 606 -29 q 574 -65 585 -53 q 559 -90 563 -76 q 550 -118 556 -104 q 539 -154 543 -136 q 533 -192 535 -172 q 530 -222 532 -207 q 526 -253 528 -237 q 523 -290 525 -271 q 499 -312 521 -310 q 474 -306 482 -315 q 465 -281 467 -296 q 463 -251 463 -267 q 464 -225 464 -235 q 461 -190 463 -207 q 457 -156 460 -174 q 440 -90 451 -118 q 396 -37 428 -61 q 365 -22 382 -28 q 336 -36 347 -17 q 326 -69 328 -51 q 321 -104 324 -86 q 317 -178 317 -140 q 313 -251 318 -215 q 309 -281 311 -262 q 302 -316 307 -299 q 288 -347 297 -333 q 264 -360 279 -360 q 235 -344 244 -360 q 224 -308 226 -329 q 223 -266 222 -287 q 222 -232 224 -244 q 219 -158 219 -196 q 217 -83 219 -121 q 212 -41 215 -60 q 199 -3 208 -22 q 191 15 194 7 q 181 29 188 22 q 166 38 174 35 q 151 44 158 40 q 115 66 133 56 q 78 88 97 76 q 49 105 65 96 q 25 129 33 114 q 6 181 10 153 q 1 238 1 210 q 3 288 1 264 q 25 331 4 311 q 56 346 36 342 q 90 351 75 350 q 165 341 126 354 q 232 306 204 328 q 256 281 246 294 q 278 257 267 268 q 305 240 290 246 q 340 236 319 233 q 386 267 371 240 q 396 298 397 283 q 397 332 394 313 q 401 347 397 338 q 405 363 404 356 q 403 377 406 371 q 392 385 401 383 q 363 378 376 388 q 335 367 349 369 q 282 385 304 358 q 268 418 269 400 q 264 456 267 436 q 263 510 261 483 q 274 563 264 538 q 307 603 283 589 q 357 624 331 618 q 409 649 386 631 q 444 694 432 667 q 449 708 449 703 q 440 718 450 714 q 424 722 433 721 q 407 728 415 724 q 376 740 390 735 q 342 743 361 744 q 272 726 306 740 q 210 693 239 711 q 183 672 194 683 q 167 644 172 661 q 163 629 164 638 q 158 613 161 621 q 151 601 156 606 q 143 589 147 596 q 135 574 139 582 q 126 562 131 567 q 115 556 121 557 q 99 564 108 556 q 75 593 86 575 q 61 628 64 611 q 55 701 54 664 q 47 774 56 739 z "},"4":{"ha":847,"x_min":-1,"x_max":849,"o":"m 6 453 q 3 506 -1 481 q 28 550 8 531 q 55 576 42 563 q 78 606 68 590 q 100 635 89 621 q 122 665 111 650 q 139 688 129 674 q 157 707 149 701 q 165 718 160 710 q 172 731 169 726 q 193 760 185 743 q 206 783 200 771 q 219 806 211 794 q 240 825 229 817 q 258 843 250 833 q 287 876 274 860 q 314 911 300 893 q 340 942 325 925 q 372 974 354 960 q 409 997 390 988 q 447 1004 428 1006 q 485 997 467 1003 q 525 992 503 990 q 563 995 544 993 q 600 996 581 997 q 619 988 611 996 q 634 968 628 979 q 643 944 640 957 q 646 924 646 932 l 646 879 q 649 838 646 858 q 651 793 651 817 q 649 763 651 778 q 646 732 646 747 q 647 711 646 721 q 649 690 649 701 q 646 650 649 669 q 646 610 643 631 q 647 594 646 603 q 649 576 647 585 q 653 560 650 567 q 664 549 657 553 q 706 543 682 539 q 749 550 729 547 q 785 551 764 551 q 818 539 806 550 q 837 510 829 528 q 846 476 844 492 q 844 431 849 453 q 838 386 840 410 q 836 353 836 371 q 829 319 836 335 q 814 294 822 306 q 786 290 806 282 q 761 308 771 297 q 733 322 751 319 q 702 326 718 325 q 669 325 686 328 q 640 311 646 321 q 636 278 635 301 q 636 240 638 258 q 631 203 635 221 q 626 185 628 193 q 626 168 625 178 q 630 151 628 160 q 632 133 632 143 q 628 75 632 104 q 613 19 625 46 q 597 -3 606 7 q 583 -28 588 -12 q 572 -65 578 -46 q 567 -103 567 -83 q 569 -149 567 -126 q 568 -194 571 -171 q 565 -220 567 -207 q 565 -246 563 -233 q 569 -267 568 -257 q 569 -287 571 -276 q 564 -325 567 -307 q 558 -362 561 -343 q 553 -396 557 -372 q 542 -440 550 -419 q 521 -472 533 -461 q 490 -462 508 -482 q 480 -440 482 -454 q 478 -410 478 -426 q 481 -378 479 -393 q 483 -353 483 -362 q 485 -292 483 -322 q 486 -232 486 -262 q 476 -178 486 -203 q 461 -125 467 -153 q 464 -71 456 -97 q 467 -17 472 -44 q 447 12 463 3 q 415 29 432 21 q 360 85 379 49 q 344 123 349 104 q 339 164 340 142 q 341 200 338 181 q 348 238 344 219 q 351 275 351 257 q 343 310 351 293 q 317 325 336 324 q 283 326 299 326 q 244 328 264 326 q 203 329 224 331 q 155 322 181 328 q 119 292 129 315 q 116 267 115 281 q 113 240 117 253 q 92 220 106 225 q 68 231 79 215 q 61 256 61 242 q 54 282 61 271 q 42 306 46 297 q 35 332 38 315 q 25 360 32 347 q 14 388 18 372 q 10 420 10 403 q 6 453 10 438 m 310 582 q 299 560 299 571 q 318 547 299 550 q 343 551 332 546 q 360 569 354 556 q 363 581 361 574 q 365 596 365 588 q 364 610 365 604 q 358 619 363 617 q 343 613 349 624 q 332 597 338 603 q 321 590 326 593 q 310 582 315 588 z "},"5":{"ha":739,"x_min":0,"x_max":740,"o":"m 35 604 q 37 626 38 615 q 36 647 36 636 q 41 668 36 658 q 47 689 46 678 q 47 707 49 700 q 47 725 44 714 q 53 744 50 735 q 58 764 56 753 q 61 792 63 778 q 60 819 60 806 q 63 859 60 839 q 68 899 65 879 q 76 944 71 918 q 97 982 82 969 q 134 988 115 996 q 172 975 153 979 q 217 974 196 969 q 260 983 238 979 q 317 988 288 989 q 375 983 347 986 q 403 985 390 982 q 429 989 415 989 q 450 986 440 989 q 469 981 460 983 q 503 975 486 978 q 536 972 519 972 q 567 981 553 972 q 599 993 582 990 q 648 994 622 997 q 693 975 674 990 q 708 947 708 964 q 710 913 708 929 q 710 890 711 901 q 708 868 710 879 q 703 844 706 854 q 700 778 693 810 q 701 744 704 761 q 699 710 699 726 q 697 672 699 690 q 689 633 696 653 q 676 617 685 622 q 658 621 668 613 q 646 639 650 628 q 631 654 642 650 q 633 653 632 654 q 598 653 614 651 q 569 667 582 656 q 540 692 554 679 q 506 706 526 706 q 488 702 494 706 q 469 694 481 699 q 382 701 425 679 q 353 714 368 708 q 322 717 339 719 q 299 708 311 714 q 285 689 286 701 q 297 659 282 669 q 328 649 313 649 q 347 650 338 649 q 365 649 357 651 q 384 640 376 646 q 403 631 392 633 q 451 622 426 624 q 500 622 476 619 q 594 598 556 628 q 660 524 632 568 q 678 500 668 511 q 697 476 688 489 q 718 438 708 461 q 731 396 728 415 q 738 308 736 354 q 726 221 740 261 q 703 148 715 185 q 663 83 692 111 q 624 48 642 64 q 578 22 607 32 q 541 0 558 15 q 518 -36 524 -15 q 514 -60 515 -47 q 510 -86 513 -74 q 508 -133 504 -110 q 508 -182 511 -157 q 501 -216 506 -199 q 490 -250 496 -233 q 481 -283 485 -267 q 472 -317 476 -300 q 454 -335 465 -337 q 440 -312 443 -332 q 440 -294 439 -303 q 442 -278 442 -286 q 441 -224 442 -250 q 442 -171 440 -197 q 443 -128 443 -150 q 440 -86 443 -107 q 437 -49 439 -67 q 424 -14 435 -31 q 399 1 413 3 q 371 -7 386 -1 q 336 -9 354 -12 q 301 -12 318 -6 q 283 -35 285 -19 q 278 -67 281 -51 q 272 -101 275 -85 q 264 -136 268 -118 q 258 -172 260 -154 q 254 -208 257 -189 q 250 -239 251 -219 q 242 -268 249 -258 q 228 -276 235 -276 q 217 -269 222 -275 q 207 -254 211 -262 q 201 -240 203 -246 q 188 -174 192 -208 q 182 -107 185 -139 q 183 -64 181 -85 q 182 -21 185 -43 q 161 33 179 11 q 115 71 143 54 q 80 93 97 82 q 49 119 63 104 q 19 180 24 147 q 11 249 14 213 q 10 267 10 258 q 8 285 11 276 q 3 299 7 292 q 0 314 0 307 q 19 340 0 333 q 53 347 38 347 q 115 347 83 347 q 178 351 147 347 q 193 355 185 353 q 210 354 201 357 q 230 344 219 351 q 249 332 240 338 q 260 320 256 326 q 272 307 265 314 q 346 265 300 275 q 432 274 392 254 q 449 289 443 279 q 460 308 454 299 q 469 326 467 318 q 464 346 471 335 q 433 374 454 365 q 394 390 413 383 q 326 400 361 400 q 308 401 317 400 q 290 401 300 401 q 274 403 279 401 q 258 410 268 406 q 243 412 250 414 q 229 407 236 410 q 215 403 222 404 q 199 407 207 403 q 174 429 183 415 q 146 440 165 443 q 121 428 128 438 q 103 407 114 418 q 78 403 88 396 q 63 425 68 411 q 60 440 60 433 q 61 453 61 446 q 56 473 61 464 q 46 490 51 482 q 28 546 31 515 q 35 604 26 576 z "},"6":{"ha":765,"x_min":0,"x_max":764,"o":"m 1 354 q 2 401 0 378 q 4 449 4 425 q 6 497 4 472 q 17 546 8 522 q 29 581 24 564 q 39 615 35 599 q 49 655 43 635 q 65 690 54 675 q 85 720 75 706 q 106 750 94 735 q 124 788 117 768 q 144 825 132 807 q 170 851 156 840 q 200 876 185 861 q 212 890 207 883 q 224 903 217 896 q 249 927 236 914 q 276 949 261 940 q 313 963 293 957 q 351 975 332 968 q 442 992 393 988 q 533 986 492 999 q 584 970 557 979 q 632 944 611 961 q 676 913 654 928 q 718 876 699 897 q 739 851 729 865 q 754 821 749 838 q 758 808 757 814 q 758 794 760 801 q 752 769 757 782 q 742 746 747 757 q 728 717 735 731 q 714 692 722 704 q 701 661 704 676 q 692 631 699 646 q 683 616 689 624 q 669 605 676 608 q 653 602 661 601 q 639 613 644 603 q 621 637 629 626 q 597 654 613 647 q 563 667 581 661 q 531 682 546 672 q 501 697 515 692 q 468 699 488 703 q 445 686 453 696 q 426 665 438 676 q 402 647 415 654 q 374 633 389 640 q 358 622 363 629 q 349 606 354 615 q 338 590 346 599 q 333 575 331 582 q 351 567 336 563 q 374 575 365 572 q 413 585 393 583 q 453 589 432 588 q 494 593 474 590 q 535 594 514 596 q 591 581 564 593 q 640 547 618 568 q 667 523 653 535 q 690 496 681 511 q 710 463 701 481 q 731 429 719 446 q 750 392 742 414 q 761 351 758 371 q 764 291 764 321 q 758 232 764 261 q 748 181 754 208 q 726 135 742 154 q 708 115 718 124 q 689 93 697 106 q 674 71 682 82 q 657 49 667 60 q 626 22 642 32 q 589 4 610 13 q 553 -15 569 -3 q 531 -46 538 -26 q 521 -91 524 -67 q 515 -135 518 -115 q 509 -174 513 -154 q 507 -215 506 -194 q 511 -257 508 -236 q 513 -299 514 -278 q 512 -324 513 -310 q 509 -352 511 -337 q 502 -379 507 -367 q 486 -397 497 -392 q 456 -399 471 -406 q 435 -378 442 -393 q 426 -344 428 -364 q 425 -308 425 -324 q 422 -264 425 -286 q 415 -219 418 -242 q 409 -142 410 -181 q 401 -67 408 -104 q 396 -34 399 -50 q 374 -12 393 -18 q 345 -20 356 -7 q 331 -49 335 -33 q 313 -124 319 -85 q 299 -201 306 -164 q 293 -272 293 -236 q 282 -339 293 -307 q 276 -353 279 -346 q 267 -367 272 -361 q 253 -374 261 -372 q 236 -371 246 -376 q 217 -341 218 -361 q 213 -306 215 -321 q 202 -262 207 -282 q 197 -219 197 -243 q 197 -178 197 -199 q 194 -133 197 -157 q 178 -27 188 -82 q 144 74 169 28 q 120 105 135 92 q 92 132 106 118 q 65 165 76 147 q 40 197 53 182 q 24 233 25 214 q 19 272 22 253 q 10 314 17 294 q 1 354 3 333 m 331 307 q 322 272 326 289 q 333 239 318 254 q 348 230 340 232 q 364 225 356 228 q 383 220 372 224 q 401 217 393 217 q 435 242 425 217 q 443 297 444 267 q 428 350 442 326 q 393 369 415 374 q 353 346 369 365 q 331 307 336 326 z "},"7":{"ha":778,"x_min":0,"x_max":778,"o":"m 8 821 q 6 852 6 836 q 4 883 6 868 q 1 928 1 901 q 14 971 0 956 q 50 990 29 988 q 93 992 71 992 q 113 991 104 992 q 133 990 122 990 q 158 994 147 990 q 182 1001 169 999 q 230 1003 207 1007 q 276 994 253 999 q 325 990 299 990 q 372 994 351 990 q 392 999 383 997 q 413 1000 401 1001 q 443 993 428 997 q 475 988 458 989 q 511 987 493 986 q 549 992 529 988 q 567 997 558 994 q 586 1001 576 1000 q 618 1004 601 1004 q 650 1004 635 1004 q 681 1007 664 1004 q 710 1000 699 1010 q 738 963 728 985 q 753 915 749 940 q 760 865 758 890 q 765 818 763 839 q 773 780 768 799 q 776 742 778 761 q 766 713 775 726 q 749 688 757 700 q 733 657 740 672 q 722 625 725 642 q 710 581 719 601 q 688 539 700 560 q 666 503 676 521 q 644 467 656 485 q 624 430 633 450 q 610 390 614 410 q 606 360 607 372 q 593 332 604 349 q 569 295 578 313 q 553 254 560 278 q 522 189 540 219 q 506 161 514 174 q 496 132 499 149 q 477 63 489 94 q 438 4 465 32 q 415 -26 422 -11 q 401 -62 407 -40 q 392 -158 390 -110 q 392 -254 394 -206 q 390 -293 390 -274 q 390 -332 390 -312 q 391 -371 390 -351 q 383 -406 392 -390 q 361 -430 376 -421 q 331 -425 346 -439 q 317 -395 318 -414 q 314 -360 317 -376 q 314 -313 311 -336 q 317 -267 317 -290 q 314 -226 317 -246 q 308 -186 311 -206 q 305 -165 307 -176 q 304 -143 303 -154 q 308 -126 306 -135 q 310 -107 310 -117 q 300 -74 310 -87 q 279 -47 290 -61 q 263 -25 269 -36 q 250 -3 257 -14 q 233 19 242 8 q 219 46 225 31 q 217 90 213 68 q 222 136 221 113 q 228 172 224 156 q 238 207 233 189 q 246 242 242 224 q 257 276 250 260 q 274 307 264 293 q 290 339 283 321 q 297 362 294 350 q 304 385 300 374 q 312 403 307 394 q 319 421 317 411 q 332 444 324 433 q 346 468 340 456 q 353 492 350 479 q 360 517 357 504 q 372 559 367 538 q 385 601 376 581 q 397 631 390 614 q 389 660 403 649 q 353 668 375 669 q 315 668 331 667 q 273 674 293 669 q 231 681 253 678 q 205 686 218 683 q 178 686 192 689 q 158 670 167 683 q 143 646 149 657 q 138 633 140 640 q 128 624 135 626 q 113 624 119 621 q 100 633 106 626 q 90 646 94 639 q 81 657 85 653 q 66 667 74 664 q 51 676 58 669 q 43 690 44 683 q 39 706 42 697 q 24 731 33 719 q 13 758 15 743 q 10 790 10 774 q 8 821 11 806 z "},"8":{"ha":717,"x_min":-3,"x_max":717,"o":"m 43 696 q 43 735 46 715 q 47 774 40 756 q 64 808 53 790 q 86 840 75 825 q 103 856 93 850 q 119 871 113 861 q 167 924 142 899 q 224 968 193 949 q 254 983 240 979 q 289 988 268 988 q 333 993 313 988 q 378 996 354 999 q 428 985 404 993 q 476 974 451 978 q 497 970 489 971 q 515 961 504 969 q 531 950 522 956 q 547 938 540 944 q 571 915 558 926 q 594 890 583 904 q 631 838 615 864 q 638 825 636 829 q 658 792 644 807 q 676 758 671 776 q 679 699 688 728 q 674 664 674 682 q 671 629 674 646 q 663 599 669 613 q 650 571 657 586 q 631 542 643 553 q 601 522 619 531 q 589 516 597 519 q 575 508 581 513 q 569 498 569 503 q 578 488 568 493 q 602 474 590 481 q 626 460 614 468 q 640 449 633 454 q 653 438 647 444 q 663 419 660 429 q 672 401 667 410 q 683 378 679 390 q 693 356 688 367 q 708 308 703 332 q 715 258 714 283 q 713 216 717 235 q 703 175 710 197 q 685 139 697 154 q 660 107 672 124 q 624 68 642 83 q 581 39 606 53 q 551 10 558 26 q 540 -29 543 -7 q 524 -138 532 -82 q 514 -250 517 -194 q 513 -289 513 -269 q 511 -328 514 -308 q 505 -358 508 -340 q 490 -383 501 -376 q 456 -374 467 -396 q 440 -318 444 -351 q 438 -251 436 -285 q 440 -208 439 -218 q 439 -133 444 -168 q 422 -62 433 -99 q 414 -33 418 -49 q 401 -7 410 -18 q 386 3 394 4 q 367 0 378 3 q 347 -3 357 -3 q 325 -1 336 -3 q 304 -8 310 0 q 296 -26 299 -15 q 276 -58 290 -46 q 254 -89 261 -69 q 250 -130 249 -108 q 251 -171 251 -151 q 250 -253 251 -211 q 239 -331 249 -294 q 225 -474 221 -399 q 226 -509 226 -489 q 215 -539 226 -529 q 199 -545 207 -546 q 187 -540 192 -544 q 178 -526 182 -535 q 172 -510 174 -518 q 168 -468 167 -490 q 167 -425 169 -446 q 159 -384 164 -404 q 151 -342 154 -364 q 146 -304 149 -322 q 146 -267 143 -286 q 151 -228 149 -247 q 146 -189 153 -208 q 126 -125 136 -157 q 108 -61 115 -93 q 103 -27 104 -44 q 101 7 103 -10 q 94 38 100 24 q 75 65 89 53 q 35 109 51 85 q 8 161 19 133 q 0 210 -3 185 q 3 261 3 236 q 2 281 3 272 q 4 300 1 289 q 11 325 7 313 q 18 350 15 338 q 24 381 19 364 q 35 415 28 399 q 53 446 42 432 q 79 467 64 460 q 101 474 90 472 q 121 483 113 476 q 128 497 129 492 q 120 508 126 503 q 106 517 114 513 q 92 524 97 521 q 62 561 72 535 q 44 608 51 588 q 39 652 38 631 q 43 696 40 674 m 319 688 q 341 663 326 672 q 375 656 356 653 q 406 668 394 658 q 414 697 418 678 q 403 726 411 710 q 385 751 396 742 q 362 762 375 761 q 332 746 349 763 q 314 719 318 732 q 319 688 310 706 m 410 314 q 405 331 410 322 q 392 349 400 340 q 374 365 383 358 q 354 372 364 371 l 346 372 q 323 347 329 369 q 321 302 317 325 q 339 264 325 279 q 375 260 353 249 q 398 285 388 267 q 410 314 408 303 z "},"9":{"ha":764,"x_min":1,"x_max":764,"o":"m 1 633 q 3 672 1 653 q 8 710 4 692 q 17 740 11 725 q 31 771 24 756 q 46 810 38 790 q 61 850 54 831 q 86 886 69 869 q 124 915 103 903 q 167 938 144 928 q 208 956 189 949 q 248 969 228 964 q 288 983 268 975 q 368 997 325 997 q 437 984 404 997 q 504 965 469 971 q 568 952 535 960 q 621 918 601 944 q 634 898 628 908 q 647 878 640 888 q 665 861 656 868 q 682 844 675 854 q 706 810 696 828 q 725 775 715 793 q 742 721 738 749 q 756 665 747 693 q 763 622 763 642 q 763 578 764 601 q 756 475 760 525 q 731 376 751 425 q 723 359 726 367 q 713 343 719 351 q 701 330 706 336 q 694 315 697 324 q 683 278 688 296 q 668 243 678 261 q 626 179 651 213 q 594 135 611 157 q 558 94 578 113 q 524 51 538 75 q 488 8 510 28 q 465 -18 472 -4 q 454 -50 458 -32 q 448 -86 450 -68 q 444 -124 446 -104 q 439 -160 443 -143 q 433 -194 435 -176 q 435 -226 433 -207 q 435 -265 436 -246 q 428 -299 433 -283 q 407 -318 422 -314 q 381 -310 390 -322 q 369 -280 372 -299 q 365 -242 365 -261 q 367 -211 365 -222 q 365 -146 369 -175 q 349 -85 360 -117 q 340 -47 342 -65 q 332 -8 339 -28 q 314 21 325 10 q 296 35 306 29 q 278 49 286 42 q 263 64 269 56 q 256 86 257 72 q 256 119 253 100 q 265 149 258 138 q 276 159 269 156 q 288 167 282 163 q 298 181 294 174 q 307 196 301 189 q 322 226 318 210 q 338 257 326 243 q 354 276 344 268 q 372 294 364 285 q 399 332 389 311 q 424 369 408 353 q 432 380 426 372 q 436 393 438 388 q 420 399 435 399 q 388 399 406 400 q 353 397 369 399 q 331 396 336 396 q 294 401 311 396 q 257 406 276 407 q 238 398 246 406 q 222 381 229 390 q 208 360 214 371 q 196 342 201 350 q 178 328 189 333 q 156 329 168 322 q 137 351 140 336 q 133 379 133 365 q 129 414 133 396 q 114 446 125 432 q 92 465 104 457 q 68 483 79 472 q 56 501 61 492 q 43 519 50 511 q 11 565 22 542 q 2 598 3 582 q 1 633 1 614 m 326 629 q 362 603 339 606 q 408 610 385 600 q 431 619 418 614 q 449 633 443 624 q 451 656 456 644 q 439 674 446 667 q 428 689 432 681 q 417 704 425 697 q 401 710 410 710 q 385 711 393 711 q 363 706 372 711 q 342 697 353 701 q 331 690 335 694 q 319 662 319 679 q 326 629 319 644 z "},"⁄":{"ha":799,"x_min":0,"x_max":801,"o":"m 336 536 q 406 635 369 588 q 486 728 443 683 q 520 764 504 747 q 554 800 536 781 q 592 842 575 821 q 629 886 608 864 q 648 910 640 897 q 663 934 656 922 q 678 957 669 946 q 701 976 688 968 q 743 985 725 992 q 776 961 761 979 q 796 932 790 946 q 792 896 801 918 q 781 876 788 885 q 769 857 774 868 q 720 771 750 813 q 658 692 690 729 q 541 543 597 619 q 431 388 485 467 q 366 300 399 343 q 297 214 333 257 q 265 172 281 193 q 235 128 250 150 q 199 89 218 106 q 161 53 181 72 q 119 -19 129 19 q 101 -100 110 -57 q 93 -138 97 -119 q 90 -178 89 -157 q 95 -223 92 -201 q 100 -267 99 -244 q 101 -299 101 -281 q 85 -325 100 -318 q 56 -324 64 -336 q 48 -290 49 -311 q 49 -249 47 -269 q 51 -222 51 -229 q 52 -169 51 -194 q 50 -117 53 -144 q 43 -70 47 -93 q 32 -24 39 -47 q 13 23 25 3 q 0 72 0 43 q 12 129 0 103 q 43 179 24 156 q 60 202 51 190 q 76 225 68 214 q 131 285 100 257 q 185 349 161 313 q 222 392 200 372 q 261 435 243 411 q 299 483 281 458 q 336 536 318 508 z "},"Ž":{"ha":857,"x_min":-1,"x_max":861,"o":"m 103 663 q 78 799 96 733 q 36 932 60 864 q 35 956 31 947 q 48 969 39 964 q 68 978 57 974 q 89 992 79 983 q 107 1010 99 1001 q 124 1024 115 1018 q 142 1033 132 1031 q 168 1035 153 1036 q 202 1028 186 1032 q 236 1021 218 1024 q 258 1021 249 1018 q 281 1026 267 1024 q 341 1031 310 1033 q 403 1028 372 1029 q 433 1022 419 1026 q 461 1015 446 1018 q 533 1014 493 1008 q 604 1029 574 1019 q 655 1035 633 1038 q 699 1014 676 1033 q 730 980 719 994 q 751 939 740 965 q 775 887 763 911 q 796 835 788 863 q 806 765 806 801 q 792 696 807 728 q 743 627 772 658 q 690 561 714 596 q 669 528 679 546 q 646 494 658 510 q 620 467 632 479 q 597 439 608 454 q 578 412 589 425 q 558 386 567 399 q 537 363 549 372 q 514 342 525 354 q 506 327 507 332 q 510 320 506 322 q 522 318 514 318 q 538 318 529 318 q 626 327 582 318 q 714 335 671 336 q 747 324 732 335 q 773 297 761 313 q 794 263 785 281 q 813 232 804 246 q 835 170 829 204 q 843 104 842 136 q 853 47 844 78 q 854 -10 861 17 q 813 -58 844 -46 q 741 -74 781 -69 q 663 -83 701 -78 q 603 -110 625 -87 q 587 -135 592 -121 q 581 -164 582 -149 q 580 -194 579 -179 q 579 -224 581 -210 q 575 -262 576 -243 q 576 -303 574 -282 q 577 -328 579 -318 q 558 -340 575 -337 q 534 -333 539 -343 q 528 -307 529 -324 q 527 -270 526 -287 q 524 -235 528 -253 q 511 -192 519 -212 q 499 -149 503 -171 q 493 -123 496 -135 q 488 -97 490 -111 q 486 -72 486 -86 q 481 -44 486 -57 q 465 -25 476 -35 q 442 -17 454 -15 q 413 -31 425 -18 q 394 -62 401 -44 q 383 -99 386 -81 q 383 -131 381 -118 q 390 -162 386 -149 q 394 -196 394 -176 q 392 -231 394 -214 q 388 -267 390 -249 q 384 -324 385 -296 q 381 -381 383 -351 q 381 -404 381 -392 q 382 -428 382 -417 q 378 -448 382 -439 q 367 -462 375 -457 q 344 -462 351 -474 q 336 -433 338 -450 q 333 -405 335 -418 q 329 -376 332 -392 q 326 -301 324 -339 q 321 -224 329 -264 q 306 -174 315 -199 q 296 -122 296 -149 q 293 -70 296 -100 q 275 -24 290 -40 q 255 -12 264 -11 q 237 -17 246 -12 q 218 -28 228 -22 q 197 -29 208 -33 q 179 -18 186 -25 q 157 -14 172 -11 q 130 -34 133 -18 q 118 -68 126 -50 q 99 -83 108 -87 q 83 -62 90 -78 q 71 -29 75 -47 q 65 -4 67 -11 q 57 18 63 14 q 42 35 51 22 q 15 81 26 56 q 1 131 4 106 q 7 181 -1 157 q 38 225 15 206 q 68 250 53 239 q 98 272 83 261 q 126 294 113 282 q 150 325 139 307 q 192 400 175 363 q 247 467 210 438 q 314 521 282 493 q 375 581 346 549 q 394 606 382 589 q 417 642 407 622 q 433 681 428 663 q 431 713 439 700 q 400 721 419 729 q 369 701 381 713 l 364 696 q 355 679 357 688 q 350 664 353 671 q 342 652 347 657 q 326 646 338 647 q 299 652 308 643 q 283 671 290 661 q 265 685 275 681 q 235 682 254 690 q 213 667 222 676 q 197 646 204 657 q 181 624 189 635 q 163 607 172 614 q 138 599 149 596 q 119 613 126 603 q 108 638 113 624 q 103 663 104 651 m 97 1446 q 67 1508 74 1476 q 82 1575 61 1540 q 124 1609 97 1600 q 179 1621 151 1618 q 210 1622 194 1624 q 242 1617 226 1619 q 286 1590 272 1610 q 321 1551 300 1571 q 360 1509 343 1532 q 392 1463 376 1486 q 400 1449 396 1456 q 408 1437 404 1442 q 418 1431 413 1432 q 431 1435 424 1429 q 463 1473 450 1449 q 490 1515 475 1497 q 523 1565 510 1538 q 561 1608 536 1592 q 622 1629 589 1628 q 688 1618 656 1631 q 722 1604 706 1610 q 749 1590 738 1599 q 767 1569 760 1582 q 776 1533 775 1556 q 769 1486 779 1504 q 744 1444 760 1468 q 714 1399 729 1421 q 683 1353 699 1376 q 653 1313 668 1331 q 624 1271 638 1294 q 597 1240 613 1253 q 571 1213 582 1228 q 548 1178 558 1196 q 524 1146 538 1161 q 492 1121 510 1131 q 460 1100 475 1111 q 433 1074 446 1090 q 413 1043 419 1058 q 408 1022 408 1033 q 406 999 407 1010 q 401 958 403 979 q 401 917 400 938 q 407 869 403 893 q 410 822 411 846 q 401 796 408 810 q 385 774 394 782 q 364 769 375 767 q 344 792 353 772 q 339 819 339 804 q 340 851 339 835 q 344 883 342 867 q 349 911 347 899 q 347 967 351 942 q 339 1019 343 992 q 340 1071 336 1044 q 332 1119 343 1097 q 297 1173 318 1147 q 257 1222 276 1199 q 241 1247 247 1233 q 226 1271 235 1260 q 204 1296 217 1285 q 182 1321 192 1307 q 168 1343 175 1332 q 154 1365 161 1354 q 126 1406 140 1386 q 97 1446 113 1426 z "},"ž":{"ha":857,"x_min":-8,"x_max":860,"o":"m 242 463 q 254 484 251 472 q 264 507 257 496 q 276 530 271 518 q 293 549 282 542 q 317 570 306 557 q 338 598 328 583 q 358 627 349 613 q 375 653 367 642 q 397 677 383 664 q 414 706 411 690 q 409 724 415 718 q 394 730 403 729 q 374 728 385 731 q 356 722 363 725 q 314 704 332 715 q 285 669 296 693 q 279 646 281 658 q 276 619 278 633 q 272 594 275 606 q 261 574 269 582 q 241 566 249 563 q 228 580 233 569 q 220 603 224 590 q 214 624 217 617 q 201 642 210 635 q 181 646 193 650 q 165 633 169 642 q 147 624 161 624 q 128 633 136 624 q 115 657 121 643 q 106 684 110 671 q 96 706 101 697 q 80 726 89 715 q 67 747 71 736 q 55 794 58 767 q 51 843 51 821 q 52 914 51 878 q 63 982 53 950 q 78 1010 68 1003 q 101 1019 89 1018 q 130 1017 114 1021 q 163 1014 146 1014 q 277 1015 221 1011 q 392 1021 333 1018 q 448 1023 419 1022 q 506 1025 476 1024 q 550 1022 528 1026 q 596 1022 572 1018 q 629 1032 613 1025 q 664 1039 646 1039 q 681 1036 672 1039 q 697 1031 689 1033 q 733 1023 717 1025 q 771 1024 750 1021 q 808 1023 792 1026 q 832 996 825 1019 q 835 940 840 968 q 829 883 829 911 q 826 839 829 860 q 807 797 822 818 q 788 758 794 779 q 772 715 782 736 q 756 692 765 701 q 739 669 746 682 q 726 647 731 656 q 710 628 721 639 q 700 615 703 621 q 697 603 697 610 q 694 591 696 597 q 689 576 693 585 q 669 555 681 564 q 651 532 658 546 q 638 508 644 519 q 624 483 632 496 q 616 475 621 478 q 607 469 611 472 q 590 460 599 465 q 575 447 582 456 q 569 435 571 442 q 565 422 568 429 q 554 407 561 414 q 540 393 547 400 q 524 377 536 389 q 500 352 511 365 q 484 326 489 339 q 490 308 479 314 q 508 309 497 306 q 525 314 518 313 q 558 310 546 317 q 589 299 569 303 q 618 297 604 296 q 647 296 632 299 q 699 278 675 290 q 750 264 722 265 q 798 257 779 263 q 832 224 817 251 q 847 174 847 200 q 850 121 847 147 q 856 72 851 97 q 847 22 860 46 q 828 -3 839 7 q 803 -19 817 -12 q 776 -32 790 -26 q 747 -46 761 -37 q 713 -76 726 -57 q 692 -119 700 -96 q 678 -167 683 -143 q 668 -211 672 -192 q 659 -244 664 -228 q 651 -275 654 -260 q 651 -337 644 -307 q 660 -397 658 -367 q 660 -428 661 -412 q 660 -460 660 -444 q 663 -496 660 -475 q 658 -531 665 -517 q 638 -551 653 -542 q 610 -556 622 -561 q 594 -535 594 -550 q 593 -506 593 -519 q 599 -421 593 -462 q 604 -336 604 -379 q 599 -299 604 -314 q 582 -268 593 -285 q 553 -211 565 -243 q 535 -151 542 -179 q 526 -108 529 -131 q 507 -68 522 -85 q 484 -53 499 -58 q 453 -47 469 -47 q 424 -53 438 -47 q 401 -68 410 -58 q 382 -111 386 -86 q 372 -157 378 -136 q 367 -177 369 -165 q 361 -200 365 -189 q 349 -219 357 -211 q 331 -228 342 -228 q 312 -221 319 -229 q 299 -200 304 -212 q 289 -175 293 -187 q 279 -154 285 -162 q 242 -135 264 -135 q 210 -158 221 -135 q 199 -198 201 -178 q 186 -236 197 -218 q 163 -267 176 -253 q 142 -301 149 -282 q 140 -348 132 -326 q 154 -393 147 -369 q 156 -474 165 -433 q 147 -556 147 -515 q 150 -587 147 -569 q 153 -624 153 -606 q 151 -658 154 -642 q 138 -685 149 -675 q 115 -697 124 -697 q 101 -688 107 -696 q 93 -668 96 -681 q 89 -644 90 -656 q 85 -593 85 -619 q 85 -540 86 -567 q 76 -492 83 -515 q 72 -443 68 -469 q 81 -334 81 -389 q 83 -224 81 -279 q 85 -145 86 -183 q 81 -68 85 -107 q 78 -33 78 -53 q 72 -1 79 -14 q 47 26 64 17 q 19 51 31 36 q 3 131 -8 88 q 13 159 7 143 q 26 191 18 175 q 45 221 35 207 q 67 243 56 235 q 103 272 86 257 q 131 308 119 288 q 169 374 147 339 q 217 432 192 408 q 229 447 224 439 q 242 463 235 456 m 128 1436 q 98 1499 104 1467 q 113 1565 92 1531 q 155 1599 128 1590 q 210 1611 182 1608 q 241 1612 225 1614 q 272 1607 257 1610 q 317 1581 303 1600 q 351 1542 331 1561 q 390 1499 374 1522 q 422 1453 407 1476 q 431 1439 426 1446 q 439 1427 435 1432 q 449 1421 443 1422 q 461 1425 454 1419 q 493 1463 481 1439 q 521 1506 506 1488 q 553 1555 540 1528 q 592 1599 567 1582 q 653 1619 619 1618 q 718 1608 686 1621 q 752 1594 736 1600 q 779 1581 768 1589 q 798 1559 790 1572 q 807 1524 806 1546 q 800 1476 810 1494 q 775 1435 790 1458 q 744 1389 760 1411 q 714 1343 729 1367 q 683 1303 699 1321 q 654 1261 668 1285 q 628 1231 643 1243 q 601 1203 613 1218 q 578 1169 589 1186 q 554 1136 568 1151 q 523 1111 540 1121 q 490 1090 506 1101 q 463 1065 476 1081 q 443 1033 450 1049 q 438 1012 439 1024 q 436 989 438 1000 q 432 949 433 969 q 432 907 431 928 q 438 860 433 883 q 440 813 442 836 q 432 786 439 800 q 415 765 425 772 q 394 760 406 757 q 375 782 383 763 q 369 810 369 794 q 371 841 369 825 q 375 873 372 857 q 379 901 378 889 q 378 957 382 932 q 369 1010 374 982 q 370 1061 367 1035 q 363 1110 374 1088 q 328 1163 349 1138 q 288 1213 307 1189 q 272 1237 278 1224 q 257 1261 265 1250 q 235 1286 247 1275 q 213 1311 222 1297 q 199 1333 206 1322 q 185 1356 192 1344 q 157 1397 171 1376 q 128 1436 143 1417 z "}," ":{"ha":486,"x_min":0,"x_max":0,"o":""},"!":{"ha":319,"x_min":0,"x_max":321,"o":"m 7 653 q 5 683 6 668 q 7 715 4 699 q 10 743 8 729 q 10 771 11 757 q 6 792 8 782 q 1 814 3 803 q 1 836 0 825 q 1 858 1 847 q 3 897 1 876 q 11 938 6 918 q 27 975 17 958 q 56 1000 38 992 q 87 1006 69 1007 q 119 1007 104 1004 q 153 1003 139 1010 q 185 993 167 997 q 221 992 201 990 q 256 1000 240 994 q 284 997 271 1006 q 304 974 297 988 q 314 931 315 953 q 314 886 313 908 q 317 855 315 871 q 317 824 319 839 q 310 783 314 801 q 311 743 306 765 q 319 706 317 721 q 317 669 321 690 q 312 624 313 647 q 308 576 311 600 q 312 537 306 557 q 318 497 318 517 q 314 418 318 457 q 310 400 313 410 q 306 383 308 390 q 290 357 300 371 q 269 335 281 343 q 238 314 257 325 q 217 283 219 303 q 228 259 214 267 q 256 247 243 251 q 299 203 285 236 q 309 171 304 188 q 311 139 314 154 q 303 82 308 113 q 283 29 299 51 q 250 -4 269 10 q 219 -42 231 -18 q 210 -78 211 -60 q 211 -117 210 -97 q 214 -156 213 -136 q 213 -194 215 -175 q 208 -234 210 -214 q 199 -274 206 -254 q 188 -306 193 -290 q 183 -342 183 -322 q 183 -358 183 -351 q 175 -371 182 -364 q 147 -369 158 -386 q 141 -337 139 -356 q 146 -303 143 -318 q 146 -263 149 -282 q 140 -225 143 -244 q 139 -187 138 -206 q 140 -150 140 -169 q 140 -112 140 -132 q 136 -75 139 -92 q 131 -49 133 -62 q 118 -28 129 -36 q 92 -18 107 -19 q 67 -6 78 -17 q 28 49 42 17 q 15 117 15 82 q 20 149 15 133 q 29 181 25 165 q 42 206 35 199 q 63 224 49 214 q 82 236 72 231 q 103 246 92 242 q 121 251 113 249 q 135 265 129 254 q 132 299 142 282 q 107 322 122 315 q 67 339 86 332 q 33 368 47 346 q 19 408 19 390 q 19 449 19 425 l 19 497 q 15 576 19 538 q 7 653 10 614 z "},"\"":{"ha":378,"x_min":-3,"x_max":389,"o":"m 15 846 q 3 897 10 869 q 3 951 -3 924 q 28 986 7 972 q 76 1004 50 1000 q 128 1002 103 1008 q 165 976 154 996 q 185 920 185 944 q 178 864 185 896 q 165 753 165 806 q 160 729 165 739 q 149 712 156 719 q 134 697 142 704 q 121 678 126 689 q 113 643 113 661 q 116 608 114 625 q 119 574 118 590 q 115 540 121 557 q 94 524 108 521 q 78 540 81 526 q 72 595 71 568 q 71 646 74 622 q 45 747 63 699 q 15 846 28 794 m 208 874 q 203 917 204 894 q 206 959 201 939 q 223 994 211 979 q 258 1017 235 1010 q 308 1017 292 1026 q 346 986 325 1007 q 371 892 389 946 q 357 839 361 864 q 353 786 353 814 q 347 762 353 772 q 333 742 342 751 q 317 725 325 733 q 303 706 308 717 q 292 674 294 690 q 290 643 290 657 q 294 602 290 624 q 300 560 299 581 q 297 522 301 539 q 278 493 293 504 q 261 490 267 485 q 253 506 256 496 q 252 530 251 517 q 253 550 253 543 q 256 597 253 574 q 258 643 258 619 q 244 721 258 681 q 221 799 231 761 q 214 836 217 818 q 208 874 211 854 z "},"#":{"ha":943,"x_min":0,"x_max":943,"o":"m 46 646 q 45 679 47 663 q 44 713 43 696 q 51 743 44 729 q 75 767 57 757 q 110 778 90 776 q 149 779 129 779 q 184 778 164 779 q 217 785 204 776 q 234 818 235 797 q 235 856 233 839 q 238 901 238 878 q 247 946 239 925 q 264 974 253 961 q 290 993 275 988 q 327 997 308 999 q 363 990 346 994 q 400 988 381 986 q 438 986 419 989 q 455 976 449 985 q 465 958 461 968 q 471 935 469 947 q 472 914 472 924 q 473 892 472 903 q 472 869 474 881 q 465 835 471 851 q 468 801 460 818 q 477 792 471 794 q 490 789 483 789 q 503 793 500 789 q 513 804 507 797 q 524 833 521 817 q 529 864 526 849 q 538 894 532 879 q 550 925 543 908 q 554 942 553 933 q 560 960 556 951 q 590 982 568 979 q 629 988 611 985 q 682 990 656 990 q 732 986 708 989 q 766 975 751 983 q 785 947 781 967 q 786 936 786 942 q 786 924 786 931 q 787 903 789 913 q 783 882 785 893 q 778 844 781 863 q 778 808 775 826 q 788 792 779 797 q 806 784 796 786 q 828 782 817 782 q 847 782 839 782 q 893 780 871 782 q 929 756 915 778 q 939 713 939 738 q 940 667 939 688 q 942 622 942 647 q 938 575 943 596 q 918 551 932 560 q 890 538 904 543 q 865 530 876 532 q 838 525 853 528 q 815 519 826 522 q 793 515 804 515 q 776 515 785 515 q 760 511 767 515 q 754 486 742 501 q 774 478 761 479 q 797 478 788 478 q 835 478 815 478 q 871 475 854 479 q 899 460 888 471 q 913 425 910 449 q 916 383 915 404 q 918 339 917 361 q 922 301 919 319 q 921 261 925 282 q 895 234 917 242 q 856 226 874 226 q 814 225 835 226 q 774 218 793 224 q 757 215 767 215 q 740 213 747 215 q 721 193 729 208 q 708 156 710 175 q 706 117 707 136 q 697 83 704 99 q 669 54 690 67 q 644 28 649 42 q 638 -8 640 15 q 635 -56 635 -32 q 636 -104 635 -81 q 634 -147 636 -125 q 633 -189 632 -168 q 633 -227 633 -208 q 628 -265 633 -246 q 610 -288 625 -279 q 583 -287 594 -297 q 570 -254 572 -279 q 568 -215 568 -229 q 569 -169 567 -192 q 569 -124 572 -147 q 569 -72 567 -100 q 558 -24 571 -44 q 538 2 549 -10 q 515 25 526 14 q 497 41 507 33 q 479 60 486 49 q 468 105 467 79 q 469 154 469 131 q 469 188 469 168 q 457 215 469 207 q 425 222 442 226 q 406 197 408 217 q 399 149 401 174 q 386 100 397 124 q 355 69 375 79 q 325 39 335 58 q 322 2 318 22 q 322 -36 325 -18 q 310 -70 321 -56 q 294 -104 299 -85 q 292 -140 293 -121 q 288 -175 290 -158 q 285 -189 288 -181 q 277 -204 282 -197 q 266 -214 272 -211 q 251 -210 260 -217 q 240 -176 239 -199 q 242 -139 242 -154 q 243 -69 242 -103 q 239 1 244 -35 q 234 16 236 10 q 222 25 232 22 q 209 24 211 28 q 200 17 207 19 q 174 22 182 10 q 163 53 165 35 q 160 92 160 72 q 161 121 161 113 q 163 147 163 132 q 162 177 164 163 q 155 204 160 192 q 139 224 150 217 q 104 232 124 232 q 68 236 85 232 q 35 247 53 240 q 8 268 18 254 q 0 302 0 283 q 1 339 0 321 q 1 372 1 353 q 6 410 1 392 q 19 444 10 429 q 46 465 28 460 q 80 472 63 471 q 115 472 97 472 q 153 470 131 472 q 189 479 175 468 q 198 497 196 486 q 196 517 200 508 q 183 526 192 525 q 165 529 175 528 q 130 537 147 532 q 96 547 113 542 q 62 557 81 551 q 40 578 43 563 q 40 612 36 593 q 46 646 44 631 m 453 478 q 469 483 461 478 q 481 494 476 488 q 483 508 485 500 q 472 519 482 515 q 454 521 461 524 q 441 510 446 517 q 435 496 436 503 q 438 483 433 489 q 453 478 442 478 z "},"$":{"ha":765,"x_min":-1,"x_max":765,"o":"m 1 706 q 12 751 4 728 q 26 794 19 774 q 43 830 33 814 q 64 861 53 846 q 101 903 79 883 q 146 935 122 922 q 185 951 165 946 q 228 963 206 956 q 252 968 240 965 q 274 976 264 971 q 291 989 285 981 q 299 1014 297 997 q 300 1033 299 1024 q 305 1051 301 1043 q 315 1064 308 1060 q 336 1068 322 1068 q 369 1065 351 1067 q 406 1065 388 1063 q 437 1074 421 1068 q 469 1074 453 1079 q 483 1062 479 1071 q 490 1042 488 1053 q 492 1019 492 1031 q 493 1000 492 1008 q 506 986 496 988 q 528 983 517 985 q 556 980 542 982 q 585 974 571 978 q 639 958 611 965 q 693 942 667 951 q 728 923 711 935 q 753 892 746 911 q 760 856 760 874 q 758 840 760 846 q 754 825 756 833 q 748 765 750 794 q 743 704 746 736 l 743 701 q 735 676 742 686 q 718 654 729 667 q 705 626 708 643 q 692 601 701 610 q 676 594 682 593 q 664 602 669 596 q 654 617 658 608 q 646 631 650 625 q 624 644 636 642 q 603 657 611 647 q 592 678 594 667 q 579 697 590 690 q 564 706 572 703 q 549 711 556 708 q 532 715 542 713 q 513 719 522 718 q 494 717 503 719 q 483 706 486 714 q 481 678 479 694 q 485 650 482 661 q 502 626 488 633 q 531 613 517 618 q 561 595 547 606 q 592 576 575 585 q 610 567 601 571 q 628 557 618 564 q 651 541 639 549 q 674 526 663 533 q 699 500 689 515 q 717 467 710 485 q 730 432 724 450 q 743 397 736 414 q 758 357 751 378 q 764 315 764 336 q 765 271 764 294 q 763 225 765 247 q 753 176 758 200 q 740 128 749 151 q 713 83 732 100 q 678 42 693 65 q 660 6 667 25 q 650 -32 654 -12 q 640 -117 642 -74 q 632 -200 639 -160 q 624 -231 629 -215 q 603 -254 619 -247 q 585 -253 592 -258 q 576 -240 579 -249 q 573 -219 574 -231 q 572 -201 572 -208 q 572 -130 572 -165 q 565 -58 571 -94 q 562 -34 564 -47 q 550 -14 560 -21 q 520 -11 539 -6 q 497 -31 501 -17 q 498 -61 493 -46 q 497 -92 503 -76 q 485 -104 494 -100 q 466 -112 476 -108 q 446 -119 456 -115 q 432 -129 436 -122 q 421 -165 421 -146 q 421 -206 421 -185 q 420 -253 421 -229 q 419 -300 419 -276 q 420 -341 419 -321 q 421 -381 421 -361 q 419 -415 421 -396 q 399 -435 417 -433 q 380 -430 386 -436 q 370 -414 374 -424 q 366 -392 367 -404 q 365 -372 365 -381 q 364 -331 365 -351 q 358 -290 363 -310 q 347 -213 351 -253 q 331 -137 342 -174 q 324 -124 328 -131 q 318 -110 321 -117 q 305 -86 313 -97 q 294 -61 297 -75 q 297 -35 292 -47 q 294 -11 301 -24 q 265 6 286 4 q 231 13 244 8 q 217 17 225 14 q 202 21 210 19 q 188 19 194 22 q 179 7 182 17 q 178 -12 176 -1 q 182 -31 181 -22 q 183 -51 183 -42 q 182 -71 182 -60 q 183 -110 182 -90 q 178 -147 183 -129 q 173 -160 176 -153 q 164 -176 169 -168 q 151 -187 158 -183 q 136 -187 144 -190 q 125 -174 129 -185 q 119 -152 121 -164 q 117 -128 117 -140 q 117 -108 117 -115 q 117 -71 117 -90 q 111 -35 117 -51 q 96 -6 106 -19 q 83 22 86 7 q 65 74 78 50 q 35 121 51 99 q 14 149 24 135 q 1 179 4 163 q 7 210 -1 199 q 31 231 15 222 q 44 239 38 233 q 57 247 50 244 q 71 251 64 250 q 85 256 78 253 q 110 271 97 263 q 139 282 124 279 q 185 273 164 285 q 226 249 206 261 q 244 238 235 244 q 263 227 254 231 q 281 226 272 224 q 294 242 289 229 q 299 276 301 258 q 297 311 297 294 q 299 347 297 328 q 293 381 300 367 q 274 402 286 394 q 248 414 263 410 q 219 422 233 418 q 192 431 204 425 q 165 443 178 438 q 140 456 153 449 q 108 474 124 465 q 79 499 92 483 q 66 518 72 508 q 53 538 60 528 q 28 570 42 553 q 11 607 15 588 q 3 656 7 629 q 1 706 -1 682 m 489 265 q 504 255 493 249 q 515 275 515 261 q 514 288 515 281 q 507 299 513 296 q 497 299 500 303 q 491 290 493 296 q 488 276 489 283 q 489 265 488 269 m 254 699 q 269 675 257 688 q 293 669 282 663 q 301 687 300 674 q 301 710 301 700 l 301 713 q 292 731 300 728 q 274 731 283 735 q 258 717 265 726 q 254 699 251 708 z "},"&":{"ha":825,"x_min":0,"x_max":831,"o":"m 188 460 q 143 524 169 496 q 103 593 117 551 q 79 701 88 643 q 89 811 71 758 q 142 900 106 860 q 224 968 179 940 q 272 997 249 983 q 319 1017 296 1010 q 369 1025 343 1024 q 425 1018 394 1026 q 479 996 451 1011 q 532 960 507 981 q 578 916 557 940 q 614 869 600 892 q 660 776 639 825 q 689 678 682 728 q 685 630 692 656 q 668 585 678 604 q 638 541 656 558 q 600 509 619 524 q 561 479 581 494 q 525 443 542 464 q 526 417 518 435 q 548 385 535 400 q 576 360 561 369 q 600 354 592 350 q 613 367 607 358 q 621 383 618 376 q 653 408 632 401 q 694 405 674 415 q 732 383 715 394 q 740 378 736 381 q 749 372 744 375 q 788 340 768 358 q 815 299 807 321 q 822 265 822 283 q 811 232 821 247 q 794 213 804 221 q 776 196 785 206 q 770 186 772 190 q 763 176 768 182 q 761 158 753 167 q 796 126 776 143 q 822 88 815 110 q 815 37 831 60 q 782 -6 799 14 q 757 -50 764 -28 q 745 -107 747 -78 q 740 -164 743 -136 q 733 -219 738 -193 q 726 -275 729 -244 q 723 -302 725 -287 q 711 -324 721 -317 q 685 -330 697 -335 q 669 -310 674 -325 q 668 -267 665 -290 q 671 -225 671 -244 q 665 -184 671 -201 q 654 -146 658 -167 q 652 -101 650 -124 q 654 -58 654 -79 q 649 -17 654 -36 q 622 19 643 3 q 617 24 619 22 q 613 28 615 26 q 608 26 610 28 q 603 22 606 24 q 558 -40 576 -7 q 539 -112 539 -72 q 536 -172 539 -144 q 526 -228 533 -199 q 525 -257 524 -239 q 519 -286 526 -275 q 499 -297 513 -297 q 478 -286 486 -297 q 468 -261 469 -275 q 467 -232 467 -247 q 469 -201 468 -217 q 469 -174 471 -186 q 456 -144 467 -156 q 432 -122 444 -133 q 418 -106 425 -115 q 403 -93 411 -97 q 378 -84 393 -87 q 349 -79 364 -81 q 319 -80 333 -78 q 296 -89 306 -82 q 272 -127 275 -104 q 271 -174 268 -150 q 274 -208 272 -192 q 269 -242 275 -224 q 260 -269 265 -257 q 253 -296 256 -281 q 253 -324 250 -311 q 254 -353 256 -337 q 248 -381 253 -368 q 240 -406 243 -393 q 238 -432 238 -421 q 219 -447 238 -443 q 191 -440 200 -453 q 179 -412 182 -428 q 178 -344 172 -378 q 190 -279 183 -311 q 190 -217 197 -246 q 172 -157 182 -189 q 166 -103 165 -129 q 151 -50 167 -76 q 126 -20 140 -33 q 98 5 113 -7 q 69 30 83 17 q 47 60 56 43 q 17 127 31 93 q 1 199 4 161 q 10 257 0 229 q 39 308 21 285 q 118 396 74 356 q 134 408 122 400 q 159 426 146 417 q 181 444 172 435 q 188 460 190 454 m 339 699 q 353 654 339 675 q 378 614 367 633 q 385 608 382 607 q 394 613 389 608 q 428 660 418 631 q 422 715 438 690 q 414 725 419 719 q 391 739 404 736 q 367 738 378 742 q 347 724 356 733 q 339 699 339 714 m 319 222 q 331 207 322 215 q 343 193 339 199 q 364 178 351 185 q 390 171 376 172 q 416 173 403 169 q 438 186 429 176 q 433 201 443 193 q 419 214 424 210 q 399 235 408 224 q 389 246 393 243 q 381 254 386 250 q 373 261 376 257 q 363 267 369 265 q 346 264 354 268 q 331 253 338 260 q 321 238 325 246 q 319 222 317 229 z "},"'":{"ha":188,"x_min":0,"x_max":189,"o":"m 17 840 q 6 892 13 863 q 1 948 0 921 q 16 997 3 975 q 64 1025 29 1018 q 115 1022 89 1031 q 161 1000 142 1014 q 165 997 164 997 q 168 993 167 996 q 185 954 182 978 q 185 905 189 931 q 176 855 182 879 q 168 814 171 831 q 167 774 165 793 q 163 735 168 754 q 143 681 154 704 q 135 626 132 657 q 138 597 136 611 q 142 569 139 583 q 149 535 144 551 q 138 504 153 518 q 112 497 125 493 q 93 515 99 500 q 88 553 86 531 q 90 593 90 576 q 88 655 90 629 q 67 710 86 681 q 34 772 44 740 q 17 840 24 804 z "},"(":{"ha":379,"x_min":-3,"x_max":381,"o":"m 7 421 q 1 503 -3 458 q 15 585 6 549 q 28 622 21 603 q 39 660 35 640 q 44 698 42 679 q 54 733 46 717 q 90 810 74 772 q 121 889 106 849 q 137 922 128 907 q 156 951 146 936 q 175 985 164 967 q 196 1015 186 1003 q 208 1031 201 1022 q 225 1044 215 1040 q 249 1047 239 1050 q 269 1036 258 1043 q 320 1006 293 1019 q 363 964 347 992 q 371 935 369 953 q 369 904 372 918 q 362 884 367 893 q 354 864 357 875 q 337 825 347 842 q 319 785 326 808 q 310 763 315 774 q 297 742 304 753 q 288 720 292 731 q 279 700 285 710 q 267 680 274 689 q 256 660 261 671 q 249 638 250 649 q 244 615 247 626 q 225 533 235 574 q 215 450 215 493 q 219 426 215 438 q 225 403 224 414 q 228 368 226 385 q 238 336 231 351 q 262 272 253 304 q 283 207 271 239 q 315 143 297 171 q 351 83 333 115 q 372 35 363 61 q 378 -15 381 8 q 368 -40 375 -31 q 353 -56 361 -49 q 335 -72 344 -64 q 321 -92 326 -79 q 314 -131 314 -108 q 311 -172 314 -153 q 306 -223 308 -197 q 311 -274 304 -249 q 297 -339 319 -314 q 265 -351 276 -362 q 249 -315 254 -339 q 240 -263 243 -290 q 235 -228 238 -236 q 222 -198 229 -212 q 218 -165 215 -183 q 224 -135 219 -149 q 221 -106 228 -121 q 205 -72 214 -89 q 183 -43 196 -54 q 157 -21 171 -31 q 133 4 143 -11 q 112 35 124 19 q 93 68 100 51 q 81 112 83 89 q 68 154 78 135 q 49 197 58 176 q 35 242 40 218 q 24 285 31 264 q 15 328 18 306 q 13 374 13 351 q 7 421 13 397 z "},")":{"ha":406,"x_min":-6,"x_max":408,"o":"m 161 443 q 162 472 161 458 q 163 501 163 486 q 154 554 163 526 q 151 579 151 567 q 147 604 150 592 q 130 667 142 640 q 101 726 118 694 q 92 752 94 738 q 83 779 90 767 q 68 806 76 793 q 51 831 60 818 q 22 874 38 851 q 4 925 7 897 q 9 951 3 938 q 26 975 15 964 q 49 994 36 986 q 72 1006 61 1001 q 100 1008 86 1010 q 128 1011 114 1007 q 149 1021 139 1014 q 172 1031 160 1028 q 197 1031 186 1033 q 218 1021 208 1028 q 235 1005 228 1014 q 250 986 243 996 q 273 957 261 971 q 293 926 285 943 q 305 890 301 908 q 315 853 308 871 q 333 810 324 831 q 351 768 343 790 q 363 723 360 744 q 372 678 367 701 q 383 641 376 658 q 390 604 389 624 q 394 558 393 581 q 399 511 396 535 q 405 463 401 486 q 403 415 408 440 q 397 393 400 404 q 392 371 393 382 q 391 347 390 360 q 388 324 392 335 q 378 306 383 314 q 371 286 374 297 q 366 268 368 278 q 361 250 364 258 q 351 210 354 231 q 342 169 347 189 q 321 95 332 132 q 290 26 310 58 q 268 -7 281 11 q 239 -35 256 -25 q 222 -42 231 -39 q 203 -50 213 -46 q 180 -71 183 -60 q 169 -100 176 -82 q 153 -131 163 -117 q 136 -160 143 -144 q 133 -195 132 -172 q 133 -241 133 -218 q 128 -281 133 -264 q 104 -303 122 -299 q 70 -290 81 -307 q 58 -247 60 -272 q 58 -194 56 -221 q 61 -154 60 -167 q 65 -112 64 -133 q 60 -71 67 -90 q 50 -55 57 -60 q 33 -43 43 -50 q 4 -8 15 -32 q 4 19 -6 10 q 21 43 14 28 q 34 76 28 58 q 47 108 40 93 q 63 138 54 124 q 79 167 72 151 q 88 180 82 174 q 97 193 93 186 q 119 243 111 217 q 133 297 126 269 q 140 316 136 307 q 144 335 143 325 q 144 356 146 346 q 146 376 143 365 q 155 409 149 394 q 161 443 161 424 z "},"*":{"ha":494,"x_min":-1,"x_max":494,"o":"m 1 788 q 14 828 -1 817 q 57 842 29 839 q 101 835 81 843 q 146 819 122 826 q 188 826 179 811 q 196 872 196 842 q 199 919 196 892 q 217 961 201 947 q 235 971 225 968 q 254 976 244 974 q 294 967 283 982 q 307 928 306 951 q 306 878 308 904 q 307 839 303 853 q 333 823 313 819 q 378 838 353 826 q 431 855 406 849 q 472 844 457 861 q 494 788 494 818 q 479 729 493 757 q 473 702 472 717 q 474 673 474 688 q 472 646 475 658 q 456 626 468 633 q 429 626 443 619 q 417 647 418 632 q 414 676 415 661 q 408 703 413 692 q 388 711 403 714 q 366 693 364 707 q 379 664 368 679 q 408 622 393 644 q 425 576 424 600 q 415 526 426 550 q 404 478 404 503 q 401 433 404 451 q 365 418 397 415 q 358 429 360 418 q 356 453 356 440 q 356 478 356 467 q 357 494 357 490 q 342 533 357 522 q 310 563 328 544 q 294 581 303 569 q 274 602 285 593 q 253 614 264 611 q 235 607 243 617 q 214 576 222 592 q 190 544 206 560 q 165 526 178 533 q 144 501 151 518 q 135 468 138 486 q 133 432 133 450 q 133 419 133 426 q 130 404 132 411 q 122 394 128 397 q 106 397 115 392 q 93 418 96 403 q 91 452 90 433 q 92 488 92 471 q 92 514 93 506 q 81 559 86 540 q 89 604 75 578 q 115 641 100 624 q 139 681 131 658 q 138 703 144 694 q 122 713 132 711 q 100 708 111 714 q 85 690 89 703 q 81 668 81 681 q 72 650 82 656 q 51 650 63 643 q 36 667 39 657 q 31 701 29 683 q 29 736 33 719 q 14 761 25 751 q 1 788 3 771 z "},"+":{"ha":624,"x_min":-3,"x_max":622,"o":"m 4 518 q 1 541 6 529 q 4 561 -3 553 q 32 581 14 575 q 70 588 50 586 q 110 588 90 589 q 147 586 131 586 q 182 588 163 586 q 213 600 201 589 q 226 636 226 614 q 225 675 225 658 q 228 720 225 699 q 238 764 232 742 q 255 799 243 788 q 294 810 267 810 q 315 808 306 810 q 333 806 324 807 q 356 806 344 804 q 378 806 368 808 q 399 785 392 801 q 408 751 406 769 q 412 713 411 732 q 413 682 413 693 q 410 647 413 667 q 415 611 408 626 q 439 593 422 593 q 471 593 456 593 l 474 593 q 519 589 497 593 q 565 586 542 585 q 607 576 594 589 q 621 535 619 563 q 622 513 621 526 q 622 486 622 500 q 622 459 622 472 q 617 439 621 446 q 599 424 611 428 q 573 420 588 421 q 544 420 558 419 q 521 419 531 421 q 497 420 510 418 q 470 423 483 422 q 444 421 457 424 q 424 410 432 418 q 416 381 413 399 q 419 349 419 363 q 418 299 419 328 q 410 242 417 269 q 390 193 404 215 q 350 165 375 171 q 340 148 343 164 q 334 113 336 132 q 331 76 332 93 q 331 53 331 58 q 331 29 331 42 q 329 4 331 17 q 324 -19 328 -8 q 310 -37 319 -31 q 288 -43 294 -49 q 278 -25 281 -37 q 277 2 276 -12 q 278 24 278 17 q 276 81 278 54 q 267 135 274 107 q 261 158 264 147 q 253 181 258 169 q 240 222 243 203 q 238 265 238 242 q 239 292 238 278 q 238 318 240 306 q 233 340 236 329 q 228 361 229 350 q 223 389 226 375 q 208 411 219 403 q 185 417 196 421 q 167 403 175 413 q 154 380 160 393 q 146 357 149 367 q 142 332 143 346 q 140 306 142 318 q 138 280 139 296 q 128 260 138 264 q 108 260 114 253 q 99 281 101 268 q 97 307 97 293 q 96 326 97 321 q 90 358 93 342 q 76 388 86 374 q 49 407 65 404 q 21 422 33 410 q 3 460 6 438 q 1 489 0 475 q 4 518 3 503 z "},",":{"ha":288,"x_min":0,"x_max":293,"o":"m 0 97 q 19 157 0 131 q 63 203 39 183 q 126 234 89 225 q 196 231 163 243 q 227 219 213 224 q 254 200 242 215 q 269 172 264 188 q 281 142 275 157 q 283 67 293 106 q 265 -7 272 28 q 253 -49 261 -29 q 235 -90 244 -69 q 221 -126 228 -108 q 201 -158 214 -143 q 178 -187 188 -175 q 169 -222 169 -199 l 169 -260 q 167 -276 169 -269 q 164 -293 165 -283 q 160 -326 161 -310 q 157 -360 158 -342 q 153 -375 157 -367 q 142 -390 149 -383 q 129 -397 136 -396 q 115 -386 122 -397 q 110 -349 107 -372 q 113 -310 114 -325 q 108 -242 110 -276 q 93 -175 107 -207 q 82 -158 89 -165 q 69 -142 75 -150 q 66 -115 60 -126 q 79 -87 72 -103 q 88 -60 86 -74 q 88 -31 89 -46 q 81 -8 88 -17 q 66 8 75 1 q 47 22 57 15 q 29 38 38 29 q 8 65 17 49 q 0 97 0 81 z "},"-":{"ha":507,"x_min":-3,"x_max":507,"o":"m 4 421 q 3 453 -3 439 q 11 483 8 467 q 16 511 14 499 q 33 535 18 524 q 69 547 49 546 q 108 551 90 549 q 151 550 131 554 q 194 544 172 546 q 239 547 218 543 q 281 551 260 550 q 325 551 303 553 q 369 550 347 550 q 403 553 385 550 q 440 555 422 556 q 473 547 458 554 q 494 521 488 540 q 503 485 500 506 q 506 444 507 465 q 499 405 506 424 q 481 375 493 386 q 438 361 463 360 q 390 357 413 363 q 367 344 375 353 q 357 324 360 335 q 353 299 354 313 q 351 272 353 285 q 345 238 349 254 q 338 204 342 221 q 333 172 335 190 q 317 147 332 154 q 287 150 299 139 q 269 176 275 161 q 267 221 264 192 q 270 280 269 250 q 265 333 271 310 q 236 360 258 356 q 199 361 218 363 q 163 358 179 360 q 119 359 139 357 q 76 365 99 361 q 58 367 67 368 q 43 371 50 367 q 20 393 31 378 q 4 421 10 408 z "},".":{"ha":289,"x_min":0,"x_max":293,"o":"m 10 178 q 44 227 17 210 q 100 253 71 244 q 131 264 115 257 q 163 272 147 271 q 198 270 179 274 q 232 258 217 267 q 253 233 247 250 q 265 201 260 217 q 278 174 271 189 q 288 144 285 160 q 280 73 293 110 q 247 8 267 36 q 227 -10 239 -4 q 213 -33 215 -17 q 213 -70 210 -51 q 218 -106 215 -89 q 216 -141 221 -125 q 210 -175 211 -157 q 212 -205 208 -190 q 215 -235 215 -219 q 213 -249 215 -242 q 205 -262 210 -257 q 194 -268 200 -267 q 181 -261 188 -269 q 174 -228 169 -250 q 181 -194 179 -207 q 181 -159 183 -175 q 168 -126 179 -143 q 159 -114 164 -119 q 151 -101 154 -108 q 147 -86 149 -94 q 142 -69 144 -78 q 120 -40 135 -50 q 89 -22 106 -31 q 56 -1 71 -12 q 26 25 40 10 q 0 98 0 56 q 10 178 0 140 z "},"/":{"ha":603,"x_min":-1,"x_max":607,"o":"m 6 97 q 41 184 19 140 q 83 265 63 228 q 101 308 94 285 q 117 351 107 331 q 141 399 128 375 q 165 447 154 424 q 203 543 188 492 q 242 639 218 594 q 275 698 257 669 q 306 758 293 726 q 327 810 317 786 q 353 860 338 835 q 372 897 363 875 q 392 939 382 918 q 417 976 403 960 q 451 1000 431 993 q 473 1001 463 1004 q 494 991 483 997 q 514 977 504 985 q 533 964 524 969 q 572 940 553 953 q 597 907 590 928 q 596 846 607 872 q 572 790 585 819 q 538 722 557 754 q 510 659 518 693 q 490 593 503 625 q 458 528 478 560 q 422 464 439 496 q 396 401 407 433 q 365 336 385 368 q 340 279 349 308 q 319 219 332 250 q 301 183 313 200 q 283 147 290 167 q 275 127 279 136 q 264 107 271 118 q 238 47 246 79 q 219 -18 231 14 q 208 -38 215 -29 q 191 -55 200 -47 q 173 -71 182 -62 q 158 -89 164 -79 q 145 -145 143 -114 q 147 -204 147 -176 q 146 -260 147 -233 q 144 -315 144 -286 q 146 -348 144 -331 q 148 -383 147 -365 q 147 -419 149 -401 q 136 -449 144 -436 q 112 -465 125 -465 q 88 -450 99 -464 q 75 -419 78 -436 q 69 -385 72 -401 q 59 -285 60 -337 q 60 -183 58 -233 q 57 -131 61 -157 q 50 -81 53 -106 q 40 -35 47 -51 q 17 4 32 -18 q 2 49 6 24 q 6 97 -1 75 z "},":":{"ha":292,"x_min":-1,"x_max":293,"o":"m 10 657 q 23 715 10 689 q 58 763 36 742 q 115 796 85 788 q 182 801 144 804 q 240 783 211 799 q 282 739 268 767 q 290 709 289 726 q 292 676 292 692 q 285 638 292 657 q 272 600 279 618 q 246 561 263 576 q 206 536 229 546 q 169 492 175 524 q 165 468 167 481 q 164 444 163 456 q 173 422 165 425 q 196 414 181 419 q 258 376 231 401 q 276 348 271 364 q 288 315 282 332 q 291 285 293 299 q 286 253 289 271 q 276 225 283 238 q 261 201 269 213 q 241 181 253 189 q 221 163 229 174 q 206 133 211 150 q 199 101 201 117 q 194 21 193 60 q 196 -19 196 1 q 189 -60 196 -40 q 176 -76 186 -68 q 154 -79 165 -85 q 138 -62 142 -74 q 135 -38 135 -51 q 139 -12 136 -25 q 142 10 142 1 q 138 42 143 29 q 126 72 133 56 q 118 107 119 89 q 110 142 117 125 q 99 159 106 150 q 86 174 93 168 q 53 197 69 186 q 26 225 38 207 q 7 260 15 240 q 1 299 -1 279 q 12 335 4 318 q 26 368 19 351 q 46 392 33 383 q 74 408 58 401 q 94 417 86 414 q 104 435 101 419 q 106 479 110 454 q 93 522 103 504 q 76 540 86 533 q 57 556 67 547 q 23 602 36 575 q 10 657 10 629 z "},";":{"ha":288,"x_min":-11,"x_max":288,"o":"m 13 410 q 38 443 22 429 q 71 467 53 457 q 90 476 81 472 q 106 485 100 481 q 115 499 113 490 q 113 521 118 507 q 96 542 107 533 q 72 558 85 551 q 48 574 60 565 q 28 593 36 582 q 10 658 8 621 q 24 725 11 696 q 39 751 29 736 q 60 778 49 767 q 94 796 75 793 q 132 799 113 799 q 199 792 165 799 q 256 763 232 786 q 275 731 269 749 q 281 693 281 713 q 278 658 281 678 q 271 624 276 639 q 244 576 263 599 q 201 542 226 553 q 183 534 193 538 q 167 521 174 531 q 163 503 164 517 q 171 489 161 490 q 225 476 200 486 q 267 440 250 465 q 284 398 281 419 q 287 355 288 376 q 283 310 286 333 q 278 265 279 288 q 257 167 275 213 q 228 113 244 138 q 208 91 218 100 q 192 67 199 82 q 185 34 185 51 q 188 1 186 17 q 186 -35 189 -17 q 181 -71 183 -53 q 179 -87 179 -76 q 178 -108 179 -97 q 174 -127 178 -118 q 163 -137 171 -136 q 147 -131 151 -140 q 140 -108 142 -121 q 139 -81 139 -94 q 139 -61 139 -67 q 129 -33 136 -46 q 118 -6 122 -19 q 115 24 114 10 q 111 53 115 38 q 96 81 107 69 q 83 91 89 88 q 72 103 76 94 q 73 123 67 114 q 85 143 79 132 q 103 197 99 168 q 97 239 106 221 q 68 268 89 257 q 8 327 28 289 q 13 410 -11 365 z "},"<":{"ha":515,"x_min":1,"x_max":515,"o":"m 4 436 q 1 508 1 471 q 17 576 1 544 q 40 608 26 594 q 68 632 53 621 q 99 653 83 643 q 129 678 115 664 q 167 701 147 694 q 207 722 188 707 q 276 773 240 747 q 350 818 313 799 q 413 840 385 836 q 471 811 442 843 q 495 772 485 794 q 510 725 506 750 q 514 676 515 700 q 504 632 513 651 q 483 605 497 615 q 457 583 469 594 q 425 560 443 571 q 389 540 407 550 q 353 518 371 529 q 324 493 336 507 q 318 481 317 486 q 324 474 319 476 q 336 469 329 471 q 350 465 343 467 q 374 453 365 461 q 394 435 383 444 q 442 401 418 415 q 481 358 465 386 q 505 296 496 329 q 510 231 514 263 q 481 168 504 186 q 419 135 457 150 q 386 110 396 125 q 372 68 376 94 q 361 18 368 43 q 353 -33 354 -7 q 353 -58 353 -44 q 351 -87 353 -72 q 347 -114 350 -101 q 335 -135 343 -126 q 310 -147 319 -150 q 294 -131 300 -143 q 286 -102 289 -118 q 283 -76 283 -86 q 283 -16 283 -46 q 281 43 283 14 q 276 95 278 69 q 269 145 274 121 q 253 192 264 169 q 224 236 243 215 q 145 303 188 272 q 58 361 103 335 q 19 390 31 378 q 4 436 7 403 z "},"=":{"ha":626,"x_min":1,"x_max":626,"o":"m 1 564 q 1 605 1 583 q 8 644 1 626 q 29 665 15 664 q 61 668 43 665 q 103 674 82 671 q 144 678 124 678 q 212 675 178 678 q 279 672 246 672 q 337 672 308 672 q 393 675 365 672 q 449 678 421 678 q 504 672 478 678 q 554 669 528 668 q 600 656 581 671 q 624 617 622 639 q 625 568 626 594 q 610 528 624 539 q 567 518 596 518 q 513 521 539 518 q 460 524 488 524 q 449 524 454 524 q 436 525 443 525 q 403 523 419 525 q 374 513 388 521 q 358 488 363 506 q 360 460 353 471 q 374 447 364 450 q 394 442 383 443 q 417 443 406 442 q 436 444 428 444 q 505 446 469 444 q 572 435 540 447 q 600 418 588 428 q 615 393 613 408 q 619 371 617 385 q 622 343 621 357 q 620 317 622 329 q 613 296 618 304 q 572 277 599 278 q 524 275 544 276 q 462 274 492 274 q 400 275 432 275 q 351 276 376 275 q 304 264 325 278 q 278 242 289 254 q 260 213 268 229 q 251 166 249 189 q 249 115 253 143 q 242 92 246 101 q 228 78 239 82 q 203 76 214 72 q 186 94 192 81 q 181 144 179 114 q 182 199 182 175 q 178 232 182 214 q 161 261 174 250 q 122 276 146 276 q 79 279 99 276 q 28 294 47 285 q 8 340 8 304 q 8 377 8 358 q 19 408 7 396 q 50 422 32 419 q 83 426 68 424 q 103 428 94 429 q 124 429 113 428 q 153 433 139 432 q 183 436 168 435 q 208 437 193 438 q 238 436 222 436 q 267 439 254 436 q 288 450 281 442 q 292 481 296 461 q 279 510 289 501 q 240 523 264 524 q 197 521 215 522 q 78 521 136 518 q 52 522 65 521 q 28 528 39 524 q 9 540 17 532 q 1 564 1 549 z "},">":{"ha":519,"x_min":-3,"x_max":522,"o":"m 1 715 q 10 769 -3 744 q 46 810 24 793 q 96 838 68 828 q 149 850 124 849 q 202 835 183 851 q 244 797 221 819 q 293 758 268 775 q 344 721 318 740 q 383 694 364 707 q 422 667 403 681 q 467 637 444 651 q 503 597 489 622 q 514 550 517 574 q 513 501 511 526 q 518 459 514 479 q 513 417 522 439 q 510 413 511 414 q 508 410 510 413 q 485 376 497 389 q 453 353 472 364 q 426 336 440 346 q 403 314 413 326 q 375 247 381 285 q 367 174 369 208 q 360 116 364 144 q 350 58 357 88 q 348 35 347 47 q 340 13 349 24 q 319 1 333 4 q 294 7 306 -1 q 285 30 283 15 q 285 57 286 44 q 282 105 283 81 q 278 153 281 129 q 274 185 275 165 q 261 214 274 206 q 240 216 251 219 q 218 205 229 213 q 197 188 207 197 q 181 174 188 178 q 135 144 158 158 q 85 128 113 131 q 57 132 67 125 q 42 149 47 139 q 33 173 36 160 q 28 197 31 186 q 19 252 21 222 q 25 307 18 282 q 76 387 40 361 q 160 438 113 413 q 178 449 165 442 q 203 467 192 457 q 224 487 215 476 q 228 508 232 497 q 208 526 225 518 q 182 542 192 535 q 138 574 160 556 q 99 601 121 586 q 56 635 76 617 q 19 673 35 653 q 1 715 4 693 z "},"?":{"ha":704,"x_min":-1,"x_max":706,"o":"m 1 815 q 16 865 4 839 q 42 910 28 892 q 62 929 50 921 q 81 949 74 938 q 86 960 85 954 q 94 972 88 965 q 103 981 99 976 q 114 989 107 985 q 175 1015 143 1007 q 241 1026 207 1024 q 310 1027 275 1028 q 378 1026 344 1026 q 434 1027 406 1026 q 490 1021 463 1028 q 538 1001 515 1014 q 583 976 561 989 q 614 962 597 968 q 645 947 631 956 q 672 928 660 939 q 688 899 683 917 q 703 798 700 850 q 703 694 706 746 q 697 626 701 660 q 682 564 693 593 q 649 510 671 535 q 593 471 628 486 q 546 447 571 461 q 503 417 521 432 q 487 392 490 406 q 483 363 483 378 q 483 334 483 349 q 476 307 483 319 q 446 285 467 289 q 404 281 425 282 q 367 274 383 279 q 347 244 350 268 q 351 226 346 232 q 365 217 357 221 q 383 213 374 214 q 401 208 393 211 q 444 174 425 197 q 471 126 464 151 q 479 68 478 103 q 468 13 481 33 q 451 -15 460 -3 q 429 -37 442 -26 q 404 -59 417 -49 q 388 -86 392 -69 q 381 -147 381 -114 q 378 -208 381 -181 q 380 -272 375 -240 q 381 -336 385 -304 q 376 -361 379 -347 q 369 -387 374 -375 q 358 -410 365 -400 q 340 -424 351 -419 q 312 -422 321 -431 q 299 -397 303 -412 q 297 -363 296 -381 q 299 -335 299 -346 q 303 -272 301 -303 q 301 -210 304 -242 q 301 -183 300 -197 q 301 -153 301 -168 q 299 -124 301 -137 q 288 -99 296 -110 q 245 -62 272 -78 q 197 -31 218 -46 q 147 33 165 -7 q 138 114 128 74 q 156 147 142 132 q 182 172 169 161 q 214 196 197 186 q 231 208 222 201 q 249 217 239 214 q 261 225 258 219 q 263 238 264 232 q 261 250 263 243 q 259 258 260 254 q 256 264 258 261 q 236 274 247 274 q 215 281 225 275 q 200 292 207 285 q 188 307 193 300 q 169 348 174 326 q 168 393 165 369 q 175 420 171 406 q 183 447 179 435 q 189 478 188 463 q 194 507 190 493 q 219 550 204 535 q 261 574 233 565 q 288 586 276 578 q 313 601 300 594 q 351 622 332 613 q 388 643 369 632 q 422 670 407 654 q 442 710 436 686 q 440 735 444 724 q 428 753 436 747 q 408 759 419 760 q 386 746 397 758 q 374 728 379 739 q 357 717 369 717 q 339 728 344 717 q 322 744 333 740 q 304 744 311 749 q 292 733 297 740 q 281 717 286 725 q 269 703 275 708 q 240 687 256 690 q 207 683 224 683 q 174 679 190 682 q 144 665 158 676 q 128 645 133 657 q 122 621 124 633 q 119 596 121 608 q 114 572 118 583 q 97 553 108 560 q 72 557 85 546 q 63 580 65 564 q 58 606 60 596 q 45 660 56 635 q 24 710 35 685 q 6 760 14 735 q 1 815 -1 786 z "},"@":{"ha":1008,"x_min":0,"x_max":1011,"o":"m 1 538 q 1 581 0 560 q 7 622 1 603 q 38 704 18 667 q 75 782 57 742 q 116 853 92 821 q 176 908 140 885 q 257 956 214 932 q 344 989 300 981 q 397 997 372 994 q 449 1001 421 999 q 499 1006 475 1004 q 551 1004 524 1008 q 602 995 576 1000 q 651 983 628 990 q 699 968 675 976 q 743 946 722 960 q 775 921 761 935 q 807 896 789 907 q 890 821 857 865 q 951 728 922 776 q 972 681 965 704 q 986 633 979 657 q 991 607 990 619 q 994 582 992 594 l 1003 536 q 1006 444 1011 488 q 1000 399 1001 421 q 996 354 999 378 q 988 316 993 339 q 969 283 982 293 q 931 269 951 268 q 889 267 910 269 q 843 261 865 264 q 797 263 821 258 q 774 274 785 265 q 753 291 763 283 q 733 299 743 299 q 711 285 724 299 q 667 253 696 267 q 615 232 639 239 q 591 225 604 228 q 567 217 578 222 q 561 214 564 215 q 556 211 558 213 q 533 196 543 206 q 524 175 525 186 q 521 165 522 171 q 521 153 519 158 q 530 147 524 146 q 542 150 536 149 q 564 153 553 153 q 586 157 575 154 q 622 167 607 161 q 714 201 669 182 q 807 225 758 219 q 827 230 818 226 q 847 235 836 233 q 910 228 886 240 q 931 171 933 215 q 918 133 929 149 q 896 101 907 118 q 850 47 875 72 q 804 -6 825 22 q 794 -24 797 -15 q 788 -43 790 -33 q 778 -129 778 -83 q 781 -157 778 -139 q 787 -197 783 -175 q 791 -240 790 -218 q 788 -280 792 -262 q 772 -306 783 -297 q 740 -311 761 -315 q 713 -285 721 -307 q 704 -237 706 -264 q 706 -185 703 -211 q 708 -146 708 -160 q 709 -101 708 -124 q 706 -58 710 -79 q 687 -24 700 -33 q 657 -15 674 -15 q 621 -19 640 -14 q 585 -26 601 -24 q 551 -30 568 -29 q 517 -33 533 -31 q 485 -42 500 -36 q 458 -62 471 -49 q 428 -121 438 -87 q 416 -190 418 -154 q 417 -260 414 -225 q 421 -326 419 -296 q 424 -369 422 -346 q 410 -406 426 -393 q 374 -416 388 -422 q 353 -393 361 -410 q 344 -355 346 -376 q 342 -321 342 -333 q 344 -254 342 -287 q 348 -187 347 -221 q 345 -122 349 -154 q 328 -56 342 -89 q 290 -3 314 -24 q 239 38 267 18 q 187 84 211 57 q 138 138 163 111 q 116 165 124 153 q 97 194 108 178 q 73 225 88 211 q 47 254 58 239 q 26 301 32 275 q 14 350 21 326 q 3 443 1 397 q 1 538 4 489 m 183 521 q 183 469 181 494 q 189 418 186 444 q 208 346 193 382 q 244 276 222 310 q 294 213 267 242 q 353 165 322 185 q 396 147 374 151 q 407 145 400 146 q 417 149 414 144 l 417 150 q 417 160 418 154 q 415 171 417 167 q 410 182 413 176 q 406 193 408 188 q 392 206 400 200 q 376 218 383 213 q 360 231 368 225 q 343 243 351 236 q 312 269 328 256 q 285 299 296 282 q 243 425 243 354 q 242 483 243 454 q 245 539 242 511 q 257 592 249 567 q 282 640 265 617 q 315 682 297 661 q 352 722 332 703 q 396 754 372 740 q 447 772 419 768 q 463 774 453 774 q 473 774 468 774 q 482 775 478 775 q 495 774 489 775 q 507 775 501 774 q 513 783 514 778 q 513 793 513 788 q 504 814 513 803 q 476 831 493 826 q 443 833 458 835 q 409 826 425 831 q 376 817 393 821 q 310 781 344 808 q 254 729 275 754 q 228 681 235 706 q 211 628 221 656 q 194 574 201 600 q 183 521 186 549 m 419 514 q 408 480 413 497 q 402 444 403 463 q 406 410 401 426 q 426 381 411 394 q 462 364 442 367 q 501 367 482 361 q 539 383 521 372 q 568 410 557 394 q 592 497 599 449 q 558 583 585 546 q 533 608 547 599 q 500 617 519 618 q 469 604 482 615 q 447 578 457 593 q 431 545 438 563 q 419 514 425 528 m 768 472 q 771 449 769 463 q 778 429 772 436 q 800 413 792 410 q 813 431 808 417 q 819 461 818 444 q 819 485 821 478 q 799 599 813 547 q 747 701 785 651 q 715 742 732 722 q 679 781 699 763 q 638 800 660 797 q 622 799 629 801 q 610 790 614 797 q 604 767 604 781 q 603 760 604 764 q 604 754 603 757 q 611 747 607 750 q 626 733 621 738 q 637 725 632 729 q 647 715 642 721 q 661 701 654 708 q 675 688 668 694 q 717 632 699 661 q 746 571 735 603 q 759 522 753 546 q 768 472 765 499 z "},"A":{"ha":1025,"x_min":-25,"x_max":1025,"o":"m 99 358 q 115 417 104 389 q 139 474 126 446 q 163 531 151 503 q 183 589 175 560 q 203 647 192 618 q 224 706 215 676 q 241 781 233 738 q 263 862 249 824 q 303 928 278 900 q 371 957 328 956 q 422 951 397 958 q 471 947 446 943 q 497 956 485 950 q 522 969 510 963 q 546 980 533 975 q 574 985 558 985 q 605 974 592 985 q 628 949 618 964 q 647 918 639 935 q 661 888 654 901 q 690 803 681 844 q 710 717 700 763 q 763 553 728 633 q 842 400 799 474 q 873 348 857 374 q 903 294 889 322 l 919 261 q 960 177 940 219 q 1007 94 979 135 q 1024 42 1025 69 q 1008 -12 1024 15 q 947 -89 985 -56 q 899 -121 928 -107 q 857 -158 871 -135 q 837 -218 842 -183 q 825 -282 832 -253 q 817 -325 818 -307 q 822 -368 815 -343 q 831 -415 829 -392 q 825 -461 832 -437 q 813 -492 821 -478 q 803 -525 806 -507 q 801 -561 800 -543 q 800 -597 801 -579 q 790 -628 799 -612 q 769 -653 781 -644 q 744 -660 757 -662 q 725 -633 732 -657 q 728 -592 718 -611 q 743 -551 739 -572 q 746 -515 746 -535 q 742 -478 746 -494 q 719 -434 735 -454 q 697 -389 704 -414 q 699 -365 693 -374 q 710 -342 704 -356 q 719 -282 719 -314 q 717 -251 719 -267 q 715 -219 715 -235 q 718 -190 715 -204 q 724 -161 721 -176 q 722 -100 729 -129 q 692 -47 715 -71 q 617 47 651 -4 q 549 147 582 99 q 531 181 540 158 q 509 224 521 203 q 483 258 497 244 q 451 267 468 272 q 432 249 439 263 q 422 220 425 236 q 417 188 418 204 q 411 163 415 172 q 394 126 404 143 q 372 92 383 110 q 356 57 361 75 q 340 21 350 39 q 310 -3 332 6 q 274 -21 289 -12 q 238 -49 253 -33 q 214 -89 222 -65 q 201 -140 204 -114 q 199 -194 199 -167 q 199 -224 199 -210 q 196 -251 199 -237 q 188 -275 193 -265 q 181 -297 183 -285 q 175 -349 174 -321 q 176 -401 176 -376 q 178 -444 176 -424 q 176 -487 179 -465 q 169 -510 175 -500 q 158 -524 164 -521 q 145 -521 151 -526 q 135 -496 139 -515 q 126 -440 128 -468 q 121 -385 125 -412 q 115 -337 118 -361 q 108 -289 111 -314 q 107 -237 107 -264 q 100 -187 107 -211 q 88 -150 94 -168 q 78 -112 82 -132 q 76 -73 75 -93 q 67 -35 76 -53 q 55 -22 61 -25 q 42 -10 49 -18 q 17 171 -25 79 q 38 208 26 190 q 61 244 50 225 q 85 299 79 272 q 99 358 92 325 m 440 563 q 437 525 431 539 q 468 511 443 511 q 488 524 483 511 q 494 557 492 538 q 496 574 496 567 q 493 588 496 581 q 488 601 492 592 q 478 619 483 611 q 467 632 472 628 q 456 628 461 636 q 452 612 451 621 q 451 593 453 603 q 447 577 450 585 q 440 563 443 569 z "},"B":{"ha":804,"x_min":0,"x_max":803,"o":"m 14 494 q 12 521 14 508 q 7 549 10 533 q 2 597 4 569 q 3 644 0 624 q 8 669 4 657 q 11 694 11 682 q 9 717 11 706 q 6 740 7 729 q 1 771 3 756 q 0 801 0 786 q 6 831 0 817 q 13 860 11 844 q 14 897 15 879 q 19 935 13 915 q 47 975 29 960 q 85 999 64 990 q 128 1012 106 1008 q 175 1018 151 1015 q 208 1024 192 1019 q 243 1029 224 1029 q 296 1027 269 1029 q 349 1025 322 1025 q 398 1026 371 1025 q 451 1024 425 1026 q 503 1017 478 1022 q 549 999 528 1011 q 588 976 569 986 q 631 958 607 965 q 704 914 674 944 q 753 848 732 886 q 786 774 775 810 q 792 753 789 763 q 796 731 796 743 q 782 653 796 693 q 747 581 768 613 q 731 559 740 569 q 711 538 722 549 q 696 520 697 525 q 706 499 694 515 q 740 451 722 475 q 772 400 757 426 q 794 345 786 374 q 803 286 803 317 q 791 223 801 254 q 765 163 781 192 q 728 108 749 135 q 688 60 708 82 q 652 31 671 40 q 615 6 633 21 q 593 -42 593 -12 q 593 -97 593 -72 q 590 -126 593 -112 q 585 -157 588 -140 q 580 -185 582 -171 q 571 -211 578 -199 q 560 -237 564 -226 q 553 -265 556 -249 q 548 -281 551 -272 q 540 -297 544 -290 q 528 -308 535 -304 q 513 -308 521 -311 q 498 -292 501 -304 q 493 -269 494 -281 q 492 -217 490 -243 q 493 -165 493 -192 q 494 -136 493 -150 q 492 -108 496 -122 q 479 -89 489 -97 q 461 -97 469 -81 q 456 -111 458 -103 q 451 -126 454 -119 q 446 -140 449 -133 q 440 -156 443 -147 q 417 -192 432 -174 q 410 -204 413 -197 q 406 -217 408 -211 q 399 -225 404 -222 q 385 -225 394 -228 q 363 -210 374 -222 q 350 -186 353 -197 q 348 -159 347 -174 q 346 -132 349 -144 q 344 -115 346 -126 q 338 -92 342 -104 q 330 -72 335 -81 q 319 -61 325 -64 q 291 -71 304 -56 q 274 -99 278 -86 q 269 -143 267 -119 q 264 -187 272 -167 q 247 -229 257 -208 q 236 -272 236 -250 q 236 -285 236 -279 q 238 -299 236 -292 q 240 -331 239 -314 q 241 -364 242 -347 q 236 -394 240 -381 q 222 -415 232 -407 q 199 -410 213 -422 q 183 -390 186 -399 q 178 -360 178 -375 q 176 -329 178 -346 q 171 -290 175 -310 q 167 -251 167 -271 q 163 -197 167 -224 q 158 -142 158 -171 q 157 -96 158 -117 q 142 -54 156 -75 q 132 -30 135 -43 q 122 -6 129 -17 q 102 10 111 11 q 76 7 93 10 q 60 10 65 6 q 47 22 54 15 q 24 68 29 43 q 18 119 18 93 q 22 173 18 146 q 25 225 25 200 q 23 266 25 246 q 18 308 21 286 q 17 349 17 328 q 14 389 17 369 q 13 441 11 415 q 14 494 14 467 m 356 679 q 369 646 358 660 q 397 629 379 632 q 429 638 418 625 q 443 669 440 651 q 444 675 444 671 q 426 729 446 704 q 399 749 417 742 q 368 746 382 757 q 354 713 356 735 q 356 679 353 692 m 363 293 q 365 272 363 282 q 375 254 368 261 q 401 242 383 246 q 431 242 419 238 q 456 261 450 249 q 460 289 461 274 q 451 317 458 304 q 436 342 443 331 q 417 362 429 353 q 393 361 406 371 q 381 346 386 356 q 369 333 376 336 q 365 315 367 332 q 363 293 363 297 z "},"C":{"ha":899,"x_min":0,"x_max":900,"o":"m 1 500 q 7 557 0 529 q 21 613 14 585 q 47 688 32 651 q 75 761 61 724 q 99 817 86 789 q 131 865 111 846 q 153 882 142 875 q 175 897 164 889 q 197 919 188 907 q 218 942 207 931 q 276 996 247 972 q 319 1015 296 1011 q 365 1026 343 1019 q 391 1036 379 1031 q 415 1047 403 1042 q 440 1053 426 1051 q 467 1057 454 1054 q 490 1063 479 1060 q 513 1069 501 1067 q 569 1070 540 1075 q 624 1060 599 1065 q 674 1051 650 1054 q 724 1033 699 1049 q 759 999 746 1021 q 785 956 772 978 q 815 915 799 935 q 857 888 831 896 q 890 856 882 879 q 898 806 899 833 q 892 749 897 778 q 882 700 886 719 q 874 665 879 685 q 863 627 869 646 q 847 591 856 608 q 826 563 838 574 q 806 551 817 553 q 788 539 796 549 q 776 517 779 531 q 763 496 772 504 q 736 487 751 488 q 704 491 721 486 q 672 503 688 496 q 647 517 657 510 q 623 536 632 528 q 594 546 614 544 q 572 544 578 547 q 558 535 565 540 q 553 531 556 532 q 549 526 551 529 q 524 519 535 518 q 501 526 513 521 q 479 535 490 532 q 456 535 468 539 q 431 506 433 528 q 435 465 429 485 q 494 365 453 410 q 590 358 538 319 q 658 403 624 383 q 738 422 693 424 q 815 408 774 421 q 881 365 856 394 q 899 328 897 347 q 894 289 900 308 q 878 249 888 269 q 864 211 869 229 q 828 141 853 169 q 776 81 804 113 q 758 47 764 67 q 748 6 751 28 q 742 -37 744 -15 q 736 -76 740 -58 q 731 -106 733 -87 q 725 -140 729 -124 q 712 -169 721 -157 q 686 -179 703 -181 q 653 -163 665 -178 q 631 -128 640 -149 q 615 -87 622 -108 q 600 -53 608 -65 q 574 -31 590 -37 q 543 -40 558 -24 q 518 -97 524 -62 q 501 -158 513 -131 q 490 -176 497 -169 q 478 -194 482 -183 q 475 -218 475 -206 q 475 -242 475 -231 q 455 -278 475 -269 q 417 -260 435 -287 q 407 -212 408 -247 q 400 -144 406 -178 q 381 -90 394 -110 q 338 -90 368 -71 q 295 -137 314 -106 q 272 -196 276 -168 q 269 -233 271 -207 q 263 -283 268 -258 q 245 -324 257 -308 q 213 -333 233 -340 q 192 -307 193 -326 q 189 -271 190 -287 q 183 -191 186 -233 q 168 -112 179 -149 q 154 -65 161 -87 q 143 -15 147 -43 q 138 38 139 13 q 129 89 136 64 q 110 136 122 115 q 86 181 97 157 q 63 238 71 208 q 50 299 54 268 q 38 349 46 324 q 23 399 31 374 q 9 449 15 424 q 1 500 3 475 z "},"D":{"ha":790,"x_min":-1,"x_max":790,"o":"m 324 549 q 317 509 318 535 q 320 460 315 483 q 337 424 325 438 q 371 424 349 411 q 378 428 376 426 q 382 435 379 431 q 392 458 389 443 q 394 491 394 474 q 390 526 394 508 q 381 558 386 544 q 354 586 369 583 q 324 549 339 589 m 18 489 q 24 545 21 518 q 22 604 26 572 q 12 656 19 632 q 4 708 4 681 q 6 768 4 738 q 4 826 7 799 q 1 874 3 849 q 2 923 -1 899 q 15 969 6 947 q 46 1006 25 990 q 94 1019 65 1019 q 146 1017 122 1018 q 198 1019 171 1015 q 249 1017 225 1024 q 269 1009 260 1014 q 289 1001 278 1004 q 316 1000 303 999 q 343 1001 329 1001 q 393 988 367 1001 q 444 968 419 975 q 469 964 457 965 q 493 958 481 963 q 533 939 514 951 q 571 911 553 926 q 594 888 583 900 q 618 865 606 876 q 676 814 651 838 q 722 753 700 790 q 779 610 763 685 q 789 505 790 557 q 774 397 788 453 q 755 344 767 368 q 728 296 743 321 q 715 278 721 286 q 701 261 710 271 q 689 240 693 250 q 679 217 685 229 q 650 163 668 190 q 613 115 632 136 q 589 92 601 103 q 567 68 576 82 q 553 42 560 57 q 542 13 547 26 q 539 6 540 10 q 536 0 538 3 q 522 -40 529 -19 q 510 -81 515 -61 q 504 -133 503 -107 q 503 -185 506 -158 q 492 -252 499 -218 q 482 -321 485 -286 q 483 -342 482 -328 q 483 -370 483 -356 q 482 -398 483 -385 q 476 -417 481 -411 q 457 -424 469 -425 q 436 -417 444 -424 q 426 -396 426 -408 q 424 -372 425 -383 q 428 -324 421 -347 q 425 -276 435 -300 q 410 -242 418 -258 q 400 -206 401 -225 q 395 -151 399 -179 q 382 -99 392 -122 q 367 -67 375 -82 q 354 -35 360 -51 q 347 -8 350 -19 q 332 14 344 3 q 298 35 315 26 q 260 36 281 43 q 225 17 240 31 q 201 -15 210 4 q 192 -42 196 -26 q 182 -75 188 -58 q 169 -106 176 -92 q 151 -128 163 -121 q 133 -128 143 -133 q 113 -112 122 -122 q 97 -89 104 -101 q 88 -69 90 -76 q 79 -46 83 -58 q 71 -22 75 -33 q 52 17 64 -1 q 33 54 40 35 q 22 123 21 86 q 26 193 24 160 q 24 261 31 225 q 22 318 19 289 q 22 375 24 347 q 18 431 21 403 q 18 489 15 458 z "},"E":{"ha":786,"x_min":1,"x_max":789,"o":"m 8 394 q 15 448 11 421 q 17 503 18 475 q 13 547 15 525 q 10 589 10 568 q 9 619 10 604 q 11 651 8 635 q 25 743 15 697 q 30 803 32 772 q 29 865 28 835 q 47 918 31 899 q 93 949 64 938 q 139 969 117 958 q 186 981 161 979 q 235 980 211 982 q 285 981 260 978 q 333 988 308 983 q 382 993 357 993 q 436 992 410 993 q 489 981 463 992 q 527 969 510 972 q 561 967 544 967 q 596 968 578 967 q 636 969 614 969 q 710 951 679 969 q 760 902 742 932 q 784 835 779 872 q 781 758 789 797 q 766 724 776 740 q 754 689 756 708 q 751 650 751 669 q 733 615 750 631 q 698 603 717 600 q 667 625 679 606 q 644 654 656 642 q 615 679 633 667 q 581 694 599 692 q 544 695 563 697 q 506 688 525 693 q 468 681 486 683 q 451 681 460 679 q 432 683 442 682 q 414 685 422 685 q 399 681 406 685 q 388 667 390 675 q 386 649 385 658 q 392 632 388 640 q 403 618 397 624 q 442 596 421 601 q 485 590 463 590 q 530 590 507 589 q 575 586 553 590 q 617 560 604 582 q 633 511 629 539 q 633 453 636 483 q 631 401 631 424 q 632 353 631 379 q 618 311 633 326 q 592 298 604 297 q 571 306 581 299 q 551 326 561 314 q 532 344 542 338 q 510 354 524 350 q 483 360 497 358 q 455 358 468 361 q 433 346 442 354 q 424 324 425 336 q 425 299 422 311 q 435 276 428 286 q 451 260 443 265 q 505 243 475 246 q 558 231 535 240 q 634 217 590 218 q 713 215 678 215 q 776 153 776 215 q 778 88 776 124 q 776 15 779 51 q 764 -54 774 -21 q 731 -110 754 -87 q 706 -128 719 -121 q 678 -142 692 -136 q 655 -147 667 -146 q 635 -151 643 -147 q 575 -181 607 -164 q 521 -221 543 -197 q 503 -259 504 -240 q 492 -299 501 -278 q 463 -333 481 -319 q 429 -361 444 -346 q 414 -381 418 -372 q 409 -400 410 -390 q 410 -419 408 -410 q 414 -443 411 -429 q 415 -475 415 -456 q 410 -512 415 -494 q 393 -537 404 -529 q 363 -535 382 -546 q 347 -517 351 -529 q 342 -493 343 -506 q 344 -467 342 -481 q 347 -444 346 -454 q 353 -362 354 -404 q 347 -278 353 -319 q 340 -237 344 -258 q 336 -196 336 -217 q 341 -165 336 -182 q 339 -135 346 -147 q 322 -117 333 -124 q 297 -108 310 -111 q 269 -105 283 -106 q 244 -104 254 -104 q 235 -113 239 -104 q 229 -134 232 -122 q 225 -156 226 -146 q 224 -171 224 -167 q 226 -206 224 -190 q 224 -240 228 -221 q 213 -277 219 -258 q 204 -315 206 -296 q 204 -340 204 -326 q 203 -364 204 -353 q 196 -383 201 -375 q 178 -393 190 -392 q 150 -382 158 -396 q 140 -348 142 -368 q 140 -308 138 -328 q 143 -276 142 -287 q 145 -216 146 -244 q 136 -157 144 -187 q 119 -124 131 -136 q 88 -101 107 -112 q 50 -81 68 -90 q 21 -50 32 -72 q 1 31 1 -11 q 7 114 1 72 q 14 203 13 157 q 8 290 15 249 q 4 342 3 318 q 8 394 6 365 z "},"F":{"ha":733,"x_min":0,"x_max":735,"o":"m 7 463 q 11 528 7 496 q 17 594 15 561 q 17 663 19 629 q 17 731 14 696 q 13 801 21 767 q 7 869 4 835 q 12 892 8 881 q 18 915 15 904 q 19 939 19 926 q 22 964 19 951 q 51 1001 28 994 q 104 1006 74 1008 q 165 996 135 1003 q 217 992 196 989 q 265 1000 240 994 q 313 1010 290 1006 q 367 1006 340 1015 q 421 997 393 997 q 450 999 436 997 q 479 1003 464 1000 q 506 1001 494 1004 q 532 997 517 999 q 585 1001 560 996 q 635 1008 610 1006 q 685 1000 664 1013 q 717 966 706 988 q 731 919 728 944 q 731 869 735 893 q 724 817 725 842 q 719 764 722 792 q 712 719 717 743 q 690 679 707 694 q 669 667 679 668 q 651 670 660 665 q 633 683 642 675 q 615 700 624 692 q 579 720 600 714 q 536 726 558 726 q 492 720 514 726 q 454 704 471 714 q 416 672 435 693 q 391 631 397 650 q 397 601 385 611 q 450 603 408 590 q 502 609 478 611 q 556 603 526 607 q 588 599 571 600 q 615 583 606 599 q 624 538 626 565 q 618 492 621 510 q 610 444 614 467 q 606 394 606 421 q 588 356 606 371 q 544 344 569 342 q 524 353 532 346 q 508 369 515 361 q 492 385 500 378 q 472 394 483 392 q 425 388 450 400 q 393 354 400 376 q 387 282 385 325 q 390 208 389 239 q 397 140 393 174 q 403 71 401 107 q 403 5 406 35 q 382 -56 401 -25 q 344 -102 367 -79 q 310 -150 321 -125 q 300 -199 301 -171 q 299 -250 299 -228 q 297 -303 299 -276 q 293 -357 296 -329 q 285 -406 292 -381 q 283 -456 279 -431 q 288 -477 285 -464 q 293 -503 292 -490 q 290 -528 294 -517 q 272 -542 286 -539 q 233 -529 244 -549 q 218 -482 221 -510 q 217 -425 215 -454 q 217 -382 218 -396 q 213 -345 214 -362 q 206 -308 211 -328 q 193 -276 200 -292 q 183 -243 186 -260 q 186 -210 182 -226 q 193 -178 190 -194 q 194 -106 200 -142 q 172 -37 188 -69 q 135 13 156 0 q 79 40 115 26 q 33 82 49 51 q 8 139 17 114 q 0 201 0 164 q 3 267 0 235 q 10 333 7 300 q 10 399 14 368 q 7 463 7 429 z "},"G":{"ha":950,"x_min":-1,"x_max":953,"o":"m 6 429 q 1 502 3 467 q 3 575 -1 538 q 22 631 6 607 q 53 682 38 656 q 74 724 65 703 q 99 765 83 746 q 138 813 118 790 q 175 863 157 836 q 201 891 186 881 q 236 913 217 901 q 274 936 257 924 q 315 957 290 949 q 362 976 339 964 q 407 1000 385 988 q 457 1017 431 1013 q 510 1021 483 1022 q 565 1015 538 1019 q 617 1006 592 1011 q 678 1000 647 999 q 740 990 708 1001 q 801 962 772 979 q 854 921 831 944 q 881 888 869 906 q 907 856 893 871 q 924 838 915 846 q 939 821 933 831 q 947 770 953 797 q 921 725 940 743 q 889 693 904 710 q 858 660 874 676 q 847 642 851 653 q 838 619 843 631 q 827 599 833 607 q 811 590 821 590 q 797 595 803 590 q 787 607 792 600 q 777 620 782 614 q 764 629 772 626 q 735 633 750 635 q 707 636 719 632 q 687 649 694 640 q 672 667 679 658 q 657 685 665 676 q 635 697 649 693 q 563 675 586 710 q 543 649 551 661 q 514 639 535 636 q 492 649 499 640 q 468 656 485 657 q 439 641 450 653 q 420 614 428 629 q 408 582 413 599 q 400 553 404 565 q 387 503 392 529 q 378 453 382 478 q 370 417 375 435 q 367 379 365 399 q 380 337 369 360 q 404 296 390 314 q 416 274 413 285 q 429 251 419 263 q 478 228 450 228 q 528 242 507 229 q 557 276 550 256 q 542 314 564 297 q 518 323 531 322 q 499 339 506 324 q 499 364 493 351 q 507 386 504 376 q 510 411 511 399 q 507 436 508 424 q 506 461 506 449 q 514 486 507 474 q 550 522 525 507 q 599 539 575 536 q 628 540 614 542 q 657 535 642 538 q 695 535 676 532 q 733 535 714 539 q 781 524 757 529 q 831 518 806 518 q 887 507 864 518 q 929 472 910 496 q 944 444 939 460 q 949 410 949 428 q 948 375 950 392 q 942 344 946 358 q 938 319 939 333 q 935 291 938 306 q 928 265 933 276 q 910 249 922 253 q 896 247 901 246 q 886 252 890 249 q 877 259 882 256 q 867 264 872 263 q 842 254 850 265 q 829 227 833 243 q 824 194 825 211 q 824 169 824 178 q 826 147 824 156 q 826 124 829 138 q 810 81 824 101 q 786 40 797 60 q 751 5 772 17 q 703 -10 729 -7 q 642 -24 668 -14 q 615 -71 615 -35 q 620 -97 615 -83 q 624 -126 625 -111 q 620 -170 621 -147 q 613 -214 619 -193 q 596 -260 606 -237 q 583 -306 586 -282 q 585 -331 582 -317 q 588 -359 588 -344 q 585 -385 589 -374 q 569 -401 582 -397 q 543 -403 553 -408 q 528 -388 533 -399 q 522 -365 524 -378 q 522 -340 521 -351 q 530 -297 525 -317 q 533 -256 535 -278 l 529 -233 q 504 -154 521 -190 q 472 -78 488 -118 q 463 -53 467 -64 q 447 -33 460 -42 q 394 -15 424 -17 q 338 -1 364 -12 q 322 8 331 1 q 304 8 314 15 q 297 -8 297 4 q 299 -26 297 -19 q 295 -56 301 -46 q 282 -85 289 -67 q 275 -124 275 -103 q 269 -164 275 -144 q 253 -204 263 -185 q 238 -243 244 -224 q 233 -297 228 -271 q 238 -351 238 -324 q 236 -376 238 -362 q 230 -399 235 -389 q 216 -416 225 -410 q 192 -421 207 -422 q 169 -410 175 -419 q 163 -387 163 -400 q 167 -361 163 -375 q 174 -339 171 -347 q 176 -295 182 -315 q 168 -251 171 -275 q 170 -212 167 -232 q 167 -174 174 -193 q 156 -149 163 -160 q 149 -122 150 -137 q 144 -22 146 -72 q 136 79 142 29 q 117 150 132 117 q 81 214 103 183 q 61 243 69 228 q 42 272 53 258 q 24 294 33 285 q 10 318 15 303 q 3 374 -1 346 q 6 429 8 401 z "},"H":{"ha":854,"x_min":-4,"x_max":854,"o":"m 11 415 q 13 462 8 439 q 19 510 18 485 q 16 556 21 533 q 8 603 11 579 q 5 638 7 621 q 4 671 3 654 q 9 699 6 686 q 15 726 13 711 q 17 785 19 754 q 15 845 14 815 q 24 902 15 875 q 58 950 32 929 q 97 971 75 964 q 142 981 119 978 q 189 985 165 985 q 233 988 213 986 q 290 979 264 990 q 331 940 315 968 q 340 910 339 925 q 338 882 340 896 q 333 854 336 868 q 329 824 329 840 q 330 789 329 808 q 333 753 331 769 q 333 711 335 738 q 329 656 331 685 q 332 605 328 628 q 353 575 336 582 q 383 574 367 568 q 415 590 399 579 q 443 613 431 600 q 464 638 456 626 q 474 679 475 653 q 474 725 474 706 q 478 816 474 769 q 482 908 482 863 q 485 939 482 921 q 495 974 488 957 q 514 1003 503 990 q 542 1019 525 1017 q 567 1017 554 1022 q 593 1013 581 1013 q 619 1014 608 1013 q 644 1019 631 1015 q 713 1029 674 1029 q 749 1019 729 1029 q 800 965 785 1000 q 821 892 815 929 q 829 801 826 847 q 832 710 832 754 q 825 642 832 674 q 815 575 818 611 q 815 513 814 543 q 817 451 817 483 q 825 290 817 371 q 844 128 833 208 q 851 81 847 104 q 854 33 854 58 q 852 -18 854 11 q 843 -67 850 -47 q 816 -105 835 -90 q 786 -140 797 -119 q 781 -192 775 -161 q 788 -246 786 -222 q 790 -276 789 -261 q 788 -306 790 -290 q 781 -333 786 -321 q 772 -358 775 -346 q 763 -396 768 -378 q 760 -433 758 -414 q 764 -462 761 -449 q 767 -492 767 -476 q 769 -516 767 -503 q 773 -543 771 -529 q 774 -570 775 -557 q 767 -593 772 -583 q 749 -607 761 -601 q 725 -610 736 -612 q 710 -594 711 -606 q 710 -568 710 -583 q 705 -511 710 -540 q 700 -454 700 -482 q 702 -417 700 -435 q 703 -382 704 -400 q 695 -340 701 -361 q 686 -297 689 -319 q 683 -247 683 -274 q 667 -203 682 -221 q 652 -186 660 -194 q 639 -168 644 -178 q 631 -131 629 -151 q 621 -93 633 -110 q 592 -76 610 -81 q 558 -69 574 -72 q 519 -58 536 -67 q 492 -28 503 -49 q 481 45 474 7 q 490 119 488 83 q 491 188 493 153 q 479 254 489 222 q 476 270 476 265 q 461 278 475 275 q 442 276 446 282 q 432 264 439 271 q 405 250 415 251 q 371 251 394 249 q 338 246 347 254 q 327 223 329 238 q 326 191 325 208 q 326 158 328 174 q 317 68 322 113 q 314 -24 311 24 q 317 -65 315 -44 q 315 -108 319 -85 q 298 -172 308 -143 q 285 -237 288 -201 q 281 -315 282 -276 q 282 -393 279 -353 q 279 -442 283 -421 q 244 -464 275 -462 q 219 -457 228 -464 q 208 -439 211 -450 q 206 -414 206 -428 q 208 -386 206 -400 q 215 -335 211 -361 q 213 -282 219 -310 q 202 -250 210 -269 q 183 -212 194 -231 q 159 -178 172 -193 q 132 -161 146 -164 q 94 -156 113 -157 q 61 -149 76 -154 q 33 -134 46 -144 q 13 -101 21 -124 q 1 -34 1 -69 q 1 36 1 1 q 6 94 1 65 q 10 151 10 124 q 3 215 10 183 q 3 278 -4 246 q 12 346 10 313 q 11 415 14 379 z "},"I":{"ha":446,"x_min":-3,"x_max":450,"o":"m 6 543 q 1 633 -3 586 q 4 724 4 681 q 7 787 4 756 q 10 850 10 818 q 10 905 10 876 q 21 957 10 933 q 38 977 29 974 q 58 977 47 981 q 81 967 69 974 q 104 957 92 961 q 188 947 147 943 q 247 960 221 950 q 271 972 260 965 q 297 979 282 978 q 320 972 317 981 q 335 953 324 964 q 351 938 343 944 q 367 925 360 932 q 377 908 374 918 q 379 883 381 899 q 372 858 378 871 q 367 832 367 846 q 371 806 367 817 q 379 783 375 796 q 392 724 389 756 q 394 664 394 693 q 388 611 394 636 q 379 558 381 586 q 383 506 376 529 q 400 456 390 482 q 412 404 410 431 q 413 351 414 378 q 405 241 410 296 q 415 133 400 186 q 438 67 426 99 q 442 -3 450 35 q 417 -43 435 -37 q 379 -44 400 -49 q 336 -33 358 -39 q 297 -35 314 -26 q 269 -62 278 -44 q 256 -101 260 -81 q 250 -144 251 -122 q 244 -183 249 -165 q 243 -273 236 -228 q 250 -362 250 -318 q 250 -387 250 -368 q 248 -426 250 -407 q 239 -459 246 -446 q 218 -465 232 -472 q 207 -442 207 -458 q 204 -414 207 -425 q 196 -394 201 -403 q 188 -374 190 -385 q 185 -347 185 -361 q 186 -321 186 -333 q 181 -269 186 -293 q 171 -217 176 -244 q 164 -189 168 -201 q 160 -161 160 -176 q 162 -133 160 -146 q 163 -107 164 -121 q 162 -89 161 -99 q 162 -69 163 -79 q 158 -51 161 -60 q 149 -35 156 -42 q 135 -27 144 -31 q 114 -21 125 -24 q 92 -16 103 -18 q 75 -14 81 -14 q 59 -19 68 -14 q 44 -22 50 -25 q 24 6 31 -17 q 17 42 18 29 l 17 44 q 15 84 14 64 q 19 124 17 104 q 22 163 21 143 q 19 203 22 183 q 8 260 14 232 q 1 317 1 288 q 9 430 1 375 q 6 543 17 485 z "},"J":{"ha":781,"x_min":-6,"x_max":782,"o":"m 418 515 q 408 579 407 547 q 411 644 408 611 q 417 710 414 676 q 417 776 421 743 q 411 834 413 806 q 399 890 410 863 q 392 919 392 907 q 403 944 393 931 q 418 972 411 958 q 433 997 425 986 q 460 1015 446 1011 q 490 1018 474 1019 q 521 1013 506 1017 q 550 1011 536 1010 q 579 1019 565 1013 q 608 1029 593 1026 q 637 1028 622 1031 q 667 1024 651 1026 q 707 999 700 1018 q 722 950 714 979 q 740 846 736 901 q 742 801 743 825 q 746 756 740 776 q 757 682 754 719 q 761 607 760 644 q 765 531 763 569 q 775 456 768 493 q 780 393 782 425 q 778 329 778 361 q 772 265 778 297 q 758 200 765 232 q 749 163 754 181 q 738 128 744 144 q 709 84 726 104 q 672 47 692 64 q 658 33 661 38 q 651 15 654 29 q 646 -5 649 4 q 640 -25 643 -14 q 636 -72 635 -49 q 633 -118 638 -94 q 627 -165 631 -142 q 621 -210 624 -187 q 622 -262 618 -237 q 617 -315 626 -287 q 609 -338 611 -329 q 607 -362 607 -347 q 609 -390 607 -375 q 606 -415 611 -404 q 583 -427 596 -436 q 564 -406 571 -418 q 552 -367 551 -385 q 549 -325 553 -349 q 543 -299 546 -311 q 538 -271 540 -286 q 531 -216 533 -240 q 514 -167 529 -192 q 503 -142 507 -157 q 493 -113 499 -128 q 480 -87 488 -99 q 460 -72 472 -76 q 433 -74 449 -69 q 406 -81 417 -78 q 377 -99 388 -83 q 361 -135 367 -115 q 354 -176 356 -156 q 354 -211 353 -197 q 363 -270 357 -243 q 364 -329 368 -297 q 347 -439 357 -385 q 349 -551 338 -493 q 361 -598 351 -567 q 376 -662 371 -629 q 378 -721 382 -694 q 350 -753 375 -747 q 323 -749 332 -757 q 310 -729 314 -742 q 308 -702 307 -717 q 311 -676 308 -687 q 313 -619 315 -649 q 304 -564 310 -590 q 291 -510 299 -533 q 272 -457 283 -486 q 265 -400 261 -428 q 264 -343 269 -372 q 249 -295 258 -318 q 231 -249 239 -272 q 222 -217 225 -233 q 215 -186 219 -201 q 208 -149 210 -168 q 204 -112 206 -131 q 201 -75 203 -93 q 192 -40 199 -57 q 167 -4 182 -17 q 136 24 153 8 q 106 60 117 40 q 84 101 94 81 q 63 142 74 122 q 33 178 51 161 q 2 218 10 199 q 13 265 -6 238 q 37 298 26 285 q 75 306 47 311 q 127 299 99 300 q 179 304 156 297 q 197 311 189 306 q 215 321 206 317 q 235 326 225 325 q 256 324 244 328 q 281 297 275 315 q 300 263 288 278 q 331 233 311 249 q 369 214 350 217 q 415 221 400 210 q 435 251 429 232 q 440 293 440 271 q 442 335 440 315 q 447 363 443 350 q 449 390 450 375 q 438 455 446 426 q 418 515 429 483 z "},"K":{"ha":940,"x_min":-1,"x_max":939,"o":"m 25 557 q 33 653 25 606 q 35 749 40 700 q 29 806 32 778 q 26 865 26 835 q 34 950 26 910 q 81 1022 42 990 q 135 1044 104 1042 q 194 1044 165 1047 q 223 1039 210 1043 q 250 1035 236 1035 q 283 1038 267 1035 q 314 1040 299 1040 q 347 1014 340 1040 q 359 968 353 992 q 368 924 365 944 q 365 874 371 899 q 360 822 358 849 q 378 785 363 788 q 414 806 394 783 q 453 856 436 829 q 489 910 469 883 q 527 947 504 931 q 569 981 550 964 q 615 1017 592 1000 q 667 1039 639 1035 q 713 1039 693 1043 q 757 1026 732 1035 q 826 1005 788 1017 q 885 965 864 993 q 893 942 893 954 q 891 917 893 929 q 885 891 889 904 q 881 865 881 878 q 883 819 879 842 q 891 773 886 796 q 900 726 896 750 q 904 679 904 703 q 902 649 904 663 q 886 629 900 636 q 870 626 876 624 q 858 635 864 629 q 845 649 851 642 q 831 660 839 657 q 795 662 814 665 q 760 649 776 658 q 729 626 743 639 q 706 599 715 613 q 683 567 697 586 q 665 533 668 549 q 663 506 664 521 q 664 475 661 490 q 672 455 665 463 q 685 436 678 447 q 709 390 700 413 q 731 343 718 367 q 755 299 742 324 q 785 260 768 275 q 805 245 794 250 q 826 238 815 240 q 847 231 836 235 q 867 219 857 226 q 895 176 889 201 q 901 128 901 151 q 905 86 901 108 q 913 44 908 64 q 927 3 917 24 q 939 -40 938 -18 q 935 -65 939 -54 q 925 -85 931 -75 q 913 -105 919 -94 q 906 -128 907 -115 q 904 -156 903 -142 q 903 -183 906 -169 q 894 -207 900 -197 q 885 -231 888 -217 q 885 -268 882 -247 q 890 -309 888 -289 q 888 -346 892 -329 q 868 -371 885 -362 q 836 -361 842 -382 q 832 -315 831 -340 q 833 -271 835 -290 q 817 -231 832 -251 q 805 -213 810 -221 q 796 -194 800 -206 q 790 -176 792 -183 q 772 -176 788 -169 q 758 -190 764 -181 q 745 -204 751 -199 q 732 -210 739 -210 q 717 -194 725 -210 q 708 -174 713 -189 q 696 -148 703 -160 q 680 -131 689 -136 q 658 -140 671 -126 q 622 -164 639 -161 q 586 -140 606 -167 q 570 -93 571 -118 q 568 -42 569 -68 q 557 12 567 -11 q 533 54 547 35 q 501 94 518 74 q 471 138 485 114 q 460 154 468 143 q 433 176 449 169 q 400 178 418 182 q 375 153 378 174 q 376 106 372 132 q 385 55 381 81 q 383 14 389 29 q 347 -24 372 -11 q 296 -49 321 -37 q 253 -78 271 -61 q 243 -125 236 -94 q 250 -176 249 -150 q 249 -229 251 -201 q 246 -253 247 -242 q 242 -275 244 -264 q 238 -299 239 -285 q 228 -319 236 -312 q 204 -327 213 -332 q 192 -310 196 -322 q 186 -284 188 -299 q 185 -262 185 -269 q 174 -210 182 -235 q 161 -157 167 -185 q 155 -116 157 -137 q 139 -79 153 -94 q 103 -56 125 -62 q 64 -37 82 -49 q 18 15 31 -18 q 3 83 6 47 q 4 228 -1 157 q 17 369 10 299 q 23 463 21 418 q 25 557 25 508 z "},"L":{"ha":797,"x_min":0,"x_max":797,"o":"m 18 535 q 26 608 19 572 q 38 681 33 644 q 36 753 42 717 q 31 826 31 790 q 34 883 31 854 q 46 939 38 913 q 65 980 53 964 q 104 1001 76 996 q 162 1001 133 1008 q 218 992 190 994 q 277 995 246 990 q 335 992 308 1000 q 364 965 356 985 q 373 923 372 946 q 370 876 374 900 q 365 838 367 853 q 365 783 364 810 q 360 729 367 756 q 352 676 353 701 q 354 624 351 651 q 364 551 357 588 q 374 478 371 514 q 376 441 375 460 q 379 403 376 422 q 388 345 383 376 q 415 296 392 314 q 445 282 426 288 q 485 273 464 276 q 527 269 507 269 q 561 269 547 268 q 665 272 617 274 q 761 240 713 271 q 787 212 781 228 q 794 172 793 196 q 795 167 794 169 q 796 163 796 165 q 794 104 797 138 q 780 43 792 71 q 747 -1 768 15 q 688 -6 725 -17 q 648 6 668 0 q 606 14 628 13 q 566 8 586 15 q 526 -3 546 0 q 463 -37 481 -10 q 440 -101 444 -64 q 439 -176 436 -137 q 439 -244 442 -215 q 439 -267 439 -253 q 438 -296 439 -282 q 431 -320 436 -310 q 415 -332 426 -331 q 392 -326 400 -335 q 383 -303 385 -317 q 382 -274 381 -289 q 385 -250 383 -260 q 390 -219 386 -235 q 393 -185 394 -203 q 381 -151 390 -165 q 365 -119 372 -137 q 360 -92 360 -107 q 362 -62 361 -78 q 360 -34 363 -47 q 346 -10 357 -21 q 306 -3 328 6 q 275 -31 285 -11 q 258 -72 264 -50 q 247 -117 251 -93 q 244 -158 244 -139 q 231 -197 244 -178 q 210 -212 219 -212 q 194 -202 201 -211 q 183 -180 188 -193 q 179 -156 179 -167 q 181 -124 179 -140 q 179 -92 182 -107 q 172 -64 176 -76 q 164 -36 167 -51 q 136 10 158 -1 q 86 36 114 22 q 39 85 58 51 q 8 150 19 119 q 1 211 0 175 q 4 275 1 247 q 10 334 7 306 q 15 392 14 363 q 17 463 18 428 q 18 535 17 499 z "},"M":{"ha":1089,"x_min":0,"x_max":1090,"o":"m 39 525 q 38 554 38 540 q 36 582 38 568 q 35 678 32 631 q 32 774 38 725 q 23 820 29 797 q 11 867 17 843 q 3 914 6 890 q 3 963 0 938 q 28 1003 7 990 q 78 1022 50 1017 q 137 1028 107 1026 q 186 1033 167 1029 q 242 1036 213 1039 q 298 1022 271 1033 q 347 990 325 1010 q 381 944 368 971 q 410 892 392 921 q 450 838 428 863 q 499 794 472 813 q 553 772 525 775 q 596 784 578 769 q 628 822 614 799 q 654 870 642 844 q 679 915 667 896 q 712 965 692 935 q 751 1006 732 994 q 776 1010 764 1011 q 801 1006 789 1010 q 826 999 814 1003 q 849 996 838 994 q 897 1013 874 999 q 953 1028 921 1028 q 983 1026 967 1028 q 1016 1020 1000 1025 q 1045 1006 1032 1015 q 1065 982 1058 997 q 1081 906 1081 946 q 1075 824 1081 865 q 1063 742 1069 783 q 1061 664 1057 701 q 1070 615 1064 638 q 1074 565 1076 593 q 1064 462 1068 515 q 1063 360 1060 408 q 1069 303 1064 331 q 1080 247 1075 275 q 1088 191 1085 219 q 1086 132 1090 163 q 1068 60 1082 96 q 1028 1 1054 25 q 987 -31 1008 -17 q 950 -68 965 -46 q 923 -125 932 -94 q 904 -185 914 -156 q 887 -231 897 -210 q 875 -279 876 -253 q 876 -333 874 -307 q 879 -386 879 -358 q 881 -431 879 -407 q 875 -474 883 -456 q 854 -484 868 -487 q 833 -467 840 -481 q 827 -436 826 -453 q 829 -404 828 -419 q 828 -352 832 -378 q 818 -303 824 -326 q 810 -257 813 -281 q 800 -214 808 -233 q 790 -194 796 -203 q 779 -175 785 -186 q 768 -152 775 -164 q 758 -126 761 -140 q 754 -103 756 -115 q 751 -81 753 -92 q 749 -54 749 -65 q 742 -31 749 -43 q 720 34 725 3 q 715 98 715 65 q 715 164 714 131 q 708 233 715 197 q 702 292 703 263 q 704 350 701 321 q 708 394 706 367 q 696 433 710 421 q 674 438 683 443 q 659 419 665 432 q 649 392 653 407 q 640 368 644 376 q 611 294 624 328 q 567 233 599 261 q 554 218 557 226 q 546 199 551 210 q 515 165 535 175 q 471 167 494 156 q 431 209 443 179 q 411 268 419 239 q 403 297 407 282 q 390 324 400 311 q 381 332 388 326 q 367 342 375 338 q 352 348 360 347 q 342 340 344 349 q 333 286 331 314 q 339 231 336 258 q 338 181 340 206 q 332 131 335 156 q 332 84 329 107 q 338 39 335 61 q 338 -4 340 17 q 321 -39 336 -25 q 307 -50 314 -44 q 294 -62 300 -56 q 287 -78 288 -69 q 282 -93 286 -86 q 270 -106 275 -103 q 254 -101 265 -108 q 244 -89 249 -97 q 235 -73 240 -81 q 223 -61 229 -65 q 207 -61 217 -57 q 192 -89 194 -68 q 191 -134 189 -110 q 197 -182 193 -158 q 201 -215 201 -206 q 198 -239 201 -228 q 192 -261 194 -250 q 190 -285 189 -272 q 185 -308 190 -297 q 167 -326 178 -322 q 146 -319 157 -331 q 134 -290 133 -308 q 135 -257 135 -272 q 138 -202 135 -229 q 125 -146 140 -175 q 92 -80 108 -111 q 57 -17 76 -49 q 42 16 47 0 q 32 51 38 32 q 18 127 22 89 q 11 204 14 165 q 13 242 10 224 q 22 278 17 260 q 31 313 26 296 q 35 350 35 331 q 40 437 38 393 q 39 525 42 481 z "},"N":{"ha":856,"x_min":-4,"x_max":860,"o":"m 1 454 q 10 534 4 494 q 8 614 15 574 q 6 673 4 644 q 6 732 7 701 q 6 788 4 761 q 8 843 8 814 q 2 898 8 868 q 4 953 -4 928 q 31 983 11 972 q 76 999 51 994 q 126 1004 100 1004 q 168 1000 151 1004 q 205 990 188 996 q 238 969 222 985 q 255 944 247 958 q 272 918 263 929 q 315 869 292 892 q 353 814 338 846 q 359 788 358 801 q 367 761 360 774 q 383 737 374 749 q 400 714 392 725 q 419 685 408 704 q 444 650 431 665 q 470 629 457 635 q 496 642 483 624 q 502 663 501 650 q 502 689 503 675 q 500 717 501 703 q 499 740 499 731 q 499 797 500 760 q 500 872 497 833 q 513 941 503 910 q 546 981 522 972 q 590 991 567 989 q 636 999 614 993 q 680 1008 658 1004 q 725 1008 701 1011 q 815 936 792 1001 q 822 899 822 917 q 824 864 821 882 q 827 841 825 850 q 831 824 829 832 q 833 806 832 815 q 833 783 833 796 q 830 726 832 754 q 831 667 828 697 q 833 594 833 631 q 833 522 833 558 q 840 463 833 489 q 844 404 847 436 q 845 321 840 364 q 853 238 850 278 q 839 110 860 169 q 828 57 831 85 q 814 4 825 29 q 787 -49 803 -24 q 757 -104 771 -75 q 742 -161 744 -132 q 724 -218 739 -190 q 707 -256 713 -239 q 701 -296 701 -272 q 707 -331 701 -314 q 715 -368 713 -349 q 711 -408 719 -389 q 687 -433 703 -428 q 658 -419 671 -437 q 650 -400 651 -411 q 649 -376 649 -389 q 651 -352 650 -364 q 651 -331 651 -340 q 642 -285 649 -306 q 635 -237 636 -264 q 627 -165 633 -200 q 601 -97 621 -131 q 576 -70 590 -78 q 546 -50 563 -62 q 508 -12 525 -35 q 477 36 492 11 q 449 87 463 61 q 422 135 436 113 q 413 159 417 144 q 403 188 408 174 q 392 215 399 203 q 372 233 385 228 q 354 231 358 239 q 351 208 350 222 q 354 180 351 194 q 358 161 357 165 q 369 102 365 132 q 367 42 374 72 q 339 -14 360 8 q 299 -64 318 -36 q 286 -98 288 -81 q 285 -134 285 -115 q 284 -172 285 -153 q 275 -208 283 -190 q 259 -226 269 -218 q 235 -226 249 -233 q 222 -203 226 -222 q 215 -174 218 -185 q 206 -146 211 -161 q 194 -118 201 -131 q 176 -97 188 -106 q 149 -89 165 -89 q 136 -96 140 -89 q 128 -112 132 -103 q 119 -129 124 -121 q 107 -139 115 -137 q 92 -133 97 -142 q 84 -114 86 -125 q 81 -91 82 -103 q 78 -74 79 -79 q 58 -32 71 -50 q 31 6 46 -14 q 8 67 7 36 q 13 135 8 99 q 22 214 18 175 q 18 294 25 253 q 6 374 13 335 q 1 454 -1 414 z "},"O":{"ha":897,"x_min":-6,"x_max":897,"o":"m 4 397 q 8 502 -6 450 q 36 603 21 554 q 56 676 47 639 q 76 751 65 714 q 110 833 89 794 q 167 900 131 872 q 279 953 219 939 q 401 971 339 968 q 515 968 457 972 q 619 928 572 964 q 666 881 646 907 q 710 832 686 854 q 758 778 738 807 q 800 718 779 749 q 862 607 839 660 q 892 485 885 554 q 896 369 897 425 q 882 256 894 314 q 871 210 878 235 q 857 165 864 186 q 834 125 849 144 q 808 88 819 106 q 767 41 792 63 q 714 8 742 19 q 683 0 699 1 q 651 -3 667 -1 q 619 -6 635 -4 q 589 -15 603 -8 q 556 -34 575 -22 q 528 -57 536 -46 q 514 -103 515 -74 q 515 -156 513 -133 q 520 -183 518 -169 q 519 -210 522 -196 q 514 -232 518 -221 q 508 -254 510 -243 q 508 -290 507 -269 q 507 -332 508 -311 q 501 -372 506 -353 q 482 -399 496 -390 q 452 -399 461 -411 q 440 -363 443 -386 q 436 -317 436 -340 q 435 -283 436 -293 q 429 -222 432 -251 q 421 -160 426 -192 q 415 -103 415 -132 q 406 -46 414 -74 q 397 -28 403 -37 q 381 -12 390 -18 q 363 -4 372 -6 q 343 -11 353 -3 q 334 -29 336 -17 q 331 -56 332 -42 q 329 -85 329 -71 q 328 -107 329 -99 q 308 -218 317 -164 q 289 -329 299 -272 q 285 -344 288 -336 q 279 -358 283 -351 q 269 -366 275 -364 q 253 -364 263 -368 q 235 -335 238 -356 q 229 -299 232 -314 q 219 -251 224 -275 q 211 -200 214 -226 q 210 -158 210 -179 q 208 -117 211 -137 q 190 -34 204 -71 q 156 36 175 3 q 114 103 136 69 q 72 175 92 136 q 53 228 58 201 q 40 283 47 256 q 22 340 33 313 q 4 397 10 367 m 388 468 q 385 415 376 440 q 411 378 393 390 q 451 371 429 365 q 490 413 474 376 q 501 476 508 449 q 474 513 493 503 q 430 515 454 524 q 389 474 406 507 q 388 470 389 471 q 388 468 388 469 z "},"P":{"ha":825,"x_min":0,"x_max":825,"o":"m 22 497 q 19 641 21 568 q 29 783 18 714 q 32 833 33 808 q 30 881 31 857 q 31 928 29 904 q 42 978 32 953 q 71 1011 51 1003 q 115 1019 90 1019 q 163 1013 139 1018 q 207 1004 188 1007 q 276 1002 242 1000 q 346 1007 311 1004 q 415 1011 381 1010 q 485 1006 450 1013 q 594 965 543 994 q 690 897 646 935 q 742 833 725 869 q 779 760 760 797 q 811 697 797 726 q 825 626 825 667 q 825 600 825 615 q 822 572 825 585 q 785 481 811 522 q 715 411 758 439 q 672 376 692 396 q 633 335 653 356 q 591 298 613 315 q 543 269 569 281 q 491 260 517 258 q 439 271 465 261 q 415 280 426 275 q 394 285 404 285 q 376 278 383 285 q 365 254 369 272 q 366 185 358 221 q 376 115 374 150 q 372 46 378 81 q 365 -26 365 11 q 369 -56 365 -39 q 374 -92 372 -74 q 374 -126 376 -110 q 363 -151 372 -142 q 330 -160 343 -168 q 303 -137 317 -151 q 272 -111 285 -118 q 233 -115 260 -104 q 218 -130 222 -119 q 213 -153 214 -140 q 214 -180 213 -167 q 214 -201 215 -193 q 213 -230 211 -217 q 215 -258 215 -243 q 209 -296 215 -278 q 200 -333 203 -314 q 190 -393 196 -365 q 172 -450 183 -421 q 169 -469 169 -458 q 167 -492 168 -481 q 164 -515 165 -504 q 158 -531 163 -525 q 146 -538 151 -539 q 135 -532 140 -537 q 126 -518 129 -526 q 124 -503 124 -510 q 123 -402 124 -451 q 122 -301 122 -353 q 124 -242 122 -272 q 121 -183 125 -212 q 105 -128 117 -154 q 68 -83 93 -103 q 22 -36 39 -61 q 1 26 6 -11 q 0 41 0 33 q 0 57 0 49 q 6 122 0 89 q 15 188 13 156 q 23 342 22 265 q 22 497 24 419 m 369 654 q 363 628 367 643 q 367 601 360 613 q 397 584 378 585 q 431 581 415 583 q 452 575 442 578 q 471 588 463 572 q 476 630 479 603 q 463 672 472 657 q 449 685 458 678 q 430 699 440 693 q 409 708 419 706 q 390 708 399 711 q 372 685 372 701 q 369 654 372 669 z "},"Q":{"ha":825,"x_min":-3,"x_max":829,"o":"m 3 590 q 15 651 6 622 q 31 713 24 681 q 49 757 38 739 q 72 799 61 775 q 78 822 78 810 q 85 844 78 833 q 100 863 92 854 q 114 882 108 871 q 181 951 138 928 q 230 971 204 964 q 281 985 256 978 q 394 988 333 997 q 506 958 456 978 q 601 906 557 938 q 683 833 646 874 q 744 737 724 792 q 772 624 764 682 q 783 510 779 571 q 768 399 786 450 q 758 367 763 383 q 749 333 753 350 q 747 324 747 329 q 744 315 746 319 q 741 294 742 304 q 735 272 740 283 q 726 256 731 264 q 719 239 721 247 q 724 209 717 222 q 741 185 731 196 q 764 164 751 174 q 785 144 776 154 q 819 84 808 117 q 821 15 829 51 q 809 -22 817 -4 q 790 -54 801 -39 q 768 -78 779 -68 q 749 -104 757 -89 q 736 -140 739 -122 q 733 -177 733 -158 q 731 -215 732 -196 q 725 -253 731 -235 q 716 -273 722 -264 q 699 -272 710 -282 q 689 -255 692 -267 q 685 -230 686 -243 q 684 -203 685 -217 q 682 -182 683 -190 q 662 -123 675 -149 q 625 -72 649 -97 q 606 -51 618 -64 q 581 -31 593 -39 q 556 -26 568 -24 q 540 -49 544 -28 q 540 -69 539 -57 q 539 -94 540 -82 q 533 -114 538 -106 q 515 -122 528 -122 q 502 -115 507 -122 q 494 -97 497 -107 q 488 -78 490 -87 q 482 -61 485 -68 q 464 -37 476 -47 q 437 -21 451 -26 q 406 -16 422 -15 q 378 -24 390 -17 q 363 -40 364 -31 q 356 -61 363 -50 q 344 -76 350 -71 q 332 -93 338 -82 q 319 -142 322 -114 q 319 -193 317 -169 q 322 -242 322 -219 q 319 -290 322 -264 q 319 -315 318 -303 q 310 -335 321 -326 q 283 -334 294 -346 q 268 -307 271 -322 q 266 -258 264 -283 q 269 -210 268 -233 q 268 -155 272 -182 q 257 -103 264 -128 q 240 -53 250 -75 q 215 -6 231 -31 q 197 24 206 10 q 175 53 188 39 q 152 76 164 65 q 131 101 140 86 q 109 146 118 122 q 92 193 100 169 q 53 283 74 240 q 21 374 32 325 q 3 481 8 425 q 3 590 -3 536 m 319 488 q 329 453 322 468 q 344 419 336 438 q 354 393 350 407 q 367 368 358 379 q 377 358 368 365 q 390 354 386 351 q 393 358 393 354 q 403 387 396 382 q 422 390 411 392 q 443 385 432 388 q 464 394 454 383 q 481 433 475 406 q 485 476 486 461 q 476 520 483 496 q 454 557 469 544 q 440 564 447 563 q 426 565 433 565 q 410 566 418 565 q 394 569 403 567 q 379 578 385 574 q 363 582 374 582 q 345 581 353 582 q 333 574 338 581 q 324 556 328 564 q 317 536 319 547 q 317 512 315 525 q 319 488 318 499 z "},"R":{"ha":965,"x_min":-3,"x_max":968,"o":"m 28 374 q 24 473 25 424 q 13 571 24 522 q 1 713 -3 640 q 7 857 4 785 q 6 897 7 874 q 7 943 6 919 q 15 987 8 967 q 36 1019 21 1007 q 81 1032 53 1032 q 142 1026 110 1032 q 204 1016 174 1021 q 258 1015 235 1011 q 309 1018 285 1019 q 361 1018 333 1017 q 412 1027 386 1019 q 463 1040 438 1035 q 529 1046 494 1047 q 594 1038 564 1044 q 649 1004 626 1031 q 692 954 671 978 q 763 864 728 914 q 817 761 797 814 q 831 651 833 713 q 817 539 829 590 q 801 493 811 515 q 781 450 792 471 q 763 419 772 432 q 737 387 751 404 q 718 350 722 369 q 723 302 713 324 q 751 261 733 281 q 788 224 768 242 q 825 190 808 207 q 853 163 839 175 q 881 135 868 150 q 897 108 892 122 q 911 81 901 93 q 928 62 918 69 q 946 42 939 54 q 964 -10 960 18 q 954 -62 968 -37 q 934 -88 947 -78 q 913 -112 921 -99 q 899 -141 904 -125 q 892 -171 894 -157 q 890 -228 886 -199 q 882 -286 893 -258 q 870 -306 876 -297 q 861 -331 864 -315 q 860 -357 858 -342 q 861 -385 861 -372 q 858 -411 861 -396 q 847 -440 854 -426 q 830 -465 840 -454 q 806 -476 819 -475 q 785 -468 790 -479 q 781 -442 779 -457 q 785 -407 783 -424 q 788 -369 788 -390 q 778 -301 788 -335 q 761 -236 768 -268 q 751 -214 758 -222 q 739 -194 744 -206 q 726 -162 733 -182 q 707 -127 718 -142 q 682 -110 696 -112 q 650 -129 668 -107 q 641 -151 642 -140 q 625 -168 640 -162 q 599 -159 608 -174 q 585 -133 589 -144 q 570 -90 578 -110 q 553 -49 563 -71 q 534 -5 543 -28 q 511 39 525 18 q 488 65 501 54 q 464 92 475 76 q 446 117 454 103 q 422 135 438 132 q 399 128 406 138 q 390 106 392 119 q 392 76 389 92 q 396 53 394 61 q 405 -6 401 25 q 389 -62 408 -37 q 373 -77 382 -72 q 353 -85 364 -82 q 333 -92 343 -87 q 315 -103 324 -96 q 303 -133 304 -114 q 301 -168 301 -153 q 299 -199 301 -187 q 285 -226 296 -211 q 267 -252 275 -240 q 258 -281 260 -264 q 258 -313 256 -297 q 258 -347 261 -329 q 251 -378 256 -362 q 242 -410 246 -394 q 235 -442 238 -425 q 225 -472 232 -460 q 200 -487 217 -485 q 172 -478 183 -489 q 158 -449 161 -467 q 151 -418 154 -432 q 143 -386 150 -404 q 133 -365 139 -375 q 128 -342 128 -356 q 132 -315 128 -328 q 138 -287 136 -301 q 121 -204 142 -242 q 74 -131 100 -167 q 27 -57 49 -94 q 8 29 6 -19 q 15 103 11 65 q 25 176 19 140 q 31 275 32 225 q 28 374 29 325 m 394 636 q 392 617 394 629 q 393 600 390 606 q 415 593 400 588 q 436 601 429 599 q 472 649 472 619 q 444 703 471 679 q 420 712 435 711 q 397 701 406 713 q 390 669 386 688 q 394 636 394 651 z "},"S":{"ha":817,"x_min":0,"x_max":817,"o":"m 64 771 q 64 809 64 788 q 65 853 64 831 q 70 897 67 876 q 82 933 74 918 q 148 1001 107 976 q 237 1038 189 1026 q 335 1050 285 1049 q 432 1050 386 1051 q 476 1043 453 1049 q 520 1028 499 1038 q 561 1009 542 1019 q 597 989 581 999 q 635 969 617 978 q 667 947 653 960 q 685 930 678 939 q 703 913 693 921 q 726 903 714 906 q 747 893 738 900 q 765 875 757 888 q 778 851 774 863 q 782 800 790 828 q 771 776 778 788 q 756 754 764 765 q 740 732 747 743 q 729 707 732 721 q 724 660 724 683 q 717 614 724 638 q 706 598 714 606 q 686 594 699 590 q 674 609 676 599 q 667 628 671 619 q 658 647 661 643 q 639 654 654 650 q 622 663 628 658 q 613 675 617 667 q 582 722 600 699 q 542 762 564 744 q 493 788 519 779 q 438 793 467 797 q 401 772 410 789 q 411 732 392 756 q 455 698 426 710 q 507 676 483 686 q 560 648 539 665 q 604 610 581 631 q 656 562 631 586 q 701 507 682 538 q 718 483 711 496 q 732 457 725 469 q 750 416 742 438 q 769 375 758 394 q 800 322 783 346 q 817 264 817 299 q 808 213 817 236 q 792 164 799 189 q 774 111 785 136 q 753 63 764 86 q 733 19 742 42 q 708 -24 724 -4 q 680 -68 693 -44 q 651 -112 667 -92 q 630 -161 635 -140 q 618 -214 625 -182 q 615 -236 617 -221 q 606 -256 613 -251 q 592 -258 597 -260 q 583 -250 586 -256 q 576 -237 579 -244 q 572 -226 574 -231 q 567 -202 568 -214 q 560 -179 567 -190 q 542 -166 551 -168 q 522 -168 532 -164 q 503 -181 511 -172 q 489 -199 494 -189 q 475 -240 478 -218 q 467 -283 472 -262 q 451 -319 460 -306 q 432 -353 442 -333 q 424 -394 422 -372 q 426 -436 425 -415 q 422 -522 431 -478 q 414 -542 419 -532 q 393 -551 408 -553 q 377 -538 379 -549 q 372 -517 375 -528 q 373 -466 368 -492 q 379 -412 378 -440 q 377 -359 381 -386 q 371 -307 374 -332 q 370 -287 371 -301 q 368 -256 369 -274 q 365 -219 367 -237 q 358 -183 363 -200 q 328 -150 347 -147 q 318 -158 321 -153 q 312 -168 315 -162 q 303 -177 308 -174 q 289 -178 299 -181 q 267 -160 272 -175 q 256 -129 261 -144 q 240 -94 247 -112 q 222 -61 233 -76 q 192 -24 208 -42 q 158 11 175 -7 q 122 58 138 36 q 90 108 106 79 q 58 155 76 135 q 26 203 39 175 q 8 238 17 219 q 0 278 0 257 q 10 309 0 294 q 36 335 21 324 q 68 356 51 347 q 99 369 85 364 q 151 384 125 379 q 204 396 176 389 q 225 403 214 397 q 249 415 236 410 q 273 424 261 421 q 296 422 285 426 q 317 392 311 415 q 331 353 324 368 q 338 335 335 344 q 344 317 340 325 q 382 272 357 289 q 439 264 407 256 q 481 290 467 271 q 499 334 496 310 q 495 383 501 358 q 475 428 489 408 q 460 442 469 435 q 446 457 451 450 q 434 470 438 465 q 426 477 431 475 q 417 481 422 479 q 401 483 411 482 q 350 494 376 489 q 297 506 324 499 q 283 511 286 508 q 277 517 279 514 q 272 523 275 519 q 261 533 269 526 q 248 542 253 539 q 239 544 243 544 q 230 544 235 544 q 217 544 225 543 q 170 551 197 547 q 124 565 143 554 q 110 582 113 574 q 106 600 107 590 q 106 621 106 610 q 100 644 106 632 q 74 705 85 679 q 64 771 64 731 z "},"T":{"ha":1054,"x_min":0,"x_max":1054,"o":"m 36 763 q 28 786 35 775 q 17 808 21 797 q 11 834 13 819 q 7 860 10 849 q 1 919 1 889 q 0 982 0 950 q 19 1037 0 1025 q 78 1042 38 1049 q 107 1033 93 1039 q 135 1022 121 1028 q 163 1012 149 1015 q 193 1011 176 1008 q 216 1022 207 1014 q 240 1033 225 1031 q 281 1033 260 1038 q 322 1026 303 1029 q 388 1018 357 1024 q 453 1024 418 1013 q 507 1029 479 1032 q 562 1020 535 1026 q 617 1007 589 1014 q 672 1000 644 1000 q 731 1008 704 1000 q 790 1014 758 1017 q 847 1013 821 1011 q 904 1022 874 1015 q 960 1029 933 1029 q 1010 1010 986 1029 q 1045 969 1036 989 q 1053 915 1054 949 q 1052 854 1051 886 q 1049 793 1053 822 q 1031 683 1040 736 q 1026 572 1021 631 q 1034 516 1029 546 q 1031 460 1039 486 q 1014 435 1026 447 q 987 417 1001 424 q 961 411 972 410 q 950 426 950 413 l 950 428 q 944 462 950 447 q 935 494 938 476 q 925 526 932 513 q 915 558 918 539 q 899 613 911 593 q 870 640 886 633 q 835 642 854 647 q 799 624 817 638 q 773 599 785 613 q 753 565 761 585 q 729 456 729 511 q 728 346 729 401 q 724 278 728 311 q 720 211 721 244 q 722 144 719 178 q 733 78 724 111 q 750 8 743 46 q 740 -64 757 -31 q 709 -97 729 -85 q 678 -128 689 -110 q 669 -154 671 -140 q 668 -183 667 -168 q 671 -212 669 -197 q 671 -240 672 -226 q 665 -272 669 -254 q 650 -300 661 -290 q 632 -306 640 -307 q 617 -297 624 -304 q 606 -280 611 -290 q 600 -261 601 -269 q 599 -235 597 -247 q 603 -210 600 -222 q 608 -186 606 -199 q 611 -160 611 -174 q 607 -142 611 -149 q 599 -126 603 -136 q 590 -99 592 -114 q 578 -74 589 -83 q 558 -74 564 -60 q 551 -111 553 -87 q 549 -159 549 -135 q 546 -190 549 -183 q 527 -242 538 -214 q 519 -296 517 -269 q 529 -354 522 -328 q 532 -417 536 -381 q 526 -447 529 -435 q 513 -475 522 -458 q 503 -507 503 -493 q 506 -542 503 -521 q 507 -572 507 -553 q 502 -608 507 -592 q 486 -629 497 -624 q 457 -617 475 -635 q 444 -592 447 -607 q 442 -559 442 -576 q 442 -524 442 -542 q 439 -494 443 -507 q 431 -464 433 -478 q 432 -431 429 -450 q 438 -392 435 -411 q 444 -353 442 -372 q 450 -317 447 -337 q 444 -281 453 -297 q 420 -235 433 -257 q 388 -193 407 -212 q 351 -167 371 -178 q 318 -137 332 -157 q 300 -98 306 -119 q 293 -53 294 -76 q 294 -8 292 -31 q 297 36 296 15 q 305 102 300 69 q 310 171 310 135 q 305 240 310 206 q 306 308 300 274 q 318 376 311 342 q 315 444 325 411 q 308 480 311 461 q 304 514 304 499 q 308 541 304 526 q 315 572 313 556 q 317 601 318 588 q 304 625 315 615 q 278 635 289 638 q 258 622 267 633 q 246 597 250 611 q 242 569 242 582 q 243 542 240 556 q 243 514 246 528 q 235 490 240 503 q 224 467 229 478 q 210 443 218 454 q 196 421 203 432 q 186 395 186 406 q 183 367 186 385 q 168 339 179 349 q 143 328 157 329 q 117 336 129 328 q 100 361 106 344 q 95 388 96 374 q 92 415 94 401 q 83 442 89 431 q 78 471 78 454 q 67 526 78 503 q 60 538 64 532 q 53 550 56 543 q 51 564 50 557 q 50 576 53 571 q 35 594 46 588 q 17 613 24 601 q 13 665 3 635 q 22 688 15 679 q 31 708 28 696 q 35 735 33 719 q 36 763 38 751 z "},"U":{"ha":836,"x_min":-1,"x_max":838,"o":"m 15 422 q 14 472 21 447 q 3 521 7 496 q 1 576 -1 549 q 4 631 3 603 q 4 692 6 663 q 7 753 3 722 q 15 799 10 776 q 18 846 21 821 q 17 901 15 876 q 46 944 19 926 q 63 960 53 950 q 81 972 74 969 q 113 973 93 978 q 146 967 132 968 q 176 965 163 965 q 204 972 189 965 q 260 995 232 983 q 318 1004 288 1007 q 362 978 349 1001 q 377 926 375 956 q 374 865 379 896 q 364 815 368 833 q 355 788 361 801 q 346 760 349 774 q 348 727 342 739 q 365 699 354 715 q 378 666 376 682 q 377 635 379 650 q 373 603 375 619 q 375 568 371 586 q 383 528 379 546 q 385 488 386 511 q 385 455 383 471 q 386 424 386 439 q 382 393 386 407 q 378 364 378 379 q 394 328 378 340 q 433 326 411 315 q 467 347 456 338 q 486 381 478 357 q 497 414 493 399 q 499 449 501 429 q 494 490 496 469 q 494 531 492 510 q 496 581 497 558 q 490 632 494 604 q 486 665 488 651 q 485 690 485 678 q 488 716 485 703 q 494 747 490 729 q 499 789 500 767 q 496 832 499 811 q 485 873 493 854 q 485 914 478 892 q 501 945 490 932 q 531 964 513 958 q 551 969 542 967 q 571 972 560 972 q 594 966 582 972 q 619 957 607 960 q 669 960 643 953 q 721 967 696 968 q 748 958 739 965 q 762 939 757 950 q 769 913 767 928 q 776 885 772 899 q 787 846 783 865 q 793 806 790 826 q 803 740 799 767 q 822 676 807 714 q 835 594 838 636 q 833 508 833 551 q 835 476 833 493 q 833 443 836 458 l 833 442 q 823 391 831 415 q 818 339 815 367 q 822 295 821 317 q 821 250 822 274 q 772 49 815 146 q 742 10 763 26 q 704 -22 722 -7 q 690 -35 697 -29 q 681 -50 683 -40 q 678 -71 676 -60 q 676 -92 679 -82 q 665 -108 672 -103 q 648 -116 657 -112 q 630 -124 639 -119 q 615 -136 621 -128 q 606 -173 607 -147 q 606 -225 606 -199 q 600 -271 606 -251 q 576 -290 594 -290 q 553 -280 560 -290 q 544 -256 546 -269 q 546 -228 543 -242 q 551 -206 549 -214 q 555 -147 561 -179 q 531 -92 549 -114 q 515 -68 522 -81 q 507 -42 508 -56 q 503 -24 506 -33 q 497 -9 501 -15 q 486 -2 493 -3 q 468 -10 479 -1 q 450 -35 457 -17 q 442 -67 443 -54 q 442 -119 439 -93 q 442 -171 446 -144 q 425 -269 435 -219 q 418 -368 415 -319 q 421 -393 419 -382 q 422 -418 422 -404 q 407 -442 422 -436 q 379 -433 392 -449 q 364 -394 365 -417 q 367 -347 363 -372 q 375 -298 371 -322 q 378 -254 379 -274 q 371 -213 375 -233 q 364 -174 367 -193 q 357 -141 363 -158 q 354 -108 351 -124 q 358 -83 356 -101 q 360 -48 361 -65 q 351 -19 358 -31 q 325 -14 343 -8 q 310 -28 318 -17 q 300 -46 303 -39 q 298 -70 296 -57 q 294 -94 300 -83 q 276 -124 283 -115 q 267 -157 269 -133 q 261 -202 265 -181 q 257 -246 257 -224 q 256 -267 257 -251 q 252 -296 256 -282 q 241 -317 249 -310 q 221 -314 233 -325 q 213 -296 214 -308 q 212 -269 211 -283 q 214 -240 213 -254 q 214 -218 215 -226 q 208 -197 211 -207 q 197 -176 204 -186 q 182 -161 190 -168 q 169 -144 174 -154 q 165 -122 165 -132 q 166 -101 165 -111 q 167 -79 167 -90 q 163 -57 167 -68 q 139 -18 154 -33 q 108 17 124 -3 q 95 40 100 28 q 83 64 90 51 q 60 103 72 83 q 43 143 49 124 q 38 181 39 163 q 32 218 36 199 q 17 287 25 253 q 6 357 8 321 q 8 390 4 376 q 15 422 11 403 z "},"V":{"ha":892,"x_min":0,"x_max":892,"o":"m 132 422 q 122 482 122 453 q 111 539 122 511 q 106 558 107 549 q 101 578 104 567 q 58 709 82 644 q 18 842 33 774 q 8 866 15 854 q 0 892 0 878 q 17 928 0 915 q 57 946 35 940 q 83 947 69 949 q 108 949 96 946 q 133 955 121 951 q 158 961 146 958 q 212 974 181 967 q 265 976 243 982 q 297 959 283 971 q 322 931 311 947 q 340 899 332 915 q 354 867 347 882 q 374 824 365 844 q 386 778 382 803 q 411 668 396 722 q 444 561 426 614 q 455 549 450 544 q 465 565 460 553 q 473 591 469 576 q 478 611 476 606 q 485 669 483 635 q 497 728 488 704 q 515 769 506 749 q 532 813 525 790 q 544 860 539 836 q 558 908 549 885 q 576 951 567 929 q 604 986 586 972 q 651 995 625 1000 q 700 985 678 990 q 743 972 719 979 q 790 955 767 965 q 832 932 813 944 q 863 903 851 919 q 881 881 872 890 q 890 857 889 872 q 888 831 892 843 q 879 808 883 819 q 854 712 865 767 q 832 615 843 657 q 821 575 826 596 q 808 535 815 554 q 803 505 804 519 q 799 476 803 490 q 776 415 788 444 q 754 356 764 386 q 747 321 749 339 q 743 285 746 303 q 735 254 740 269 q 728 224 731 239 q 705 131 719 174 q 669 40 690 88 q 651 -22 656 10 q 643 -85 646 -53 q 641 -153 640 -119 q 642 -219 642 -186 q 642 -242 642 -228 q 643 -269 643 -256 q 641 -296 643 -283 q 632 -314 639 -308 q 611 -323 619 -326 q 598 -309 603 -319 q 590 -285 593 -299 q 588 -264 588 -272 q 591 -204 588 -235 q 588 -143 594 -174 q 579 -105 583 -124 q 564 -71 575 -86 q 545 -38 553 -53 q 536 -4 538 -24 q 537 19 535 7 q 525 32 539 32 q 499 19 514 32 q 485 11 492 14 q 472 6 479 8 q 433 0 453 0 q 394 -1 414 0 q 363 -3 378 -3 q 340 -21 347 -4 q 332 -42 336 -32 q 322 -61 328 -51 q 305 -108 308 -85 q 300 -158 301 -131 q 299 -175 300 -165 q 294 -192 297 -185 q 283 -202 290 -199 q 267 -201 276 -206 q 247 -178 253 -196 q 242 -147 242 -161 q 235 -114 242 -129 q 229 -91 231 -103 q 227 -67 228 -79 q 224 -42 226 -54 q 215 -21 222 -31 q 190 35 196 7 q 181 92 183 63 q 177 150 179 121 q 165 210 175 179 q 156 265 156 238 q 154 324 157 293 q 146 373 151 347 q 132 422 140 399 z "},"W":{"ha":1206,"x_min":-1,"x_max":1207,"o":"m 107 386 q 91 440 92 417 q 89 499 90 464 q 76 553 86 529 q 64 608 67 576 q 62 660 61 632 q 54 710 63 688 q 38 742 47 726 q 19 774 28 758 q 5 808 11 790 q 1 844 -1 825 q 37 909 7 892 q 106 940 67 926 q 149 963 128 949 q 194 987 171 976 q 240 1000 217 997 q 288 989 263 1003 q 316 960 306 978 q 332 924 326 943 q 347 884 339 904 q 360 843 354 864 q 365 795 365 818 q 379 749 365 772 q 392 712 390 729 q 393 671 393 694 q 394 649 393 665 q 399 615 396 632 q 410 588 403 599 q 428 581 417 576 q 439 597 436 585 q 443 615 442 608 q 451 647 446 631 q 463 675 456 663 q 478 708 472 693 q 492 733 485 722 q 513 751 500 744 q 549 761 525 758 q 618 756 585 765 q 678 719 651 747 q 692 698 683 713 q 709 667 700 683 q 727 639 718 651 q 744 624 736 626 q 772 629 761 618 q 790 658 783 640 q 799 695 796 676 q 803 724 801 714 q 806 757 806 740 q 813 789 807 774 q 825 815 817 803 q 840 839 833 826 q 848 865 846 850 q 850 892 850 879 q 872 969 850 932 q 892 989 879 981 q 919 1000 906 997 q 936 1003 928 1001 q 953 1004 944 1004 q 974 1001 964 1004 q 996 999 985 999 q 1016 995 1007 999 q 1036 986 1025 992 q 1075 965 1056 976 q 1114 942 1094 953 q 1140 927 1126 935 q 1167 910 1154 919 q 1191 889 1181 901 q 1204 861 1201 876 q 1202 825 1207 844 q 1189 785 1197 806 q 1172 747 1181 765 q 1158 711 1163 728 q 1140 661 1151 686 q 1125 610 1129 636 q 1124 563 1121 586 q 1122 515 1126 539 q 1099 460 1117 485 q 1076 403 1081 436 q 1059 324 1071 363 q 1036 247 1047 286 q 1025 205 1029 226 q 1018 161 1021 183 q 1007 98 1015 128 q 988 40 999 68 q 965 -15 978 13 q 942 -74 953 -43 q 915 -190 921 -126 q 901 -310 908 -253 q 891 -410 896 -358 q 881 -510 886 -461 q 879 -531 879 -518 q 877 -558 879 -544 q 869 -581 875 -571 q 853 -594 864 -592 q 830 -593 838 -599 q 818 -577 822 -587 q 814 -554 814 -567 q 814 -531 814 -542 q 824 -444 817 -487 q 822 -356 831 -400 q 807 -316 818 -335 q 783 -280 796 -297 q 760 -244 771 -262 q 747 -206 750 -226 q 742 -166 743 -181 q 738 -141 742 -151 q 724 -122 733 -131 q 693 -97 714 -112 q 667 -66 675 -85 q 656 -27 660 -47 q 649 13 653 -7 q 632 50 644 33 q 594 72 611 79 q 565 42 578 64 q 540 -7 551 19 q 518 -43 528 -33 q 485 -62 503 -57 q 451 -71 468 -67 q 419 -84 433 -75 q 396 -115 404 -93 q 388 -161 389 -136 q 388 -212 386 -186 q 393 -265 390 -239 q 399 -311 396 -290 q 404 -346 400 -322 q 410 -394 408 -369 q 406 -438 411 -418 q 385 -464 401 -458 q 356 -456 367 -469 q 340 -416 346 -442 q 332 -358 333 -390 q 330 -295 331 -325 q 329 -242 329 -265 q 328 -210 329 -218 q 315 -174 324 -190 q 297 -141 306 -157 q 278 -108 288 -125 q 264 -72 269 -92 q 232 -5 253 -36 q 194 61 211 26 q 167 141 175 100 q 151 224 158 182 q 135 306 144 265 q 107 386 126 347 z "},"X":{"ha":860,"x_min":0,"x_max":863,"o":"m 251 511 q 238 531 249 521 q 221 549 228 542 q 167 628 188 589 q 116 717 143 672 q 57 801 89 763 q 17 861 33 829 q 0 929 0 893 q 9 989 0 964 q 60 1014 18 1014 q 86 1014 72 1014 q 111 1011 100 1014 q 133 1003 124 1008 q 153 997 142 999 q 210 997 183 994 q 257 1019 236 1000 q 276 1035 268 1031 q 299 1036 283 1040 q 338 1006 325 1028 q 361 960 350 983 q 371 937 365 951 q 385 908 376 922 q 403 883 393 893 q 425 875 413 872 q 449 900 438 878 q 467 933 460 922 q 486 974 478 953 q 514 1008 494 994 q 542 1022 529 1019 q 572 1024 554 1024 q 605 1016 596 1024 q 631 993 614 1008 q 660 970 644 981 q 694 950 676 960 q 721 944 706 944 q 751 942 736 943 q 781 939 767 942 q 803 925 794 936 q 808 883 814 910 q 797 840 801 857 q 758 728 782 785 q 701 624 733 671 q 685 605 694 614 q 669 586 676 596 q 658 565 661 576 q 658 540 654 554 q 676 505 665 522 q 697 472 686 488 q 716 438 708 456 q 731 403 724 421 q 756 363 740 379 q 775 325 771 347 q 793 274 781 294 q 824 229 806 253 q 849 187 843 206 q 856 138 856 168 q 859 85 856 110 q 850 32 863 60 q 833 11 843 19 q 810 -4 822 3 q 787 -18 799 -11 q 765 -35 775 -25 q 745 -69 753 -50 q 731 -107 738 -89 q 725 -148 724 -126 q 722 -190 726 -169 q 706 -240 717 -218 q 696 -292 696 -262 q 697 -345 696 -318 q 696 -399 697 -372 q 683 -433 694 -417 q 653 -433 672 -449 q 639 -394 635 -419 q 646 -351 643 -369 q 651 -227 657 -290 q 639 -104 646 -164 q 635 -59 636 -82 q 619 -17 635 -36 q 609 -6 614 -10 q 594 -3 604 -1 q 581 -12 583 -6 q 568 -24 579 -18 q 551 -25 556 -29 q 544 -11 546 -21 q 541 9 542 -1 q 539 26 540 19 q 518 70 532 50 q 492 111 504 90 q 482 135 485 122 q 472 158 479 147 q 442 190 461 181 q 411 172 424 200 q 385 120 399 144 q 354 69 371 96 q 342 44 347 58 q 335 19 338 31 q 333 -3 333 13 q 329 -36 332 -19 q 321 -65 326 -53 q 304 -75 315 -76 q 290 -65 294 -75 q 281 -40 285 -54 q 274 -13 278 -26 q 263 6 269 0 q 244 8 250 15 q 225 -4 238 1 q 192 -6 210 -11 q 158 -7 175 0 q 138 -24 147 -11 q 124 -47 129 -36 q 112 -102 113 -74 q 96 -156 111 -131 q 85 -168 92 -162 q 67 -168 78 -174 q 54 -153 56 -162 q 51 -131 53 -143 q 42 -74 49 -103 q 28 -17 35 -44 q 19 8 25 -4 q 11 32 14 21 q 9 99 3 64 q 28 164 15 135 q 35 181 31 172 q 46 197 40 189 q 69 232 58 215 q 93 265 79 249 q 135 313 113 290 q 175 360 157 335 q 190 385 183 371 q 204 410 196 399 q 222 433 213 422 q 238 460 231 444 q 248 485 242 471 q 251 511 254 500 z "},"Y":{"ha":914,"x_min":-3,"x_max":915,"o":"m 301 344 q 295 369 301 360 q 281 390 289 379 q 253 440 264 413 q 225 489 243 467 q 197 522 211 506 q 169 557 182 539 q 141 609 153 582 q 114 663 129 636 q 56 744 89 706 q 4 831 22 783 q 6 864 -3 849 q 31 892 14 879 q 72 915 49 904 q 119 933 96 925 q 163 947 143 942 q 194 957 183 953 q 228 978 211 964 q 264 989 244 992 q 299 976 282 986 q 330 951 315 965 q 356 919 344 936 q 376 889 368 903 q 389 859 382 878 q 405 826 396 840 q 426 807 414 811 q 456 822 439 803 q 508 896 488 856 q 551 976 528 936 q 605 1013 571 1011 q 674 1008 639 1015 q 709 998 693 1004 q 744 989 725 992 q 813 971 785 982 q 871 928 840 960 q 896 906 882 917 q 913 878 910 894 q 897 840 915 854 q 865 811 879 826 q 840 774 850 794 q 814 736 829 754 q 796 706 803 721 q 782 672 789 690 q 769 647 776 657 q 751 626 763 638 q 708 578 729 603 q 665 529 686 553 q 638 502 654 515 q 614 474 621 489 q 599 443 607 458 q 594 411 592 428 q 598 381 596 396 q 600 349 600 365 q 599 310 600 329 q 600 271 597 290 q 610 225 603 247 q 621 178 618 203 q 616 133 622 154 q 614 88 610 111 q 623 44 617 65 q 636 -1 629 22 q 638 -7 638 -4 q 639 -12 638 -10 q 632 -127 649 -71 q 589 -235 615 -183 q 572 -269 579 -253 q 558 -306 564 -285 q 549 -345 553 -325 q 546 -385 546 -365 q 545 -405 546 -396 q 544 -425 544 -414 q 549 -463 544 -444 q 550 -501 553 -482 q 530 -523 546 -525 q 508 -499 514 -521 q 502 -461 504 -479 q 497 -424 500 -443 q 490 -403 494 -412 q 481 -382 485 -393 q 467 -342 472 -362 q 456 -300 463 -321 q 436 -271 449 -281 q 417 -242 424 -261 q 414 -225 414 -235 q 407 -210 414 -215 q 386 -205 397 -201 q 364 -215 375 -208 q 340 -225 353 -221 q 317 -222 328 -229 q 301 -205 307 -217 q 294 -180 296 -193 q 292 -153 292 -167 q 294 -129 292 -139 q 299 -52 303 -89 q 299 25 296 -15 q 308 92 301 60 q 314 160 314 125 q 313 205 314 183 q 308 250 313 226 q 302 272 306 261 q 299 294 299 282 q 300 320 299 308 q 301 344 301 332 z "},"Z":{"ha":857,"x_min":-1,"x_max":861,"o":"m 103 663 q 78 799 96 733 q 36 932 60 864 q 35 956 31 947 q 48 969 39 964 q 68 978 57 974 q 89 992 79 983 q 107 1010 99 1001 q 124 1024 115 1018 q 142 1033 132 1031 q 168 1035 153 1036 q 202 1028 186 1032 q 236 1021 218 1024 q 258 1021 249 1018 q 281 1026 267 1024 q 341 1031 310 1033 q 403 1028 372 1029 q 433 1022 419 1026 q 461 1015 446 1018 q 533 1014 493 1008 q 604 1029 574 1019 q 655 1035 633 1038 q 699 1014 676 1033 q 730 980 719 994 q 751 939 740 965 q 775 887 763 911 q 796 835 788 863 q 806 765 806 801 q 792 696 807 728 q 743 627 772 658 q 690 561 714 596 q 669 528 679 546 q 646 494 658 510 q 620 467 632 479 q 597 439 608 454 q 578 412 589 425 q 558 386 567 399 q 537 363 549 372 q 514 342 525 354 q 506 327 507 332 q 510 320 506 322 q 522 318 514 318 q 538 318 529 318 q 626 327 582 318 q 714 335 671 336 q 747 324 732 335 q 773 297 761 313 q 794 263 785 281 q 813 232 804 246 q 835 170 829 204 q 843 104 842 136 q 853 47 844 78 q 854 -10 861 17 q 813 -58 844 -46 q 741 -74 781 -69 q 663 -83 701 -78 q 603 -110 625 -87 q 587 -135 592 -121 q 581 -164 582 -149 q 580 -194 579 -179 q 579 -224 581 -210 q 575 -262 576 -243 q 576 -303 574 -282 q 577 -328 579 -318 q 558 -340 575 -337 q 534 -333 539 -343 q 528 -307 529 -324 q 527 -270 526 -287 q 524 -235 528 -253 q 511 -192 519 -212 q 499 -149 503 -171 q 493 -123 496 -135 q 488 -97 490 -111 q 486 -72 486 -86 q 481 -44 486 -57 q 465 -25 476 -35 q 442 -17 454 -15 q 413 -31 425 -18 q 394 -62 401 -44 q 383 -99 386 -81 q 383 -131 381 -118 q 390 -162 386 -149 q 394 -196 394 -176 q 392 -231 394 -214 q 388 -267 390 -249 q 384 -324 385 -296 q 381 -381 383 -351 q 381 -404 381 -392 q 382 -428 382 -417 q 378 -448 382 -439 q 367 -462 375 -457 q 344 -462 351 -474 q 336 -433 338 -450 q 333 -405 335 -418 q 329 -376 332 -392 q 326 -301 324 -339 q 321 -224 329 -264 q 306 -174 315 -199 q 296 -122 296 -149 q 293 -70 296 -100 q 275 -24 290 -40 q 255 -12 264 -11 q 237 -17 246 -12 q 218 -28 228 -22 q 197 -29 208 -33 q 179 -18 186 -25 q 157 -14 172 -11 q 130 -34 133 -18 q 118 -68 126 -50 q 99 -83 108 -87 q 83 -62 90 -78 q 71 -29 75 -47 q 65 -4 67 -11 q 57 18 63 14 q 42 35 51 22 q 15 81 26 56 q 1 131 4 106 q 7 181 -1 157 q 38 225 15 206 q 68 250 53 239 q 98 272 83 261 q 126 294 113 282 q 150 325 139 307 q 192 400 175 363 q 247 467 210 438 q 314 521 282 493 q 375 581 346 549 q 394 606 382 589 q 417 642 407 622 q 433 681 428 663 q 431 713 439 700 q 400 721 419 729 q 369 701 381 713 l 364 696 q 355 679 357 688 q 350 664 353 671 q 342 652 347 657 q 326 646 338 647 q 299 652 308 643 q 283 671 290 661 q 265 685 275 681 q 235 682 254 690 q 213 667 222 676 q 197 646 204 657 q 181 624 189 635 q 163 607 172 614 q 138 599 149 596 q 119 613 126 603 q 108 638 113 624 q 103 663 104 651 z "},"[":{"ha":343,"x_min":-1,"x_max":343,"o":"m 13 404 q 10 532 13 469 q 7 660 7 594 q 10 776 7 719 q 4 889 14 833 q 2 951 -1 918 q 10 1011 6 983 q 32 1072 14 1046 q 88 1101 50 1099 q 144 1095 118 1103 q 199 1086 169 1088 q 229 1089 214 1085 q 260 1097 244 1093 q 289 1101 275 1101 q 315 1092 303 1101 q 333 1068 329 1081 q 338 1041 338 1056 q 335 1011 338 1026 q 335 979 333 996 q 337 948 336 964 q 335 917 338 932 q 317 890 331 893 q 289 890 304 886 q 258 897 274 893 q 232 888 242 900 q 223 863 222 876 q 222 836 224 850 q 216 772 219 804 q 214 706 213 740 q 219 560 217 632 q 218 415 222 489 q 221 317 215 364 q 226 219 226 269 q 228 197 226 208 q 229 175 229 186 q 226 151 229 163 q 222 126 222 140 q 233 84 222 101 q 269 64 243 67 q 291 63 281 63 q 310 60 301 63 q 325 49 319 57 q 333 28 331 42 q 339 -19 336 4 q 342 -65 342 -42 q 342 -103 342 -83 q 338 -142 343 -124 q 326 -159 332 -157 q 304 -165 319 -161 q 283 -177 290 -169 q 274 -194 276 -185 q 269 -216 271 -204 q 264 -240 267 -228 q 253 -284 258 -262 q 246 -329 249 -306 q 242 -375 243 -353 q 238 -419 240 -397 q 235 -443 236 -428 q 229 -465 235 -458 q 206 -479 217 -482 q 187 -462 196 -476 q 172 -426 178 -447 q 160 -383 165 -404 q 153 -344 156 -361 q 150 -322 150 -326 q 140 -262 147 -293 q 114 -208 133 -232 q 60 -175 93 -185 q 33 -171 44 -172 q 14 -154 22 -169 q 4 -115 3 -135 q 8 -75 6 -96 q 10 -22 11 -49 q 7 32 8 6 q 6 96 4 64 q 8 160 7 128 q 13 404 13 285 z "},"\\":{"ha":632,"x_min":-1,"x_max":636,"o":"m 203 457 q 186 491 193 474 q 169 525 179 508 q 147 574 157 549 q 125 625 136 600 q 82 718 104 672 q 36 810 60 764 q 16 851 26 826 q 2 903 6 876 q 5 952 -1 929 q 36 988 11 975 q 59 995 47 994 q 83 999 71 996 q 124 1012 104 1004 q 167 1014 143 1019 q 213 981 194 1007 q 247 935 232 956 q 279 880 267 908 q 303 822 292 851 q 331 756 315 789 q 360 689 347 724 q 390 606 375 647 q 425 522 406 564 q 458 450 440 486 q 492 378 476 414 q 518 322 504 350 q 543 264 532 293 q 589 172 561 215 q 629 78 617 129 q 628 30 636 51 q 604 -14 619 8 q 592 -36 597 -25 q 578 -58 588 -47 q 559 -76 569 -68 q 544 -99 549 -85 q 537 -140 538 -118 q 532 -182 536 -161 q 531 -190 532 -187 q 524 -208 528 -200 q 518 -228 519 -217 q 515 -252 515 -240 q 513 -276 514 -264 q 513 -299 511 -285 q 515 -329 514 -314 q 513 -357 515 -344 q 504 -374 511 -369 q 483 -379 492 -382 q 469 -368 475 -376 q 460 -348 464 -360 q 457 -325 457 -336 q 460 -262 454 -293 q 458 -199 467 -231 q 451 -149 451 -175 q 444 -99 451 -122 q 415 -33 433 -64 q 383 31 396 -3 q 357 90 372 61 q 332 150 342 118 q 323 182 326 165 q 313 214 319 199 q 272 296 293 256 q 231 379 250 336 q 217 418 222 399 q 203 457 213 438 z "},"]":{"ha":353,"x_min":-1,"x_max":354,"o":"m 132 560 q 133 663 139 611 q 121 767 126 715 q 119 812 118 790 q 118 857 119 833 q 100 887 117 883 q 63 890 83 890 q 26 893 43 889 q 10 925 10 897 q 10 967 10 947 q 8 1008 11 988 q 4 1048 6 1026 q 14 1085 3 1069 q 62 1110 32 1108 q 118 1108 92 1111 q 181 1109 150 1106 q 243 1115 213 1113 q 314 1095 288 1118 q 346 1031 340 1072 q 347 990 349 1010 q 343 950 344 971 q 344 892 342 922 q 343 835 346 863 q 343 685 335 758 q 347 605 347 644 q 343 525 346 565 q 347 451 340 488 q 351 376 354 414 q 344 297 349 336 q 339 217 339 257 q 344 149 339 182 q 350 83 349 117 q 349 26 351 54 q 346 -32 346 -3 q 347 -74 346 -51 q 342 -115 347 -96 q 324 -144 338 -135 q 294 -164 310 -153 q 276 -183 282 -172 q 269 -204 271 -193 q 266 -228 267 -215 q 261 -254 265 -242 q 235 -291 254 -278 q 203 -324 217 -304 q 185 -371 189 -343 q 182 -425 181 -399 q 185 -449 182 -436 q 190 -476 189 -462 q 190 -501 192 -489 q 176 -521 188 -512 q 150 -529 161 -532 q 132 -516 139 -526 q 122 -492 125 -506 q 118 -465 118 -478 q 120 -418 117 -442 q 127 -371 124 -394 q 130 -324 131 -347 q 121 -278 129 -301 q 113 -247 117 -265 q 103 -211 108 -229 q 91 -178 99 -193 q 72 -154 83 -162 q 49 -147 61 -147 q 25 -137 36 -147 q 7 -108 13 -126 q 1 -70 1 -90 q 1 -30 0 -50 q 1 6 1 -10 q 10 49 -1 38 q 51 65 21 61 q 76 68 64 67 q 97 74 88 69 q 113 85 107 78 q 118 110 118 93 q 114 133 118 122 q 113 158 110 144 q 117 206 115 182 q 122 253 119 229 q 121 368 129 313 q 119 464 114 415 q 132 560 125 513 z "},"_":{"ha":490,"x_min":-3,"x_max":490,"o":"m 0 69 q 4 90 0 76 q 8 111 8 104 q 4 138 8 110 q 67 200 -3 192 q 157 200 88 203 q 203 198 186 199 q 226 197 221 197 q 246 197 233 197 q 276 199 258 197 q 307 200 294 200 q 329 200 319 200 q 451 183 428 200 q 464 169 458 179 q 486 117 485 140 q 490 64 490 72 q 464 22 490 49 q 421 4 447 6 q 346 0 381 0 q 315 3 331 0 q 284 5 299 6 q 257 -3 269 4 q 236 -28 244 -10 q 225 -76 225 -51 q 224 -129 225 -101 q 224 -153 224 -139 q 225 -183 225 -168 q 224 -212 225 -199 q 217 -235 222 -226 q 199 -249 208 -247 q 179 -244 189 -250 q 163 -229 169 -239 q 154 -208 156 -219 q 148 -148 147 -178 q 151 -86 149 -118 q 151 -44 153 -67 q 135 -6 149 -21 q 115 5 126 3 q 90 7 103 7 q 65 6 78 7 q 42 8 53 6 q 15 33 29 11 q 0 69 0 57 z "},"`":{"ha":275,"x_min":-1,"x_max":278,"o":"m 10 928 q 1 960 3 943 q 8 992 -1 976 q 33 1012 19 1008 q 63 1019 46 1015 q 100 1026 82 1024 q 138 1018 118 1029 q 191 973 167 1003 q 229 914 215 943 q 242 882 236 899 q 256 850 249 865 q 265 831 260 840 q 272 813 269 822 q 269 776 278 790 q 253 743 261 761 q 246 711 246 729 l 246 608 q 247 578 246 593 q 244 547 247 563 q 239 529 242 536 q 238 524 238 526 q 235 519 238 522 q 226 515 233 515 q 211 518 217 513 q 207 526 208 521 q 204 535 206 531 q 202 563 201 549 q 201 590 203 576 q 197 621 199 606 q 196 651 196 636 q 197 690 196 671 q 190 728 197 708 q 172 756 183 744 q 146 779 160 768 q 117 798 133 789 q 86 817 101 807 q 58 840 71 828 q 36 867 44 851 q 23 897 29 882 q 10 928 17 913 z "},"a":{"ha":1010,"x_min":-3,"x_max":1011,"o":"m 143 467 q 178 581 154 528 q 222 692 203 633 q 244 761 233 726 q 267 831 256 796 q 274 865 271 847 q 279 899 276 882 q 288 931 282 915 q 306 961 294 947 q 347 988 324 983 q 393 988 369 992 q 442 976 417 983 q 493 967 468 968 q 542 972 518 964 q 585 982 565 979 q 622 976 606 985 q 651 933 639 968 q 664 881 660 907 q 672 828 668 854 q 680 776 675 803 q 696 724 685 750 q 741 630 715 675 q 796 541 767 585 q 854 454 825 497 q 910 365 883 411 q 942 306 926 336 q 969 244 957 276 q 983 207 976 225 q 993 169 989 189 q 997 151 996 160 q 1000 132 997 142 q 1004 117 1001 125 q 1008 103 1007 110 q 1008 64 1011 83 q 1001 49 1006 54 q 992 36 997 44 q 983 10 985 24 q 972 -18 981 -4 q 956 -39 965 -29 q 935 -56 946 -49 q 899 -80 915 -67 q 863 -104 882 -93 q 833 -128 843 -115 q 817 -162 824 -142 q 808 -203 810 -182 q 808 -247 807 -225 q 810 -290 810 -268 q 804 -332 810 -311 q 799 -380 797 -358 q 807 -425 800 -401 q 813 -464 811 -440 q 803 -499 814 -487 q 784 -506 796 -504 q 765 -504 772 -508 q 751 -485 757 -500 q 743 -462 746 -471 q 733 -417 733 -439 q 733 -369 733 -394 q 731 -326 733 -347 q 722 -285 729 -306 q 714 -235 714 -261 q 718 -185 714 -210 q 721 -133 724 -158 q 715 -82 718 -108 q 710 -53 713 -67 q 701 -28 708 -40 q 683 1 694 -12 q 660 28 671 15 q 633 61 647 40 q 601 115 614 88 q 579 175 589 143 q 574 201 575 188 q 572 230 574 215 q 567 257 569 244 q 556 279 564 269 q 511 297 535 306 q 468 267 488 288 q 440 226 453 249 q 416 178 428 203 q 394 131 404 154 q 371 88 383 107 q 338 42 356 64 q 296 6 319 21 q 273 -7 285 -1 q 250 -18 261 -12 q 219 -40 232 -25 q 190 -67 206 -56 q 172 -97 175 -78 q 163 -133 168 -115 q 158 -165 158 -149 q 160 -197 158 -181 q 165 -230 163 -214 q 165 -261 167 -246 q 158 -308 164 -286 q 149 -354 151 -331 q 146 -410 146 -382 q 151 -464 146 -437 q 158 -503 154 -482 q 157 -544 161 -525 q 151 -558 156 -549 q 142 -571 147 -568 q 125 -566 133 -575 q 114 -550 117 -557 q 113 -533 111 -543 q 114 -514 114 -522 q 113 -497 114 -506 q 108 -478 111 -487 q 104 -417 103 -447 q 108 -358 106 -387 q 109 -298 110 -328 q 99 -239 108 -268 q 87 -209 93 -224 q 74 -179 81 -194 q 63 -127 63 -154 q 56 -72 63 -100 q 44 -50 51 -60 q 28 -31 36 -40 q 13 -12 19 -22 q 3 13 6 -1 q 2 68 -3 39 q 17 126 7 97 q 39 183 26 156 q 63 235 51 210 q 110 348 89 293 q 143 467 132 403 m 456 547 q 474 519 456 526 q 507 528 493 511 q 515 547 514 536 q 515 568 517 557 q 510 584 514 575 q 501 601 507 593 q 488 611 496 608 q 471 607 481 614 q 464 597 467 604 q 459 579 461 589 q 456 560 457 569 q 456 547 456 551 z "},"b":{"ha":807,"x_min":-3,"x_max":807,"o":"m 15 506 q 7 672 7 589 q 8 765 7 715 q 18 859 8 814 q 52 940 28 904 q 122 996 76 976 q 142 1001 133 1000 q 161 1001 150 1001 q 182 1003 172 1001 q 203 1008 192 1006 q 245 1015 222 1014 q 288 1013 268 1015 q 310 1008 299 1011 q 332 1001 321 1004 q 381 997 356 996 q 429 999 406 999 q 488 1004 458 999 q 546 1007 517 1010 q 631 992 590 1004 q 703 947 671 979 q 752 878 733 918 q 786 800 771 839 q 797 715 801 760 q 779 631 793 671 q 763 594 772 611 q 743 560 753 576 q 733 548 739 553 q 720 538 726 543 q 710 527 714 533 q 708 511 706 521 q 726 483 711 497 q 750 458 740 469 q 772 420 763 442 q 790 379 782 399 q 801 339 797 361 q 806 297 804 317 q 804 274 807 286 q 799 250 801 261 l 799 247 q 794 219 797 232 q 786 192 790 206 q 751 129 776 158 q 734 111 744 119 q 715 93 724 103 q 700 70 707 82 q 686 47 693 58 q 651 13 671 25 q 606 -8 631 1 q 545 -59 565 -24 q 514 -133 525 -94 q 506 -169 508 -151 q 500 -204 504 -186 q 489 -242 496 -224 q 475 -279 482 -261 q 459 -322 467 -301 q 447 -365 451 -342 q 442 -426 440 -394 q 444 -489 444 -457 q 443 -531 444 -507 q 422 -561 442 -554 q 406 -560 411 -565 q 398 -545 400 -554 q 396 -525 396 -536 q 396 -507 396 -514 q 389 -439 399 -471 q 379 -371 379 -407 q 381 -333 379 -351 q 385 -294 383 -314 q 386 -250 386 -274 q 379 -207 386 -226 q 361 -178 374 -189 q 338 -153 349 -167 q 322 -117 326 -137 q 304 -82 317 -97 q 286 -73 296 -74 q 266 -76 276 -72 q 247 -88 256 -81 q 232 -103 238 -96 q 220 -143 219 -121 q 214 -185 221 -165 q 206 -212 210 -199 q 203 -240 203 -225 q 203 -262 203 -251 q 192 -279 203 -272 q 172 -285 181 -287 q 159 -274 164 -282 q 151 -255 154 -265 q 146 -236 147 -244 q 139 -213 143 -225 q 133 -189 135 -201 q 134 -159 132 -174 q 135 -129 136 -144 q 126 -67 132 -99 q 97 -14 121 -35 q 71 6 85 -3 q 44 24 57 15 q 22 46 32 33 q 7 75 13 58 q 2 140 -3 107 q 10 204 7 172 q 19 292 14 249 q 25 379 25 335 q 22 442 25 411 q 15 506 18 474 m 379 276 q 400 237 382 253 q 444 228 418 221 q 460 238 456 231 q 463 254 464 244 q 458 274 461 264 q 451 292 454 283 q 439 322 447 303 q 415 343 431 340 q 396 339 403 346 q 385 320 389 332 q 379 297 381 308 q 379 276 378 285 m 371 664 q 385 625 372 644 q 421 617 399 606 q 432 629 428 621 q 438 648 436 638 q 441 669 440 658 q 440 686 442 679 q 435 705 439 694 q 426 724 432 715 q 412 736 421 732 q 392 738 403 740 q 378 726 381 735 q 372 706 375 717 q 371 692 371 699 q 371 678 371 685 l 371 664 z "},"c":{"ha":889,"x_min":-1,"x_max":890,"o":"m 4 529 q 8 569 7 549 q 11 608 8 589 q 22 666 15 636 q 38 724 28 696 q 58 763 44 744 q 86 800 72 782 q 101 824 94 811 q 115 847 108 836 q 133 864 122 858 q 154 876 143 869 q 172 891 165 882 q 188 908 178 900 q 224 935 204 924 q 257 963 243 946 q 283 989 269 978 q 315 1008 296 1000 q 391 1031 351 1025 q 471 1038 431 1038 q 492 1040 482 1038 q 514 1042 503 1042 q 560 1035 535 1042 q 599 1022 579 1029 q 638 1010 618 1014 q 670 1007 654 1007 q 702 1006 686 1007 q 733 1000 718 1004 q 760 983 747 996 q 787 954 775 969 q 810 922 799 939 q 836 888 822 904 q 863 851 850 871 q 885 775 885 819 q 880 733 885 753 q 872 690 875 713 q 869 665 871 678 q 867 639 868 651 q 865 600 865 619 q 865 561 865 581 q 864 526 865 544 q 843 501 863 508 q 826 503 832 499 q 813 514 819 507 q 797 528 806 522 q 775 536 788 533 q 723 527 747 540 q 682 494 699 514 q 669 478 675 488 q 653 464 663 468 q 624 464 636 457 q 600 482 611 471 q 578 505 589 493 q 551 518 567 517 q 532 516 540 519 q 514 510 524 513 q 494 506 503 507 q 476 499 486 506 q 464 486 469 493 q 451 472 458 479 q 431 422 431 451 q 444 369 431 393 q 482 333 457 344 q 536 336 507 322 q 556 358 551 343 q 571 383 560 372 q 597 394 585 396 q 626 393 610 393 q 640 395 633 393 q 653 399 646 397 q 700 395 678 401 q 746 385 722 389 q 786 390 768 382 q 826 392 804 397 q 866 369 847 386 q 888 329 885 353 q 876 273 890 300 q 854 218 861 246 q 849 171 849 197 q 851 146 849 158 q 851 121 853 133 q 842 83 850 101 q 821 50 833 65 q 794 24 810 36 q 771 -4 779 11 q 762 -37 763 -19 q 757 -69 761 -54 q 751 -114 751 -93 q 754 -158 751 -135 q 756 -204 757 -181 q 739 -246 754 -228 q 708 -256 726 -262 q 685 -232 689 -250 q 683 -181 678 -208 q 683 -129 689 -154 q 675 -111 682 -121 q 658 -93 668 -101 q 636 -80 647 -85 q 615 -78 625 -75 q 590 -89 601 -81 q 565 -103 579 -97 q 542 -110 553 -107 q 521 -124 532 -112 q 501 -167 504 -142 q 486 -212 497 -192 q 472 -230 481 -222 q 455 -240 464 -237 q 437 -240 446 -243 q 422 -224 428 -236 q 412 -179 413 -203 q 404 -133 411 -156 q 381 -83 394 -107 q 336 -57 368 -60 q 296 -69 310 -54 q 271 -104 282 -85 q 260 -124 267 -114 q 245 -139 253 -133 q 228 -144 238 -144 q 210 -132 219 -143 q 194 -90 194 -114 q 188 -44 193 -65 q 165 5 179 -17 q 135 50 150 26 q 99 112 117 81 q 64 175 82 143 q 46 217 53 194 q 32 263 39 240 q 16 312 24 289 q 6 363 8 335 q 0 446 1 404 q 4 529 -1 488 z "},"d":{"ha":794,"x_min":0,"x_max":794,"o":"m 24 525 q 10 580 19 554 q 1 633 1 606 q 1 669 1 651 q 4 704 0 688 q 8 745 8 725 q 13 786 8 765 q 19 825 15 806 q 21 864 24 844 q 11 913 18 890 q 8 964 4 936 q 27 1002 13 989 q 65 1021 42 1015 q 157 1025 111 1031 q 249 1017 203 1019 q 289 1017 268 1015 q 329 1011 310 1018 q 369 994 350 1004 q 411 981 388 983 q 455 969 435 976 q 497 949 475 963 q 570 909 533 926 q 646 875 607 892 q 681 849 669 864 q 703 811 693 833 q 737 742 718 775 q 767 672 756 710 q 776 639 771 656 q 785 606 782 622 q 787 580 788 593 q 788 554 786 567 q 792 525 790 539 q 794 496 794 511 q 785 422 794 456 q 761 346 774 385 q 728 274 749 307 q 700 239 715 254 q 667 208 685 224 q 647 190 656 199 q 629 169 639 181 q 611 144 621 161 q 587 97 597 121 q 558 51 576 72 q 537 33 547 40 q 514 17 526 25 q 479 -8 494 4 q 456 -43 464 -21 q 446 -83 449 -62 q 440 -123 443 -103 q 433 -162 438 -143 q 415 -199 428 -181 q 391 -251 397 -224 q 384 -308 385 -279 q 386 -367 383 -337 q 389 -425 389 -396 q 383 -453 389 -437 q 357 -460 376 -468 q 342 -439 343 -453 q 339 -414 342 -425 q 333 -381 333 -396 q 332 -347 332 -365 q 335 -235 332 -290 q 339 -125 339 -181 q 340 -106 339 -117 q 340 -85 340 -96 q 335 -66 339 -75 q 322 -53 331 -57 q 296 -57 307 -46 q 279 -79 285 -68 q 263 -96 269 -99 q 249 -81 256 -93 q 237 -54 243 -69 q 224 -35 231 -39 q 201 -31 208 -24 q 190 -55 193 -39 q 188 -90 188 -71 q 186 -118 188 -108 q 185 -181 183 -150 q 185 -242 188 -211 q 181 -268 183 -250 q 168 -287 179 -286 q 155 -278 157 -289 q 151 -261 153 -268 q 151 -240 150 -250 q 151 -219 153 -231 q 147 -200 150 -208 q 140 -182 143 -192 q 130 -149 138 -162 q 111 -121 122 -136 q 99 -87 100 -104 q 96 -51 97 -71 q 89 -18 94 -36 q 80 11 83 -3 q 65 36 76 25 q 32 81 43 60 q 17 136 21 103 q 15 176 14 157 q 15 217 15 196 q 14 238 15 228 q 11 260 13 249 q 12 324 8 292 q 19 386 15 356 q 26 456 24 422 q 24 525 28 489 m 322 513 q 322 479 314 492 q 350 460 329 467 q 381 455 363 456 q 410 465 400 454 q 419 498 421 479 q 411 532 418 517 q 392 559 404 547 q 361 565 381 571 q 337 544 346 561 q 322 513 328 526 z "},"e":{"ha":844,"x_min":-1,"x_max":844,"o":"m 22 504 q 26 583 28 543 q 28 663 25 622 q 32 701 29 682 q 38 740 35 721 q 46 808 40 776 q 58 875 51 840 q 62 910 61 893 q 65 944 63 928 q 75 976 68 961 q 97 1004 82 992 q 158 1029 126 1028 q 224 1022 190 1031 q 290 1003 257 1014 q 354 993 324 993 q 430 997 390 993 q 508 1000 469 1000 q 548 1001 528 1000 q 585 997 568 1003 q 608 984 600 992 q 635 974 617 976 q 687 978 654 971 q 751 989 719 985 q 806 988 782 993 q 831 951 829 982 q 832 905 832 928 q 835 858 832 882 q 843 753 842 806 q 829 715 844 733 q 800 682 814 696 q 790 673 794 676 q 776 671 785 669 q 763 678 768 672 q 749 683 757 683 q 721 669 729 683 q 706 640 713 656 q 691 612 700 624 q 661 606 682 600 q 649 617 653 608 q 640 632 644 625 q 631 646 636 640 q 618 658 625 651 q 538 692 586 692 q 499 695 519 692 q 459 701 479 699 q 422 699 439 703 q 392 681 404 694 q 382 649 381 668 q 392 615 383 631 q 420 585 401 594 q 460 573 439 575 q 504 574 482 571 q 544 582 526 578 q 573 590 557 586 q 604 595 589 594 q 633 592 619 596 q 658 576 647 589 q 678 535 674 558 q 681 486 683 511 q 673 437 679 461 q 660 392 667 413 q 655 358 656 376 q 636 338 654 340 q 616 346 625 336 q 598 364 607 356 q 579 374 589 372 q 558 357 569 375 q 553 342 554 350 q 546 329 553 335 q 534 326 539 325 q 524 333 529 328 q 515 344 519 339 q 508 354 511 350 q 484 368 500 365 q 461 354 468 371 q 463 333 458 344 q 471 315 467 322 q 506 283 485 294 q 549 266 526 271 q 597 260 572 261 q 644 261 622 260 q 713 267 679 264 q 782 265 747 271 l 779 265 q 801 246 793 261 q 817 203 811 226 q 826 154 824 179 q 826 104 828 129 q 818 60 825 79 q 758 -10 801 11 q 734 -18 746 -17 q 707 -19 722 -19 q 683 -19 694 -19 q 657 -19 671 -18 q 590 -29 624 -22 q 521 -36 556 -36 q 483 -40 501 -36 q 454 -46 468 -43 q 431 -64 440 -49 q 422 -97 422 -79 q 417 -132 421 -115 q 406 -162 414 -147 q 396 -192 399 -176 q 397 -226 393 -208 q 403 -258 400 -243 q 406 -284 406 -271 q 410 -311 407 -297 q 412 -332 411 -321 q 411 -353 413 -343 q 399 -376 408 -368 q 377 -387 389 -385 q 353 -383 365 -389 q 336 -364 342 -378 q 333 -324 328 -344 q 340 -285 338 -304 q 339 -244 343 -262 q 333 -204 335 -225 q 332 -183 332 -193 q 331 -162 332 -174 q 329 -137 329 -151 q 327 -110 329 -124 q 320 -84 325 -96 q 306 -64 315 -72 q 281 -58 294 -54 q 254 -67 267 -61 q 226 -95 232 -75 q 207 -133 219 -115 q 185 -182 192 -157 q 167 -235 178 -207 q 160 -253 164 -244 q 154 -272 157 -262 q 153 -299 151 -285 q 156 -329 156 -314 q 163 -379 156 -351 q 170 -410 165 -394 q 168 -442 175 -426 q 160 -460 164 -453 q 158 -481 156 -467 q 164 -497 160 -489 q 169 -515 168 -506 q 167 -542 172 -526 q 151 -564 161 -557 q 124 -569 138 -575 q 101 -553 111 -564 q 85 -510 83 -532 q 94 -465 88 -489 q 105 -431 100 -447 q 108 -396 110 -415 q 102 -354 107 -374 q 90 -314 97 -335 q 89 -215 78 -267 q 94 -183 92 -199 q 94 -150 97 -167 q 68 -99 88 -118 q 29 -57 49 -81 q 4 -3 10 -33 q 1 56 -1 26 q 10 95 4 75 q 24 133 17 115 q 34 177 33 157 q 29 221 35 197 q 13 281 22 251 q 3 343 3 311 q 10 424 3 383 q 22 504 17 464 z "},"f":{"ha":769,"x_min":-1,"x_max":769,"o":"m 17 514 q 15 566 13 540 q 21 618 18 592 q 24 713 25 667 q 10 807 22 760 q 6 851 4 828 q 4 896 7 874 q 0 937 1 914 q 10 975 -1 960 q 17 985 14 981 q 28 992 21 989 q 48 999 38 997 q 69 1003 58 1001 q 110 1003 89 1004 q 150 1003 131 1003 q 195 1002 174 1003 q 240 1004 217 1001 q 280 1008 260 1006 q 319 1013 300 1011 q 397 1017 360 1014 q 472 1024 435 1019 q 490 1026 483 1025 q 508 1024 497 1026 q 533 1015 521 1021 q 560 1008 544 1010 q 599 1008 579 1006 q 638 1013 618 1010 q 663 1016 649 1014 q 689 1015 676 1018 q 716 1000 706 1013 q 735 975 726 988 q 747 952 743 961 q 751 928 750 943 q 756 901 753 914 q 761 875 760 889 q 765 854 763 865 q 768 831 767 843 q 767 809 769 819 q 758 789 765 799 q 747 781 753 782 q 733 775 740 779 q 710 757 722 769 q 681 706 685 733 q 677 688 681 699 q 669 670 674 678 q 656 662 664 663 q 639 674 649 661 q 630 691 633 679 q 622 713 626 703 q 611 731 618 724 q 592 738 604 739 q 580 730 583 736 q 574 716 576 724 q 568 701 571 708 q 558 689 565 693 q 540 688 547 682 q 526 703 532 693 q 514 724 519 713 q 503 739 508 735 q 443 757 479 757 q 381 747 407 757 q 361 735 367 742 q 350 718 356 729 q 343 685 343 703 q 353 653 343 668 q 369 638 361 642 q 385 635 376 635 q 404 635 394 635 q 425 632 414 636 q 442 624 435 629 q 460 617 450 618 q 528 613 493 613 q 557 611 543 613 q 586 610 571 610 q 606 613 597 610 q 626 617 615 615 q 658 603 653 618 q 664 568 664 588 q 665 538 664 553 q 664 507 665 522 q 658 481 663 493 q 651 456 654 468 q 647 432 649 444 q 638 411 646 419 q 619 404 629 404 q 599 407 608 404 q 564 401 572 413 q 553 374 556 390 q 547 339 550 357 q 529 313 543 321 q 511 309 518 306 q 500 321 504 313 q 493 339 496 329 q 489 354 490 349 q 469 392 482 376 q 426 408 457 408 q 381 399 403 408 q 349 371 358 390 q 339 324 338 351 q 346 276 340 297 q 353 237 351 257 q 357 197 354 217 q 362 180 358 188 q 368 164 365 172 q 371 145 371 154 q 371 126 371 136 q 372 84 371 106 q 371 43 374 63 q 360 3 367 22 q 349 -36 353 -17 q 339 -122 339 -81 q 346 -207 339 -162 q 352 -249 349 -228 q 357 -290 356 -269 q 357 -313 357 -300 q 354 -338 357 -326 q 343 -358 351 -350 q 318 -364 335 -365 q 298 -355 303 -362 q 293 -337 293 -347 q 296 -315 293 -326 q 299 -296 299 -304 q 295 -260 299 -278 q 294 -224 292 -243 q 299 -197 297 -211 q 296 -169 300 -182 q 289 -142 292 -156 q 285 -114 286 -129 q 274 -80 282 -94 q 244 -56 265 -65 q 224 -49 233 -51 q 207 -42 215 -46 q 185 -14 190 -32 q 178 10 181 -3 q 167 33 176 22 q 130 56 153 47 q 93 43 107 64 q 79 22 86 32 q 54 22 72 13 q 39 42 42 29 q 31 65 36 54 q 22 85 26 75 q 17 107 17 96 q 19 123 17 115 q 18 140 21 131 q 7 186 14 164 q 3 232 0 208 q 9 305 7 268 q 18 378 11 342 q 24 416 21 397 q 26 454 26 435 q 23 484 26 469 q 17 514 19 499 z "},"g":{"ha":954,"x_min":0,"x_max":956,"o":"m 3 422 q 2 497 0 460 q 8 571 4 533 q 16 635 11 603 q 38 697 21 668 q 56 724 46 711 q 72 750 65 736 q 93 796 85 772 q 113 843 101 819 q 188 937 136 899 q 300 981 239 975 q 338 978 319 983 q 375 974 356 972 q 426 981 401 975 q 474 992 450 986 q 519 1004 497 997 q 565 1018 542 1011 q 625 1026 593 1026 q 685 1018 657 1025 q 786 977 738 1004 q 872 911 835 950 q 906 870 892 892 q 931 822 921 849 q 939 786 938 804 q 933 750 940 768 q 915 721 926 735 q 900 692 904 707 q 899 674 897 683 q 899 656 901 664 q 892 644 897 649 q 885 632 888 639 q 877 619 882 626 q 867 606 872 613 q 853 597 861 600 q 838 599 846 594 q 827 613 831 601 q 818 631 824 624 q 778 656 801 651 q 739 652 757 660 q 701 644 721 644 q 685 646 692 644 q 667 642 678 647 q 654 634 660 639 q 642 629 649 629 q 628 636 633 629 q 619 652 624 643 q 611 670 615 661 q 603 685 607 679 q 562 702 589 701 q 515 697 535 703 q 472 677 494 692 q 432 647 449 663 q 402 607 410 628 q 394 558 394 586 q 388 519 394 538 q 376 481 382 500 q 365 442 369 461 q 364 403 361 424 q 392 335 371 367 q 444 285 413 304 q 482 265 463 274 q 521 257 501 256 q 560 262 539 258 q 592 281 581 265 q 598 294 596 286 q 599 311 600 303 q 594 326 599 319 q 582 336 590 333 q 569 333 574 338 q 560 323 564 329 q 552 310 556 317 q 543 299 549 303 q 522 296 531 292 q 508 309 514 300 q 497 330 501 318 q 490 350 493 342 q 485 397 483 374 q 489 444 488 421 q 492 484 490 465 q 513 517 493 503 q 542 533 524 524 q 574 540 560 543 q 590 533 583 538 q 607 526 597 528 q 626 528 618 524 q 646 536 635 533 q 671 538 657 539 q 696 538 685 536 q 717 542 707 539 q 739 547 728 546 q 775 546 758 550 q 810 546 792 542 q 833 551 822 549 q 857 557 844 554 q 878 560 867 558 q 901 560 890 561 q 922 553 913 558 q 936 536 932 547 q 944 501 943 519 q 946 465 946 483 q 948 435 946 450 q 953 406 950 421 q 951 358 956 383 q 940 311 946 332 q 931 297 938 301 q 917 300 925 292 q 912 308 914 303 q 908 319 910 314 q 902 328 906 325 q 892 329 899 331 q 885 323 888 328 q 875 318 882 318 q 867 319 868 318 q 861 325 865 321 q 853 341 856 332 q 839 344 851 350 q 831 330 829 340 q 833 313 832 319 q 840 274 838 292 q 842 235 842 257 q 843 201 842 218 q 842 165 844 183 q 836 151 840 157 q 829 136 832 144 q 822 113 825 125 q 815 89 819 100 q 774 36 801 56 q 744 15 760 26 q 713 -3 728 4 q 690 -8 701 -7 q 668 -14 679 -8 q 619 -48 636 -28 q 583 -97 603 -68 q 563 -142 569 -118 q 553 -192 557 -167 q 549 -242 550 -217 q 544 -292 547 -267 q 539 -368 539 -329 q 542 -444 539 -407 q 543 -490 544 -464 q 522 -524 542 -517 q 491 -512 500 -531 q 481 -475 482 -493 q 482 -431 478 -453 q 486 -386 486 -408 q 488 -337 486 -361 q 488 -289 489 -312 q 488 -260 486 -275 q 489 -232 489 -246 q 486 -204 489 -218 q 475 -178 483 -190 q 463 -160 471 -169 q 447 -147 456 -151 q 431 -146 439 -143 q 419 -164 424 -149 q 417 -193 415 -178 q 418 -222 419 -208 q 403 -250 415 -239 q 374 -250 392 -261 q 363 -237 367 -246 q 358 -217 360 -228 q 357 -197 357 -207 q 357 -179 357 -186 q 362 -135 358 -157 q 358 -93 365 -114 q 339 -64 353 -76 q 313 -40 325 -51 q 278 -36 299 -31 q 238 -62 253 -43 q 221 -107 224 -82 q 219 -158 219 -132 q 224 -208 219 -185 q 229 -272 229 -236 q 224 -303 229 -289 q 217 -332 219 -317 q 216 -357 214 -344 q 218 -382 218 -369 q 210 -419 218 -401 q 181 -440 203 -437 q 149 -430 157 -443 q 147 -397 142 -417 q 153 -379 150 -386 q 157 -361 157 -372 q 162 -297 157 -329 q 163 -233 167 -265 q 156 -187 160 -210 q 146 -143 153 -165 q 117 -80 135 -108 q 90 -15 99 -51 q 88 15 88 0 q 83 43 88 29 q 62 89 76 68 q 40 135 47 110 q 34 168 35 151 q 33 204 33 185 q 30 238 33 221 q 24 271 26 254 q 12 347 18 310 q 3 422 6 385 z "},"h":{"ha":865,"x_min":-1,"x_max":867,"o":"m 21 496 q 24 545 19 521 q 29 593 28 569 q 26 655 31 625 q 21 715 21 685 q 22 758 21 736 q 25 800 22 781 q 35 847 29 826 q 36 894 42 868 q 30 926 33 908 q 26 960 26 943 q 33 992 26 978 q 56 1014 39 1007 q 94 1017 75 1021 q 133 1011 114 1014 q 175 1012 154 1008 q 217 1015 196 1015 q 256 1023 236 1015 q 296 1026 276 1031 q 323 1007 314 1022 q 340 978 332 992 q 349 944 353 957 q 343 907 346 931 q 344 885 342 896 q 347 864 346 875 q 342 819 350 840 q 329 774 333 797 q 333 735 326 754 q 339 697 339 717 q 341 658 339 682 q 358 628 343 635 q 379 625 368 622 q 402 633 390 628 q 426 641 414 638 q 450 642 439 644 q 471 632 461 639 q 493 632 481 625 q 506 651 504 639 q 505 678 507 664 q 501 707 503 693 q 501 732 499 721 q 516 760 507 747 q 528 792 525 774 q 531 824 531 808 q 531 857 531 840 q 524 910 531 885 q 521 961 518 935 q 534 997 522 981 q 565 1013 546 1013 q 585 1010 576 1013 q 604 1006 593 1007 q 635 1009 619 1004 q 664 1019 650 1014 q 803 1014 736 1050 q 838 965 833 997 q 843 900 843 933 q 841 797 843 847 q 833 694 839 747 q 835 604 829 647 q 843 515 840 561 q 840 444 846 479 q 832 374 835 410 q 835 274 829 321 q 853 178 842 228 q 863 107 860 144 q 863 35 867 69 q 854 6 860 19 q 842 -22 849 -8 q 828 -54 835 -39 q 807 -82 821 -69 q 783 -107 794 -93 q 765 -137 771 -121 q 760 -182 758 -158 q 760 -226 763 -206 q 756 -251 757 -239 q 753 -276 756 -264 q 753 -305 750 -293 q 758 -332 756 -317 q 763 -351 760 -339 q 765 -373 765 -362 q 758 -390 764 -383 q 739 -393 753 -397 q 722 -376 726 -389 q 717 -348 718 -364 q 717 -316 717 -332 q 715 -289 718 -300 q 703 -264 713 -276 q 692 -240 694 -251 q 692 -209 688 -225 q 699 -178 697 -193 q 701 -148 700 -164 q 699 -117 701 -132 q 688 -90 696 -103 q 667 -71 681 -78 q 638 -64 654 -64 q 608 -61 622 -64 q 545 -32 571 -53 q 513 28 519 -11 q 508 88 508 58 q 501 144 508 117 q 494 208 493 176 q 492 272 494 239 q 488 298 490 283 q 472 315 486 313 q 461 315 465 317 q 453 308 457 313 q 447 300 450 304 q 440 293 444 296 q 418 290 428 285 q 400 303 408 296 q 382 316 392 311 q 358 314 372 321 q 340 294 346 307 q 333 265 335 281 q 333 234 332 250 q 333 207 333 218 q 333 149 333 176 q 331 93 333 121 q 315 17 326 53 q 275 -53 303 -19 q 244 -91 257 -75 q 225 -135 232 -107 q 219 -159 222 -146 q 214 -185 217 -172 q 203 -208 210 -203 q 183 -221 197 -212 q 147 -256 160 -235 q 128 -301 135 -276 q 120 -377 119 -337 q 122 -453 121 -417 q 129 -491 124 -472 q 122 -524 135 -510 q 98 -537 107 -540 q 84 -521 89 -535 q 78 -485 79 -507 q 76 -440 76 -462 q 76 -397 76 -417 q 76 -368 76 -378 q 69 -311 75 -339 q 53 -257 64 -283 q 43 -204 40 -228 q 47 -149 46 -181 q 43 -109 49 -128 q 30 -72 38 -90 q 15 -33 22 -53 q 6 7 7 -14 q 1 68 3 40 q 4 129 -1 96 q 8 160 7 144 q 13 190 10 175 q 15 224 15 210 q 13 260 14 239 q 15 319 10 290 q 21 378 19 349 q 21 496 22 438 z "},"i":{"ha":364,"x_min":0,"x_max":364,"o":"m 17 432 q 8 530 17 482 q 0 628 0 578 q 6 676 0 653 q 14 725 11 700 q 17 780 17 753 q 18 835 18 807 q 16 887 18 858 q 18 940 14 915 q 35 985 22 965 q 79 1011 49 1004 q 127 1015 103 1017 q 175 1024 151 1013 q 219 1043 199 1035 q 267 1051 239 1051 q 314 1047 292 1051 q 349 1014 336 1042 q 359 965 360 992 q 356 915 358 939 q 349 860 351 888 q 343 804 347 832 q 339 731 338 767 q 344 658 340 694 q 351 586 347 622 q 356 513 356 550 q 351 437 356 475 q 342 361 346 399 q 335 286 338 324 q 339 210 333 249 q 352 150 343 179 q 363 92 361 121 q 357 33 364 63 q 326 -15 350 4 q 301 -33 314 -25 q 274 -49 288 -40 q 249 -67 261 -57 q 228 -92 238 -76 q 208 -141 213 -115 q 204 -194 204 -167 q 200 -253 204 -225 q 196 -312 196 -282 q 199 -381 196 -347 q 203 -449 203 -414 q 208 -496 203 -471 q 203 -540 214 -521 q 178 -552 193 -556 q 154 -536 163 -549 q 145 -499 144 -522 q 144 -461 146 -476 q 146 -403 143 -432 q 151 -346 149 -375 q 156 -292 154 -318 q 156 -239 158 -267 q 153 -194 154 -217 q 140 -151 153 -171 q 126 -138 135 -143 q 109 -128 118 -133 q 93 -116 100 -122 q 83 -97 86 -110 q 84 -71 81 -85 q 82 -46 88 -57 q 58 -20 75 -28 q 29 3 40 -12 q 10 49 14 22 q 4 100 6 76 q 3 173 1 136 q 4 246 4 210 q 10 339 4 293 q 17 432 17 385 z "},"j":{"ha":776,"x_min":-1,"x_max":779,"o":"m 440 721 q 427 776 429 750 q 426 830 425 803 q 431 883 428 857 q 433 939 433 910 q 434 966 433 951 q 438 993 435 981 q 449 1016 442 1006 q 469 1033 456 1026 q 501 1040 485 1040 q 535 1038 518 1040 q 568 1034 551 1036 q 600 1033 585 1032 q 674 1038 633 1036 q 744 1022 714 1039 q 764 999 758 1014 q 769 967 769 985 q 766 932 769 950 q 761 900 763 914 q 749 826 757 861 q 743 751 740 792 q 752 677 746 714 q 758 603 758 640 q 754 542 758 571 q 750 481 750 513 q 753 427 750 454 q 761 372 757 400 q 774 265 769 318 q 764 158 779 211 q 733 92 753 122 q 685 39 713 63 q 651 13 669 26 q 621 -19 632 -1 q 609 -66 611 -36 q 607 -115 607 -96 q 622 -231 607 -172 q 626 -299 631 -265 q 611 -368 621 -333 q 590 -437 601 -403 q 578 -506 579 -471 q 581 -552 576 -529 q 589 -598 585 -575 q 595 -644 593 -621 q 592 -690 597 -668 q 574 -721 586 -711 q 546 -710 563 -731 q 528 -659 531 -690 q 525 -604 525 -628 q 533 -503 525 -553 q 539 -400 542 -453 q 533 -342 538 -371 q 517 -286 528 -314 q 496 -252 508 -267 q 478 -217 483 -237 q 472 -172 471 -192 q 457 -128 472 -151 l 456 -128 q 435 -107 449 -118 q 403 -88 421 -96 q 369 -81 386 -81 q 342 -92 353 -81 q 331 -111 336 -97 q 322 -132 325 -125 q 315 -155 317 -144 q 311 -181 314 -165 q 307 -253 307 -217 q 300 -326 307 -290 q 292 -348 299 -333 q 277 -374 286 -362 q 258 -387 268 -385 q 238 -372 247 -389 q 228 -338 229 -357 q 230 -300 228 -319 q 235 -262 232 -281 q 236 -228 238 -243 q 215 -157 231 -192 q 175 -94 199 -122 q 125 -48 153 -67 q 72 -6 97 -29 q 25 131 13 53 q 29 165 28 150 q 26 200 31 181 q 15 231 24 215 q 3 261 7 246 q 1 292 -1 275 q 9 324 3 308 q 26 353 15 340 q 49 374 36 367 q 80 381 64 382 q 112 376 96 379 q 144 372 128 374 q 175 378 160 369 q 251 358 222 403 q 260 338 257 350 q 265 314 263 326 q 272 291 268 301 q 285 274 276 281 q 309 267 296 265 q 335 263 322 268 q 354 252 344 258 q 373 242 364 246 q 392 241 382 239 q 411 256 401 243 q 422 281 418 265 q 427 314 425 297 q 429 347 429 331 q 431 375 429 363 q 442 460 435 417 q 454 549 450 504 q 457 637 458 593 q 440 721 456 681 z "},"k":{"ha":932,"x_min":0,"x_max":933,"o":"m 17 372 q 12 443 17 408 q 8 514 7 478 q 17 606 11 560 q 25 699 22 653 q 25 795 28 747 q 26 892 22 843 q 30 928 28 911 q 38 960 32 946 q 54 986 43 975 q 85 1004 65 997 q 124 1012 104 1011 q 162 1010 143 1013 q 199 1007 181 1008 q 239 1008 218 1006 q 269 1017 256 1010 q 297 1028 283 1024 q 325 1031 311 1032 q 354 1015 339 1029 q 371 988 369 1000 q 375 956 372 976 q 383 919 378 936 q 386 878 389 901 q 377 845 383 864 q 366 808 371 826 q 363 773 361 789 q 379 749 364 757 q 403 745 393 740 q 419 761 413 750 q 431 786 426 772 q 443 811 436 800 q 456 831 449 821 q 469 847 463 840 q 526 895 499 872 q 581 947 554 918 q 626 997 603 971 q 682 1033 650 1024 q 726 1034 704 1039 q 769 1017 749 1029 q 806 988 789 1004 q 836 956 824 972 q 860 928 847 940 q 885 901 872 915 q 921 844 911 872 q 931 775 931 815 q 932 728 931 756 q 919 683 933 700 q 890 667 908 671 q 857 658 872 664 q 831 643 842 654 q 808 624 819 632 q 783 611 796 615 q 758 597 771 607 q 718 558 739 582 q 694 540 708 549 q 676 517 679 531 q 668 506 674 514 q 649 480 660 494 q 632 451 638 465 q 631 419 626 436 q 647 392 636 403 q 674 369 660 379 q 703 347 688 358 q 738 310 722 331 q 767 268 753 290 q 794 224 781 246 q 824 182 807 201 q 847 156 833 169 q 872 130 860 143 q 892 101 883 117 q 906 69 901 86 q 903 2 914 33 q 885 -61 893 -29 q 874 -103 879 -82 q 861 -143 868 -124 q 853 -164 857 -153 q 842 -184 849 -175 q 826 -197 836 -193 q 803 -194 817 -200 q 786 -181 793 -190 q 772 -163 779 -172 q 756 -148 765 -154 q 735 -144 747 -142 q 711 -159 722 -147 q 692 -187 700 -171 q 678 -219 683 -203 q 672 -246 674 -235 q 672 -299 669 -272 q 668 -351 675 -326 q 642 -387 658 -381 q 614 -360 625 -394 q 606 -322 607 -342 q 603 -283 606 -301 q 594 -245 600 -264 q 583 -208 589 -226 q 567 -144 574 -175 q 540 -86 560 -114 q 496 -18 518 -53 q 454 56 474 17 q 441 81 449 67 q 424 106 433 94 q 404 125 415 118 q 379 131 393 132 q 369 119 372 131 q 366 92 367 107 q 365 65 365 78 q 365 47 365 51 q 366 41 365 44 q 367 35 367 38 q 375 -22 371 6 q 368 -78 379 -49 q 336 -137 356 -110 q 297 -190 317 -164 q 252 -287 261 -239 q 246 -396 243 -335 q 244 -444 247 -421 q 238 -492 242 -468 q 231 -538 233 -515 q 231 -586 228 -561 q 237 -632 232 -610 q 245 -676 242 -654 q 250 -722 249 -699 q 246 -769 251 -744 q 235 -800 242 -789 q 210 -814 229 -811 q 188 -809 196 -815 q 176 -793 181 -803 q 172 -771 172 -783 q 171 -746 171 -758 q 176 -642 171 -693 q 176 -539 182 -592 q 158 -449 172 -490 q 132 -365 143 -407 q 121 -310 124 -337 q 113 -258 118 -283 q 99 -210 108 -233 q 71 -164 90 -186 q 28 -99 43 -133 q 14 -24 14 -65 q 17 7 14 -8 q 18 38 19 22 q 14 74 15 57 q 10 111 13 92 q 3 185 6 149 q 3 260 0 222 q 11 315 6 289 q 17 372 17 342 z "},"l":{"ha":800,"x_min":-3,"x_max":800,"o":"m 14 414 q 33 505 18 461 q 49 597 49 549 q 44 703 49 650 q 29 807 40 756 q 22 849 25 826 q 19 892 18 871 q 29 932 21 914 q 57 963 38 950 q 91 971 72 972 q 126 974 110 969 q 163 983 146 978 q 200 990 181 988 q 233 993 217 992 q 263 992 249 994 q 290 981 278 989 q 307 954 301 972 q 315 882 318 922 q 308 810 311 842 q 306 656 300 731 q 331 507 311 582 q 338 426 342 467 q 339 344 333 386 q 349 313 342 324 q 367 300 356 303 q 392 299 378 297 q 421 304 406 301 q 498 308 460 311 q 576 310 536 306 q 642 324 611 313 q 710 332 674 335 q 758 313 732 329 q 792 275 783 297 q 794 252 797 261 q 789 231 790 243 q 789 190 786 211 q 793 147 792 168 q 795 119 793 136 q 799 86 797 103 q 798 54 800 69 q 788 29 796 39 q 756 9 778 18 q 721 -7 735 0 l 646 -49 q 574 -132 586 -82 q 568 -244 561 -182 q 573 -325 572 -281 q 565 -406 574 -369 q 549 -433 561 -425 q 522 -439 536 -440 q 497 -427 508 -437 q 482 -397 485 -417 q 481 -340 476 -368 q 486 -283 486 -311 q 485 -250 486 -267 q 481 -217 483 -233 q 472 -178 478 -200 q 451 -147 467 -157 q 432 -142 442 -140 q 417 -154 422 -143 q 410 -174 413 -164 q 400 -193 407 -183 q 384 -201 393 -204 q 368 -189 375 -199 q 360 -170 363 -181 q 346 -154 357 -160 q 333 -156 338 -150 q 324 -172 328 -162 q 317 -191 319 -181 q 314 -206 315 -201 q 308 -224 311 -212 q 299 -242 306 -236 q 284 -246 290 -249 q 274 -237 278 -243 q 269 -222 271 -231 q 267 -207 267 -212 q 259 -157 264 -183 q 242 -108 254 -131 q 215 -77 229 -87 q 181 -62 200 -67 q 169 -60 175 -61 q 157 -57 164 -60 q 72 -22 115 -46 q 10 44 29 3 q 1 98 -3 71 q 11 151 4 125 q 26 204 18 178 q 29 258 33 231 q 17 336 24 299 q 14 414 10 374 z "},"m":{"ha":1082,"x_min":0,"x_max":1082,"o":"m 26 364 q 31 428 28 396 q 37 494 35 461 q 40 559 39 526 q 35 624 40 592 q 22 677 31 651 q 11 731 13 703 q 12 787 8 758 q 13 843 15 815 q 6 885 11 858 q 1 937 1 911 q 7 983 0 963 q 38 1007 14 1003 q 74 1003 54 1010 q 110 996 93 997 q 144 995 126 994 q 176 999 161 996 q 210 1008 193 1001 q 247 1018 228 1014 q 283 1022 265 1022 q 318 1013 301 1022 q 368 956 351 992 q 400 888 385 921 q 439 818 417 850 q 488 754 461 786 q 518 738 503 736 q 549 752 533 739 q 581 785 565 765 q 612 826 597 806 q 640 865 626 847 q 664 888 653 882 q 684 907 676 894 q 698 933 692 919 q 712 960 704 947 q 732 983 719 974 q 792 1009 757 1003 q 860 1015 828 1015 l 929 1015 q 965 1021 950 1015 q 999 1029 979 1026 q 1032 1025 1019 1031 q 1051 1008 1044 1019 q 1060 981 1057 996 q 1065 949 1063 965 q 1076 879 1071 914 q 1079 807 1082 844 q 1069 724 1076 765 q 1063 640 1063 682 q 1062 485 1063 561 q 1069 329 1061 408 q 1078 254 1074 290 q 1082 178 1082 218 q 1069 81 1082 124 q 1028 -10 1057 38 q 999 -72 1008 -42 q 983 -143 990 -103 q 976 -219 978 -181 q 976 -296 974 -257 q 978 -329 976 -308 q 981 -373 981 -350 q 981 -416 982 -396 q 972 -446 979 -436 q 944 -458 961 -461 q 919 -440 928 -454 q 908 -392 908 -422 q 907 -343 907 -362 q 908 -241 907 -287 q 890 -140 908 -194 q 854 -76 876 -100 q 826 -53 842 -62 q 788 -32 810 -43 q 758 -10 768 -22 q 743 17 749 3 q 735 49 738 32 q 726 85 732 65 q 713 138 718 113 q 706 192 708 164 q 706 233 704 204 q 706 292 707 261 q 699 349 704 324 q 679 379 693 374 q 653 376 664 385 q 635 354 643 368 q 622 325 628 340 q 613 301 617 310 q 595 282 606 289 q 574 269 585 275 q 552 257 563 264 q 535 238 542 250 q 520 215 528 226 q 504 199 513 204 q 485 197 496 193 q 465 221 475 201 q 440 276 451 247 q 417 332 428 304 q 408 360 411 346 q 394 386 406 375 q 364 402 375 407 q 348 381 353 397 q 342 342 343 364 q 340 310 340 321 q 347 237 340 272 q 357 165 354 201 q 351 93 361 128 q 321 29 340 58 q 303 2 313 15 q 288 -26 294 -11 q 277 -58 283 -36 q 262 -101 271 -81 q 240 -133 253 -122 q 210 -132 226 -144 q 202 -122 204 -128 q 199 -108 200 -115 q 194 -95 197 -101 q 185 -86 192 -89 q 165 -86 169 -79 q 154 -104 161 -93 q 143 -122 149 -111 q 135 -140 138 -132 q 126 -186 128 -160 q 124 -232 124 -212 q 124 -327 124 -281 q 121 -421 124 -374 q 122 -458 121 -435 q 120 -506 122 -482 q 110 -548 118 -529 q 85 -571 103 -567 q 57 -560 64 -575 q 51 -522 50 -544 q 56 -478 51 -500 q 64 -446 61 -456 q 76 -337 76 -393 q 79 -228 76 -282 q 76 -167 81 -199 q 56 -110 72 -136 q 33 -80 44 -93 q 17 -46 22 -67 q 10 56 6 4 q 10 106 11 81 q 13 157 10 131 q 19 260 15 208 q 26 364 24 311 z "},"n":{"ha":889,"x_min":0,"x_max":890,"o":"m 40 454 q 38 494 46 476 q 32 536 29 511 q 41 606 36 572 q 46 681 46 640 q 48 751 46 717 q 53 821 50 785 q 56 863 56 842 q 54 907 57 885 q 51 944 51 925 q 58 981 50 964 q 106 1025 74 1014 q 141 1027 125 1032 q 175 1019 157 1022 q 208 1017 192 1017 q 242 1018 224 1017 q 272 1015 258 1019 q 296 996 286 1010 q 310 965 306 981 q 322 936 315 950 q 358 881 338 907 q 396 829 378 854 q 417 799 407 814 q 439 768 428 783 q 465 727 454 749 q 490 686 475 706 q 501 672 494 681 q 515 658 507 664 q 529 650 522 651 q 542 657 536 649 q 547 688 550 668 q 544 724 544 708 q 542 779 544 751 q 537 835 539 807 q 534 892 535 864 q 539 949 533 921 q 550 981 542 964 q 574 1004 558 997 q 606 1009 589 1013 q 639 1001 622 1006 q 718 990 679 990 q 796 1001 757 989 q 833 1011 813 1007 q 867 997 853 1015 q 877 967 876 985 q 882 935 878 950 q 887 901 886 918 q 888 865 888 885 q 887 797 888 831 q 885 728 886 763 q 876 638 882 683 q 876 547 871 592 q 883 509 879 528 q 888 469 888 490 q 886 431 888 450 q 885 392 885 411 q 888 315 885 356 q 886 242 890 275 q 881 226 885 232 q 876 211 876 221 q 878 193 876 203 q 882 175 881 183 q 884 142 883 158 q 883 108 885 125 q 876 51 881 78 q 861 -3 872 25 q 839 -60 849 -31 q 826 -119 829 -89 q 820 -185 824 -151 q 797 -247 817 -219 q 778 -269 789 -260 q 759 -286 768 -278 q 742 -306 750 -294 q 732 -333 735 -317 q 721 -435 724 -385 q 713 -536 718 -485 q 717 -605 710 -572 q 721 -672 725 -637 q 713 -699 718 -687 q 690 -708 708 -710 q 668 -693 671 -707 q 665 -664 665 -679 q 665 -577 665 -619 q 663 -490 665 -535 q 663 -388 660 -440 q 660 -286 665 -336 q 644 -195 656 -237 q 613 -108 632 -153 q 598 -72 606 -90 q 579 -36 590 -54 q 544 5 565 -12 q 508 44 524 22 q 483 86 493 64 q 457 128 472 108 q 428 179 439 153 q 406 233 417 206 q 395 253 401 243 q 378 261 389 263 q 365 254 367 260 q 364 239 364 249 q 366 199 364 219 q 364 160 368 179 q 356 138 361 149 q 347 115 350 128 q 344 75 343 96 q 347 33 344 54 q 351 -8 349 13 q 349 -49 353 -28 q 331 -88 344 -72 q 307 -125 318 -104 q 284 -210 283 -169 q 288 -300 285 -251 q 288 -329 288 -311 q 284 -364 288 -347 q 272 -393 281 -381 q 246 -406 263 -406 q 218 -389 226 -406 q 208 -349 210 -372 q 205 -302 206 -325 q 200 -267 204 -279 q 188 -240 196 -256 q 170 -211 181 -224 q 146 -194 160 -199 q 115 -201 132 -189 q 100 -228 103 -211 q 82 -251 97 -244 q 51 -251 65 -258 q 29 -228 36 -243 q 22 -194 22 -212 q 22 -158 21 -176 q 22 -122 22 -140 q 18 -89 22 -104 q 1 24 1 -31 q 10 138 0 79 q 20 177 13 158 q 26 217 28 196 q 19 295 24 256 q 21 375 15 335 q 29 415 24 394 q 40 454 35 435 z "},"o":{"ha":885,"x_min":0,"x_max":885,"o":"m 0 453 q 20 575 0 515 q 72 688 40 635 q 94 720 83 704 q 113 754 104 736 q 128 791 121 774 q 147 826 135 808 q 188 878 165 851 q 237 926 210 904 q 294 962 264 947 q 358 976 325 976 q 390 972 375 976 q 419 964 404 968 q 454 960 438 960 q 488 958 471 961 q 548 947 517 953 q 609 931 579 940 q 666 907 639 921 q 717 872 693 893 q 783 787 757 835 q 833 690 810 739 q 858 631 847 661 q 876 568 869 600 q 883 506 885 536 q 879 442 882 475 q 869 386 876 413 q 857 332 863 360 q 849 281 851 307 q 839 229 846 254 q 788 118 824 169 q 708 24 753 67 q 695 10 701 17 q 682 -4 689 3 q 666 -23 674 -14 q 650 -42 658 -32 q 631 -64 640 -53 q 617 -87 621 -75 q 614 -113 614 -100 q 611 -139 614 -126 q 606 -162 608 -151 q 604 -185 604 -174 q 602 -254 604 -221 q 600 -324 600 -287 q 602 -353 600 -332 q 606 -401 604 -375 q 608 -456 608 -428 q 603 -507 608 -485 q 588 -542 599 -529 q 558 -550 578 -556 q 542 -535 544 -547 q 538 -511 539 -522 q 537 -472 535 -492 q 535 -432 539 -451 q 528 -399 532 -415 q 521 -367 525 -382 q 516 -337 517 -351 q 513 -307 515 -322 q 503 -249 508 -279 q 486 -194 499 -218 q 449 -174 471 -167 q 414 -204 426 -181 q 406 -225 410 -211 q 397 -251 403 -239 q 383 -271 392 -264 q 360 -271 374 -278 q 346 -248 351 -267 q 338 -219 340 -229 q 291 -135 321 -175 q 233 -56 261 -96 q 193 -12 217 -31 q 149 26 169 7 q 85 118 104 71 q 50 222 67 165 q 17 335 33 279 q 0 453 0 390 m 392 475 q 384 448 385 464 q 387 415 383 432 q 397 383 390 397 q 413 360 404 368 q 435 347 424 349 q 456 349 446 344 q 474 363 467 353 q 485 385 482 372 q 488 406 488 394 q 486 428 489 418 q 477 444 482 443 q 461 451 472 444 q 446 465 454 456 q 428 480 438 474 q 409 487 418 486 q 392 475 400 488 z "},"p":{"ha":792,"x_min":-3,"x_max":794,"o":"m 22 486 q 29 521 25 504 q 31 556 33 538 q 24 583 28 571 q 21 611 21 596 q 26 668 21 640 q 32 724 31 696 q 37 781 33 751 q 38 839 40 811 q 24 888 35 860 q 9 943 14 915 q 13 993 4 971 q 58 1024 22 1015 q 90 1022 74 1026 q 121 1015 106 1018 q 160 1009 140 1011 q 200 1010 181 1007 q 247 1022 225 1013 q 296 1032 269 1032 q 346 1021 322 1032 q 396 1006 369 1010 q 435 1010 417 1003 q 474 1019 454 1017 q 510 1015 492 1021 q 545 1001 528 1010 q 579 981 563 992 q 613 963 596 971 q 658 933 636 951 q 697 892 681 914 q 731 831 719 864 q 753 765 742 797 q 769 722 760 740 q 778 678 778 704 q 788 628 778 654 q 790 580 794 606 q 783 532 786 554 q 769 474 781 503 q 740 421 758 444 q 662 365 708 378 q 564 353 615 353 q 481 359 524 353 q 399 354 438 365 q 391 346 394 353 q 384 330 388 339 q 378 313 381 321 q 375 300 375 304 q 374 270 372 286 q 379 240 376 254 q 395 167 385 203 q 417 94 406 131 q 426 47 424 72 q 419 0 429 21 q 376 -50 404 -31 q 351 -62 365 -57 q 329 -82 338 -68 q 319 -102 322 -93 q 306 -121 317 -111 q 277 -135 289 -135 q 253 -131 265 -136 q 230 -118 242 -125 q 203 -108 218 -111 q 172 -112 182 -106 q 160 -132 163 -119 q 159 -159 157 -144 q 163 -183 161 -174 q 159 -232 167 -208 q 144 -278 151 -256 q 134 -340 135 -308 q 138 -402 133 -371 q 147 -465 142 -433 q 154 -526 153 -496 q 156 -554 154 -539 q 156 -585 157 -569 q 151 -613 154 -600 q 138 -633 147 -626 q 113 -644 122 -644 q 98 -635 103 -643 q 92 -614 93 -626 q 90 -589 90 -601 q 79 -545 92 -565 q 64 -501 67 -525 q 60 -450 60 -476 q 56 -397 60 -424 q 44 -310 49 -353 q 46 -224 40 -268 q 52 -143 50 -183 q 43 -62 54 -103 q 36 -40 40 -51 q 29 -15 32 -28 q 15 31 22 8 q 4 78 8 54 q 2 136 -3 110 q 14 194 7 163 q 22 267 21 231 q 28 340 24 304 q 31 378 31 360 q 31 417 31 397 q 26 452 31 436 q 22 486 21 468 m 382 664 q 378 641 381 653 q 382 621 376 629 q 390 616 385 615 q 399 619 394 617 q 409 626 404 622 q 417 631 414 629 q 437 648 426 635 q 435 681 447 661 q 418 701 428 690 q 401 717 408 711 q 388 722 392 724 q 383 711 383 719 q 383 690 382 703 q 382 664 383 676 z "},"q":{"ha":967,"x_min":-1,"x_max":965,"o":"m 1 454 q 13 537 3 499 q 32 617 22 575 q 44 677 39 649 q 60 738 49 706 q 84 801 71 769 q 114 861 97 832 q 138 903 125 881 q 165 943 150 926 q 201 966 181 958 q 240 982 221 974 q 333 1013 285 1001 q 431 1017 382 1024 q 494 1001 463 1011 q 557 985 525 992 q 637 957 599 975 q 708 911 675 939 q 797 795 765 864 q 849 656 829 726 q 868 579 860 617 q 882 501 876 542 q 885 419 889 457 q 875 348 881 383 q 863 276 869 313 q 851 244 858 257 q 833 215 844 231 q 817 192 824 204 q 814 163 810 179 q 828 137 817 146 q 854 121 840 128 q 889 105 869 113 q 926 86 908 97 q 954 60 943 75 q 965 24 965 46 q 953 -10 965 4 q 924 -36 940 -24 q 893 -60 908 -49 q 871 -89 878 -72 q 866 -113 865 -100 q 861 -137 867 -126 q 845 -153 856 -149 q 824 -162 835 -158 q 797 -176 810 -168 q 775 -197 783 -185 q 767 -222 768 -208 q 757 -246 767 -236 q 749 -252 751 -251 q 742 -251 746 -253 q 736 -249 739 -250 q 728 -247 733 -247 q 709 -256 715 -249 q 701 -272 703 -262 q 699 -294 699 -282 q 700 -315 700 -306 q 701 -374 700 -346 q 701 -432 701 -403 q 699 -462 701 -447 q 700 -492 697 -476 q 706 -514 701 -503 q 711 -536 711 -525 q 708 -556 711 -544 q 700 -576 706 -567 q 686 -590 694 -585 q 668 -587 678 -594 q 656 -569 660 -582 q 650 -540 651 -556 q 649 -508 649 -524 q 651 -485 650 -493 q 656 -455 653 -469 q 661 -425 660 -440 q 660 -397 663 -410 q 657 -369 658 -383 q 657 -335 656 -351 q 654 -303 658 -319 q 649 -233 647 -271 q 649 -188 650 -211 q 644 -144 649 -165 q 633 -113 640 -128 q 614 -89 625 -99 q 589 -76 603 -79 q 558 -81 575 -72 q 540 -98 546 -87 q 528 -119 533 -108 q 516 -140 522 -133 q 503 -158 510 -147 q 490 -186 493 -171 q 485 -217 486 -201 q 483 -249 483 -232 q 482 -281 483 -265 q 478 -311 481 -294 q 464 -336 475 -328 q 442 -341 450 -347 q 432 -319 435 -335 q 431 -294 429 -307 q 432 -269 432 -281 q 428 -247 432 -257 q 413 -231 424 -237 q 397 -228 404 -225 q 382 -238 389 -232 q 369 -252 375 -244 q 354 -264 363 -260 q 340 -263 346 -268 q 331 -249 335 -258 q 325 -228 328 -239 q 321 -211 322 -218 q 303 -178 314 -192 q 282 -150 293 -165 q 249 -106 265 -128 q 213 -64 232 -83 q 174 -33 194 -44 q 138 3 153 -21 q 110 59 121 29 q 86 117 100 89 q 63 167 75 142 q 40 219 51 193 q 33 240 36 231 q 26 261 29 250 q 6 357 13 306 q 1 454 -1 408 m 361 433 q 364 403 364 418 q 367 372 364 388 q 377 347 369 363 q 399 335 385 332 q 413 349 411 338 q 414 375 414 361 q 418 401 414 389 q 439 418 422 414 q 458 415 449 419 q 476 407 467 411 q 495 401 486 403 q 513 408 504 400 q 522 435 524 419 q 515 464 521 451 q 514 466 514 465 q 513 468 514 467 q 494 497 506 482 q 467 525 482 513 q 437 546 453 538 q 406 556 421 554 q 380 551 390 557 q 363 535 369 544 q 355 512 357 525 q 353 485 353 499 q 356 458 353 469 q 361 433 358 447 z "},"r":{"ha":860,"x_min":0,"x_max":861,"o":"m 36 442 q 35 479 29 463 q 38 519 40 496 q 35 572 33 546 q 31 624 38 597 q 26 638 28 632 q 25 653 25 643 q 28 669 25 663 q 31 686 32 676 q 25 708 29 700 q 21 731 21 715 q 21 750 21 742 q 18 768 21 758 q 12 808 14 788 q 6 849 10 829 q 1 890 1 868 q 7 932 0 913 q 25 976 14 954 q 60 1004 36 997 q 128 1015 93 1014 q 197 1026 163 1015 q 264 1033 229 1036 q 332 1028 299 1029 q 440 1010 390 1025 q 543 976 489 994 q 588 952 571 967 q 626 914 606 938 q 649 892 636 903 q 674 868 661 881 q 697 842 686 856 q 713 817 707 829 q 719 750 725 786 q 713 682 713 714 q 719 633 713 657 q 724 585 725 610 q 714 549 722 565 q 694 517 706 532 q 680 481 683 500 q 664 446 676 463 q 648 430 657 436 q 633 413 639 424 q 637 390 626 397 q 656 372 647 383 q 692 335 672 353 q 725 297 711 318 q 749 253 740 276 q 765 208 757 231 q 798 138 779 172 q 836 71 817 103 q 858 12 854 42 q 858 -49 861 -18 q 847 -110 854 -79 q 835 -172 839 -140 q 825 -238 829 -206 q 815 -304 821 -271 q 810 -332 813 -317 q 803 -360 808 -347 q 786 -380 797 -372 q 757 -386 775 -387 q 737 -377 744 -385 q 725 -359 729 -369 q 719 -337 721 -349 q 718 -315 718 -325 q 719 -294 718 -307 q 717 -267 719 -281 q 710 -244 715 -254 q 692 -232 704 -235 q 676 -236 682 -229 q 664 -249 671 -243 q 643 -262 654 -257 q 621 -260 632 -267 q 605 -237 606 -253 q 601 -208 604 -222 q 594 -167 597 -187 q 584 -128 592 -146 q 563 -97 576 -110 q 528 -78 550 -83 q 507 -67 514 -75 q 497 -47 500 -58 q 492 -24 493 -36 q 490 0 492 -11 q 453 85 485 47 q 438 101 446 93 q 424 118 429 108 q 415 138 418 128 q 407 158 411 149 q 392 185 400 172 q 369 203 385 197 q 349 203 354 210 q 350 181 344 196 q 359 162 354 168 q 364 140 364 156 q 362 118 364 128 q 358 97 360 108 q 367 67 357 78 q 385 43 376 57 q 397 9 396 26 q 392 -28 397 -8 q 372 -66 385 -51 q 343 -100 358 -81 q 320 -162 324 -126 q 310 -231 317 -199 q 305 -253 307 -242 q 288 -267 303 -264 q 269 -259 275 -268 q 258 -240 263 -250 q 248 -222 254 -229 q 228 -219 242 -215 q 210 -242 214 -224 q 207 -272 207 -260 q 202 -339 207 -306 q 199 -404 197 -372 q 202 -440 200 -422 q 201 -475 204 -457 q 192 -512 199 -494 q 183 -550 186 -531 q 174 -581 181 -565 q 149 -596 168 -597 q 122 -583 133 -594 q 104 -557 111 -571 q 96 -508 94 -535 q 99 -457 97 -481 q 104 -385 100 -421 q 111 -313 108 -349 q 113 -242 114 -278 q 104 -169 113 -206 q 88 -120 97 -144 q 71 -72 79 -96 q 58 -26 63 -49 q 44 19 53 -4 q 37 67 38 43 q 33 117 36 92 q 22 220 28 168 q 26 322 15 272 q 28 330 28 326 q 29 336 28 333 q 42 389 39 364 q 36 442 46 414 m 329 626 q 333 603 331 615 q 344 583 336 590 q 368 578 353 576 q 390 586 383 579 q 402 610 401 594 q 400 639 403 626 q 391 660 397 647 q 375 684 385 674 q 354 699 365 694 q 332 693 343 703 q 324 660 319 682 q 329 626 328 639 z "},"s":{"ha":868,"x_min":-1,"x_max":872,"o":"m 61 851 q 94 902 72 879 q 133 949 115 925 q 186 994 154 976 q 257 1023 218 1013 q 338 1037 296 1033 q 417 1039 379 1040 q 465 1038 443 1038 q 511 1031 486 1038 q 588 1029 547 1021 q 636 1028 617 1036 q 678 1008 656 1019 q 725 991 701 997 q 768 971 749 985 q 808 933 792 953 q 825 888 825 913 q 821 854 825 871 q 814 821 817 838 q 806 788 811 804 q 793 757 800 772 q 785 730 790 750 q 773 692 781 710 q 754 665 765 674 q 726 676 743 657 q 717 694 719 683 q 713 711 715 704 q 668 750 700 739 q 619 756 644 757 q 569 758 593 756 q 528 762 547 761 q 493 744 508 763 q 481 717 481 731 q 490 692 482 703 q 512 672 499 681 q 539 657 525 663 q 628 621 585 639 q 713 579 671 603 q 765 549 740 564 q 804 508 789 533 q 826 474 815 489 q 838 436 838 460 q 846 383 838 408 q 863 332 854 357 q 866 278 872 304 q 860 224 860 251 q 846 124 860 171 q 808 29 832 76 q 794 3 801 17 q 775 -21 786 -10 q 756 -35 768 -29 q 736 -49 744 -40 q 719 -74 725 -60 q 707 -100 714 -89 q 688 -127 700 -115 q 667 -150 676 -139 q 639 -194 649 -172 q 622 -239 629 -215 q 614 -294 614 -267 q 611 -351 614 -322 q 608 -378 610 -362 q 588 -397 607 -393 q 565 -392 572 -401 q 554 -372 558 -383 q 549 -344 549 -358 q 551 -318 549 -331 q 558 -292 554 -306 q 564 -264 563 -279 q 563 -189 568 -229 q 533 -117 557 -149 q 497 -92 517 -94 q 458 -101 476 -90 q 428 -131 440 -112 q 411 -168 415 -150 q 410 -207 408 -186 q 403 -246 411 -228 q 383 -278 394 -264 q 365 -312 371 -293 q 353 -353 358 -335 q 353 -396 349 -372 q 356 -442 356 -418 q 350 -487 357 -465 q 338 -510 347 -499 q 310 -510 329 -521 q 297 -485 296 -503 q 300 -456 297 -467 q 307 -419 304 -436 q 308 -381 310 -401 q 310 -314 306 -347 q 307 -247 314 -281 q 301 -224 304 -236 q 297 -197 299 -211 q 297 -153 296 -175 q 296 -112 299 -132 q 283 -74 293 -93 q 249 -37 272 -56 q 226 -20 238 -29 q 203 -6 214 -11 q 176 4 189 1 q 151 18 163 7 q 113 46 135 35 q 72 69 92 57 q 37 95 53 81 q 17 132 21 110 q 5 181 11 156 q 1 231 -1 207 q 13 297 6 267 q 17 364 19 328 q 24 395 15 379 q 60 414 33 411 q 123 415 89 418 q 192 404 157 411 q 258 385 226 397 q 317 361 290 374 q 352 332 336 351 q 383 292 368 313 q 415 256 399 272 q 453 235 432 239 q 501 251 486 229 q 515 301 515 274 q 494 369 515 342 q 440 414 474 396 q 365 444 407 432 q 283 465 324 456 q 205 485 242 475 q 144 510 168 494 q 70 578 96 539 q 36 663 44 618 q 35 757 28 708 q 61 851 43 806 z "},"t":{"ha":1051,"x_min":0,"x_max":1053,"o":"m 6 838 q 11 904 10 871 q 18 971 13 938 q 22 999 21 983 q 29 1026 22 1015 q 54 1047 38 1040 q 90 1055 71 1053 q 127 1057 108 1057 q 160 1057 146 1057 q 237 1053 199 1057 q 313 1043 275 1050 q 483 1031 397 1031 q 557 1039 522 1031 q 629 1050 592 1047 q 699 1040 665 1051 q 771 1029 733 1029 q 801 1032 786 1029 q 831 1035 815 1035 q 872 1032 851 1035 q 914 1032 893 1029 q 951 1035 933 1035 q 988 1033 968 1036 q 1038 1010 1025 1028 q 1050 956 1051 993 q 1043 900 1049 928 q 1038 844 1038 872 q 1040 786 1038 815 q 1043 728 1042 757 q 1049 682 1044 708 q 1046 638 1053 656 q 1018 616 1039 618 q 981 622 997 614 q 963 635 971 628 q 940 638 954 643 q 926 622 931 633 q 918 597 921 611 q 915 569 915 583 q 913 546 914 556 q 908 524 911 540 q 901 494 906 508 q 888 472 896 479 q 868 479 879 465 q 860 504 861 486 q 858 533 860 522 q 856 564 856 550 q 844 590 856 578 q 819 608 833 603 q 799 631 806 613 q 795 646 796 639 q 793 659 794 653 q 788 671 792 665 q 776 681 785 676 q 738 680 753 693 q 715 644 724 667 q 704 595 707 621 q 701 557 701 569 q 706 480 701 518 q 713 403 710 442 q 710 326 717 363 q 701 249 703 289 q 708 151 700 200 q 713 51 717 101 q 697 -38 710 6 q 679 -126 683 -82 q 673 -190 676 -158 q 667 -253 669 -221 q 663 -318 664 -286 q 664 -386 661 -350 q 668 -443 665 -414 q 668 -500 671 -472 q 663 -518 668 -508 q 650 -533 657 -528 q 635 -538 643 -539 q 619 -526 626 -537 q 611 -482 611 -511 q 613 -436 611 -453 q 612 -401 613 -426 q 607 -344 611 -375 q 596 -283 603 -314 q 578 -228 589 -251 q 553 -197 568 -206 q 517 -201 538 -187 q 506 -214 510 -206 q 499 -228 503 -222 q 488 -237 494 -235 q 467 -236 481 -240 q 441 -216 450 -231 q 426 -183 432 -201 q 415 -147 419 -165 q 407 -115 411 -128 q 377 -28 392 -69 q 363 63 363 13 q 358 107 363 85 q 353 149 353 129 q 359 172 353 160 q 363 196 365 183 q 352 213 361 207 q 340 233 343 218 q 348 259 339 249 q 358 283 357 269 q 355 305 360 296 q 350 325 350 314 q 356 374 350 347 q 365 429 363 401 q 365 467 367 439 q 360 530 364 496 q 347 597 356 564 q 326 652 339 631 q 293 678 313 674 q 249 656 274 682 q 231 631 239 646 q 219 600 224 617 q 211 567 214 583 q 208 536 208 550 q 208 510 208 525 q 206 481 208 496 q 199 454 204 467 q 183 435 194 442 q 158 431 168 424 q 144 451 149 438 q 136 482 139 465 q 131 508 133 499 q 118 545 125 526 q 92 574 111 564 q 58 591 71 583 q 46 626 46 599 q 48 646 46 636 q 47 664 50 656 q 36 680 44 674 q 22 693 28 686 q 1 763 0 722 q 6 838 3 804 z "},"u":{"ha":894,"x_min":1,"x_max":894,"o":"m 22 472 q 10 547 15 514 q 13 622 6 579 q 13 648 14 636 q 8 672 11 660 q 3 694 6 683 q 1 719 1 706 q 10 755 3 739 q 22 793 17 771 q 30 838 26 813 q 38 890 33 864 q 53 938 43 915 q 83 972 64 960 q 118 983 99 983 q 156 986 138 983 q 211 991 183 990 q 267 993 239 992 q 310 993 290 994 q 349 976 329 992 q 372 943 365 961 q 381 906 379 925 q 383 865 383 886 q 383 825 382 844 q 402 719 389 771 q 431 614 415 667 q 433 583 436 596 q 424 558 431 569 q 409 536 418 547 q 392 511 400 525 q 364 412 368 467 q 382 311 360 357 q 412 279 393 288 q 451 275 431 271 q 490 294 472 279 q 518 328 508 308 q 526 352 525 342 q 527 373 528 363 q 524 394 526 383 q 519 418 521 406 q 519 473 515 446 q 526 526 522 500 q 535 576 531 554 q 540 619 539 599 q 538 662 540 640 q 528 711 536 683 q 515 774 519 739 q 514 844 510 810 q 533 906 518 878 q 576 951 547 935 q 617 961 596 963 q 658 967 639 960 q 694 986 678 974 q 733 1001 711 999 q 814 967 783 1008 q 869 858 847 921 q 893 739 892 796 q 894 624 894 681 q 890 511 894 568 q 875 411 888 458 q 853 313 863 364 q 844 252 847 282 q 835 192 840 222 q 833 177 833 185 q 829 163 832 169 q 804 97 819 131 q 763 40 789 64 q 742 26 753 32 q 722 11 731 21 q 703 -15 713 0 q 686 -43 693 -29 q 675 -77 678 -58 q 671 -112 672 -96 q 668 -167 668 -137 q 660 -219 668 -196 q 647 -237 657 -229 q 625 -243 636 -246 q 613 -235 617 -242 q 604 -223 608 -229 q 595 -212 600 -217 q 583 -207 590 -207 q 553 -234 558 -207 q 551 -296 549 -261 q 555 -365 553 -331 q 547 -411 557 -399 q 527 -426 536 -425 q 511 -419 518 -426 q 499 -401 504 -412 q 493 -378 494 -389 q 490 -333 490 -356 q 490 -289 490 -311 q 486 -244 489 -267 q 475 -200 483 -222 q 458 -160 468 -181 q 421 -144 447 -140 q 400 -155 406 -147 q 390 -178 394 -162 q 388 -201 388 -187 q 388 -228 389 -215 q 383 -253 388 -242 q 367 -267 379 -264 q 347 -262 353 -271 q 340 -240 342 -253 q 335 -213 338 -226 q 325 -193 333 -200 q 305 -187 315 -186 q 288 -175 294 -187 q 283 -152 281 -164 q 278 -129 285 -140 q 259 -115 268 -114 q 246 -129 250 -117 q 244 -157 240 -143 q 239 -183 247 -171 q 232 -193 236 -187 q 221 -194 228 -199 q 214 -183 214 -192 q 214 -168 214 -175 q 210 -151 214 -160 q 204 -136 207 -143 q 189 -109 197 -122 q 171 -83 181 -96 q 114 39 126 -29 q 101 75 110 61 q 85 107 92 89 q 58 180 69 143 q 47 257 47 217 q 33 324 47 292 q 18 393 19 357 q 22 433 17 417 q 22 472 26 450 z "},"v":{"ha":919,"x_min":-1,"x_max":918,"o":"m 122 424 q 106 472 115 450 q 85 517 96 493 q 66 577 69 550 q 60 640 63 604 q 56 669 60 658 q 48 687 53 679 q 37 703 43 694 q 24 725 31 711 q 2 795 6 757 q 8 870 -1 833 q 40 938 18 907 q 96 985 63 968 q 131 1005 113 993 q 167 1027 149 1017 q 206 1044 186 1038 q 243 1047 225 1051 q 310 1002 282 1039 q 359 917 339 965 q 391 820 379 869 q 407 739 403 771 q 410 706 407 735 q 420 645 414 676 q 435 591 426 614 q 456 576 444 568 q 487 617 475 590 q 506 676 499 644 q 519 738 514 707 q 531 789 524 768 q 550 834 538 813 q 568 879 563 856 q 581 938 575 908 q 599 992 586 968 q 633 1031 611 1017 q 692 1046 654 1046 q 727 1033 706 1046 q 764 1017 749 1019 q 814 1015 788 1013 q 863 1014 840 1017 q 902 998 886 1011 q 918 950 918 985 q 911 913 918 931 q 895 878 904 896 q 878 843 886 861 q 871 807 871 825 q 876 783 871 796 q 876 758 881 771 q 859 737 871 746 q 843 713 847 728 q 839 678 839 696 q 839 643 839 661 q 838 608 839 625 q 832 575 838 590 q 816 550 828 563 q 797 525 804 538 q 781 481 786 504 q 772 433 775 458 q 744 331 765 381 q 706 232 724 281 q 694 190 697 208 q 676 150 690 172 q 649 111 663 131 q 621 72 635 92 q 578 5 599 40 q 549 -74 558 -31 q 544 -151 540 -111 q 551 -229 547 -190 q 553 -253 553 -240 q 552 -279 554 -267 q 544 -301 550 -292 q 525 -312 538 -311 q 495 -296 503 -317 q 487 -246 488 -275 q 490 -188 486 -217 q 493 -147 493 -160 q 492 -99 493 -126 q 481 -51 492 -71 q 449 -28 471 -35 q 414 -40 428 -22 q 398 -97 397 -62 q 401 -158 399 -132 q 400 -269 407 -217 q 389 -378 393 -321 q 385 -400 389 -385 q 376 -428 382 -415 q 360 -446 369 -440 q 339 -440 351 -451 q 329 -416 328 -429 q 333 -392 331 -403 q 338 -333 338 -362 q 340 -265 338 -300 q 333 -196 343 -229 q 323 -176 331 -185 q 307 -160 315 -168 q 292 -144 299 -153 q 281 -125 285 -136 q 278 -81 274 -104 q 278 -36 282 -57 q 244 52 268 10 q 206 139 221 94 q 201 185 199 163 q 197 231 203 207 q 181 269 193 250 q 160 307 168 288 q 138 364 146 335 q 122 424 131 393 z "},"w":{"ha":1233,"x_min":-1,"x_max":1233,"o":"m 68 336 q 59 414 63 375 q 49 492 56 453 q 44 545 43 519 q 44 600 46 571 q 33 672 43 631 q 14 756 24 714 q 1 840 4 799 q 11 911 -1 881 q 28 948 18 928 q 50 981 39 968 q 70 993 58 989 q 96 999 82 997 q 122 1003 110 1001 q 146 1008 135 1006 q 194 1023 171 1015 q 243 1033 217 1031 q 295 1031 275 1036 q 335 1000 315 1025 q 360 951 351 976 q 381 897 369 925 q 393 851 390 874 q 403 804 396 828 q 406 785 404 797 q 408 760 407 774 q 410 734 410 746 q 413 715 411 722 q 417 691 414 706 q 431 672 419 676 q 449 676 440 668 q 466 694 458 683 q 479 719 474 706 q 488 739 485 732 q 507 777 497 758 q 529 815 517 796 q 544 846 536 826 q 565 871 551 865 q 581 872 572 874 q 597 871 590 871 q 628 869 614 871 q 658 864 643 867 q 696 847 682 860 q 719 819 710 835 q 737 785 729 803 q 754 749 744 767 q 765 731 760 740 q 778 714 771 721 q 795 713 788 706 q 808 733 803 719 q 818 763 814 747 q 824 788 822 779 q 836 853 831 819 q 854 915 842 886 q 879 966 865 943 q 918 1001 893 989 q 938 1004 926 1006 q 958 1000 949 1003 q 990 992 975 997 q 1021 981 1006 986 q 1078 960 1049 971 q 1131 933 1107 949 q 1153 921 1136 931 q 1189 899 1171 911 q 1220 876 1207 888 q 1232 858 1233 865 q 1222 851 1232 856 q 1210 842 1213 846 q 1189 799 1199 822 q 1175 753 1179 775 q 1163 708 1169 729 q 1146 664 1157 688 q 1125 608 1135 636 q 1104 551 1115 581 q 1094 506 1094 528 q 1088 460 1093 483 q 1080 440 1085 449 q 1072 419 1075 431 q 1060 337 1064 379 q 1044 254 1056 294 q 1031 156 1032 206 q 1017 60 1031 107 q 996 1 1007 29 q 975 -57 985 -28 q 969 -112 967 -85 q 969 -167 971 -139 q 963 -204 968 -186 q 958 -242 958 -222 q 958 -261 958 -249 q 951 -279 958 -274 q 929 -281 939 -287 q 917 -264 919 -275 q 911 -233 911 -249 q 910 -201 911 -217 q 905 -165 908 -182 q 899 -131 901 -149 q 897 -101 896 -115 q 894 -69 897 -86 q 884 -42 893 -56 q 863 -22 875 -29 q 839 -17 851 -14 q 817 -37 826 -19 q 806 -61 813 -46 q 792 -90 800 -76 q 772 -110 783 -103 q 747 -111 761 -118 q 734 -93 735 -106 q 726 -69 733 -81 q 699 -39 715 -51 q 675 -7 683 -26 q 660 40 665 17 q 647 83 654 63 q 630 132 638 107 q 617 181 622 157 q 608 208 614 193 q 595 231 603 222 q 578 237 588 239 q 560 213 569 235 q 540 152 547 183 q 526 90 533 121 q 510 28 519 58 q 485 -31 501 -3 q 463 -59 474 -49 q 438 -81 451 -69 q 414 -115 421 -94 q 405 -157 407 -135 q 403 -202 403 -179 q 403 -243 403 -225 q 399 -291 401 -267 q 399 -339 397 -315 q 404 -376 400 -356 q 393 -411 408 -396 q 369 -420 378 -426 q 355 -399 360 -414 q 349 -366 350 -383 q 347 -342 347 -349 q 350 -287 349 -322 q 347 -217 351 -253 q 331 -153 343 -182 q 292 -118 318 -125 q 262 -117 276 -114 q 236 -128 247 -121 q 214 -144 225 -135 q 192 -158 203 -153 q 168 -163 181 -164 q 143 -147 156 -162 q 131 -123 135 -137 q 124 -92 126 -108 q 119 -60 121 -76 q 114 -32 117 -44 q 109 3 111 -14 q 104 40 107 21 q 97 113 100 76 q 88 186 94 150 q 85 226 83 206 q 83 268 86 247 q 76 301 81 285 q 68 336 71 318 z "},"x":{"ha":864,"x_min":-3,"x_max":865,"o":"m 238 507 q 251 533 247 519 q 243 561 254 547 q 215 599 228 581 q 193 642 201 618 q 182 672 188 657 q 164 699 176 688 q 141 717 153 710 q 119 739 129 724 q 106 767 111 753 q 93 796 100 782 q 72 833 83 815 q 50 867 61 850 q 35 883 43 876 q 22 900 28 890 q 35 983 -3 943 q 146 1049 85 1036 q 271 1022 207 1061 q 308 986 293 1008 q 338 944 324 964 q 371 899 354 921 q 403 853 388 876 q 419 829 413 839 q 440 835 426 819 q 465 870 456 851 q 485 908 475 889 q 508 945 496 928 q 533 981 521 963 q 548 1003 540 990 q 565 1028 556 1017 q 585 1049 574 1040 q 611 1058 596 1057 q 653 1051 632 1060 q 695 1031 675 1043 q 733 1003 715 1018 q 767 975 751 988 q 794 947 781 963 q 815 912 807 931 q 822 874 822 893 q 808 836 822 854 q 790 815 801 825 q 772 794 779 806 q 762 767 765 782 q 751 740 758 753 q 737 718 746 729 q 721 696 728 707 q 682 640 701 668 q 643 583 663 613 q 625 561 636 574 q 617 538 614 549 q 627 515 618 526 q 643 494 636 504 q 669 449 658 474 q 692 401 681 425 q 710 356 701 378 q 733 315 719 335 q 749 292 740 304 q 769 269 758 281 q 794 239 783 256 q 817 206 806 222 q 831 185 824 194 q 843 164 839 175 q 858 125 850 146 q 863 85 865 104 q 858 69 861 76 q 853 53 856 63 q 841 23 847 38 q 829 -7 835 8 q 826 -40 824 -22 q 828 -74 828 -57 q 828 -110 828 -92 q 826 -147 828 -128 q 828 -189 825 -165 q 815 -224 831 -212 q 799 -228 806 -231 q 790 -217 793 -225 q 786 -199 786 -210 q 788 -181 786 -189 q 789 -147 790 -164 q 774 -119 788 -131 q 758 -110 767 -112 q 743 -101 750 -107 q 733 -89 735 -94 q 728 -76 732 -83 q 716 -65 724 -68 q 699 -60 708 -61 q 681 -60 690 -60 q 665 -56 672 -60 q 625 -28 642 -44 q 594 8 608 -11 q 565 48 579 28 q 535 86 551 68 q 515 118 522 100 q 497 151 507 136 q 480 185 488 168 q 463 218 472 203 q 447 235 456 229 q 424 235 438 242 q 400 201 406 225 q 389 158 394 176 q 372 119 382 138 q 350 82 361 100 q 328 54 339 67 q 311 25 318 42 q 299 -12 304 7 q 282 -47 293 -31 q 268 -64 275 -58 q 254 -78 261 -69 q 242 -94 247 -85 q 226 -103 238 -103 q 210 -95 215 -103 q 196 -90 206 -87 q 188 -98 189 -93 q 185 -110 186 -103 q 188 -139 183 -121 q 183 -168 193 -157 q 172 -174 176 -176 q 163 -166 167 -172 q 156 -153 158 -160 q 150 -143 153 -146 q 132 -138 139 -135 q 120 -151 125 -142 q 113 -171 115 -160 q 110 -187 111 -182 q 107 -241 104 -211 q 99 -294 110 -271 q 89 -304 94 -306 q 78 -297 83 -303 q 70 -281 74 -290 q 65 -265 67 -272 q 61 -232 63 -249 q 57 -197 60 -215 q 48 -147 54 -172 q 29 -99 42 -122 q 16 -78 22 -87 q 7 -56 10 -68 q 2 -31 4 -43 q 1 -6 0 -18 q 19 61 4 31 q 49 122 33 92 q 83 196 68 158 q 115 269 97 233 q 155 349 135 310 q 190 428 175 388 q 201 447 194 439 q 213 465 207 456 q 225 487 219 476 q 238 507 231 497 z "},"y":{"ha":914,"x_min":-3,"x_max":917,"o":"m 219 460 q 212 518 219 490 q 185 568 204 546 q 163 591 174 581 q 143 613 153 601 q 126 638 133 624 q 110 663 119 651 q 77 701 93 682 q 49 743 61 719 q 35 785 38 763 q 22 826 32 807 q 13 863 13 846 q 10 903 13 879 q 2 942 7 924 q 6 979 -3 960 q 50 1028 21 1013 q 74 1035 63 1035 q 97 1038 85 1035 q 115 1042 107 1040 q 135 1044 124 1044 q 191 1031 163 1044 q 247 1013 219 1017 q 293 1011 269 1010 q 338 1004 317 1013 q 373 975 363 994 q 397 936 383 956 q 407 916 401 929 q 419 890 413 903 q 432 865 425 876 q 449 851 439 854 q 463 853 457 849 q 471 863 468 857 q 475 877 474 869 q 478 890 476 885 q 481 899 479 894 q 486 908 483 904 q 509 948 497 932 q 549 978 521 964 q 574 989 564 985 q 601 993 585 993 q 627 994 618 993 q 650 1004 636 996 q 698 1031 674 1019 q 754 1046 722 1043 q 813 1051 778 1049 q 871 1049 847 1054 q 897 1035 886 1046 q 913 1008 908 1024 q 910 979 917 990 q 896 953 903 968 q 872 899 885 924 q 836 853 860 874 q 750 728 781 803 q 701 617 726 672 q 639 513 675 561 q 617 488 628 497 q 601 458 606 478 q 591 385 594 422 q 588 313 588 349 q 586 245 588 279 q 586 179 585 211 q 583 120 588 147 q 576 61 579 93 q 574 -1 575 29 q 556 -61 572 -32 q 538 -94 546 -78 q 518 -125 529 -110 q 497 -165 507 -143 q 485 -208 488 -186 q 488 -242 483 -224 q 485 -275 493 -260 q 456 -288 475 -293 q 429 -271 436 -283 q 422 -238 422 -256 q 418 -206 422 -221 q 410 -190 415 -196 q 401 -174 406 -183 q 399 -158 399 -168 q 397 -140 399 -149 q 392 -124 396 -131 q 379 -117 389 -117 q 349 -132 358 -115 q 335 -172 339 -149 q 330 -218 331 -194 q 328 -253 329 -242 q 327 -297 325 -276 q 332 -339 329 -317 q 335 -376 335 -357 q 315 -406 335 -394 q 297 -410 304 -412 q 287 -399 290 -407 q 283 -381 283 -392 q 282 -362 282 -371 q 280 -297 282 -331 q 275 -231 278 -264 q 267 -157 272 -193 q 254 -84 261 -121 q 242 -11 247 -47 q 238 61 238 25 q 238 126 238 94 q 236 188 239 157 q 227 251 233 219 q 219 314 221 282 q 218 387 217 350 q 219 460 219 424 z "}}}
